<?xml version="1.0" standalone="no"?>
<!DOCTYPE svg PUBLIC "-//W3C//DTD SVG 1.1//EN" "http://www.w3.org/Graphics/SVG/1.1/DTD/svg11.dtd" >
<svg>
<metadata>
Created by FontForge 20090914 at Tue Jun 28 21:21:19 2016
 By www-data
Font data copyright Google 2011
</metadata>
<defs>
<font id="Roboto-ThinItalic" horiz-adv-x="1121" >
  <font-face 
    font-family="Roboto Th"
    font-weight="250"
    font-style="italic"
    font-stretch="normal"
    units-per-em="2048"
    panose-1="0 0 0 0 0 0 0 0 0 0"
    ascent="1536"
    descent="-512"
    x-height="1082"
    cap-height="1456"
    bbox="-816 -555.001 2390 2146"
    underline-thickness="100"
    underline-position="-100"
    unicode-range="U+0009-U+FFFD"
  />
<missing-glyph horiz-adv-x="490" 
 />
    <glyph glyph-name="fi" unicode="fi" horiz-adv-x="1067" 
d="M174 0l154.003 1027h-188l8 55h188l24 158c16.667 112.667 57.5 197.667 122.5 255s148.833 86 251.5 86c43.333 0 87.5 -4.5 132.5 -13.5s87.5 -23.5 127.5 -43.5l-16 -52c-41.333 19.333 -79.833 33.333 -115.5 42s-80.834 13 -135.501 13
c-80.667 0 -149.834 -25.667 -207.501 -77s-92.834 -121.333 -105.501 -210l-24 -158h286l-8 -55h-286l-154 -1027h-54zM804.003 0h-54l162 1082h54z" />
    <glyph glyph-name=".notdef" horiz-adv-x="490" 
 />
    <glyph glyph-name="uni0002" horiz-adv-x="0" 
 />
    <glyph glyph-name="uni0002" horiz-adv-x="0" 
 />
    <glyph glyph-name="uni0009" unicode="&#x9;" horiz-adv-x="0" 
 />
    <glyph glyph-name="nonmarkingreturn" unicode="&#xd;" horiz-adv-x="490" 
 />
    <glyph glyph-name="space" unicode=" " horiz-adv-x="490" 
 />
    <glyph glyph-name="exclam" unicode="!" horiz-adv-x="397" 
d="M213 478h-54l146 978h54zM162 0h-95l20 134h95z" />
    <glyph glyph-name="quotedbl" unicode="&#x22;" horiz-adv-x="610" 
d="M361 1289l-87 -271h-50l82 268l24 170h55zM542 1289l-87 -271h-50l83 268l24 170h54z" />
    <glyph glyph-name="numbersign" unicode="#" horiz-adv-x="1265" 
d="M737 410h-363l-136 -410h-56l135 410h-270l7 52h280l174 524h-299l8 54h309l138 416h56l-138 -416h365l138 416h56l-139 -416h255l-8 -54h-265l-174 -524h285l-7 -52h-295l-136 -410h-56zM391 462h364l174 524h-365z" />
    <glyph glyph-name="dollar" unicode="$" 
d="M920 344c12.667 90 -3.33398 159.169 -48.001 207.502s-135.667 98.5 -273 150.5c-136 47.333 -232.333 99.333 -289 156s-77.334 140.667 -62.001 252c15.333 110.667 62.166 198.167 140.499 262.5s177.166 98.833 296.499 103.5l27 187h55l-27 -187
c115.333 -6.66699 202.666 -47.5 261.999 -122.5s80.333 -177.167 63 -306.5h-54c15.333 115.333 -3.5 207 -56.5 275s-136.833 102 -251.5 102c-110.667 0 -202.167 -30.833 -274.5 -92.5s-114.166 -134.834 -125.499 -219.501c-12.667 -90 1.66602 -159.833 42.999 -209.5
s134 -99.167 278 -148.5c133.333 -48.667 228.833 -101.334 286.5 -158.001s78.834 -140 63.501 -250c-16 -111.333 -62.667 -198.5 -140 -261.5s-174.666 -97.833 -291.999 -104.5l-26 -188h-55l26 188c-122 4 -221.333 40.167 -298 108.5s-103.667 173.5 -81 315.5l2 5h47
c-19.333 -138 6.83398 -235.333 78.501 -292s164.834 -85 279.501 -85c104.667 0 195.334 31 272.001 93s121 135 133 219z" />
    <glyph glyph-name="percent" unicode="%" horiz-adv-x="1527" 
d="M210 1176c12.667 86.667 48.498 158.5 107.498 215.5s129.167 85.5 210.5 85.5c76 0 135.5 -29.5 178.5 -88.5s58.5 -129.833 46.5 -212.5l-11 -77c-13.333 -86.667 -49.166 -158.167 -107.499 -214.5s-127.166 -84.5 -206.499 -84.5c-78 0 -138.833 29.167 -182.5 87.5
s-59.167 128.833 -46.5 211.5zM253.998 1099c-10.667 -68.667 -0.669922 -126.502 29.9971 -173.502s81.334 -70.5 152.001 -70.5c65.333 0 121 24.333 167 73s74 105.667 84 171l11 77c10.667 68.667 0.833984 126.834 -29.499 174.501s-80.166 71.5 -149.499 71.5
c-65.333 0 -121.5 -24.667 -168.5 -74s-75.5 -106.666 -85.5 -171.999zM843.995 356.998c12 86.667 47.499 158.334 106.499 215.001s128.833 85 209.5 85c76.667 0 136.667 -29.333 180 -88s59 -129.334 47 -212.001l-12 -78
c-13.333 -87.333 -49.166 -159.166 -107.499 -215.499s-127.5 -84.5 -207.5 -84.5c-77.333 0 -137.833 29.167 -181.5 87.5s-59.167 129.166 -46.5 212.499zM886.994 278.998c-10.667 -69.333 -0.833984 -127.5 29.499 -174.5s80.833 -70.5 151.5 -70.5
c65.333 0 121 24.333 167 73s74.333 106 85 172l12 78c10.667 73.333 0.833984 132.5 -29.499 177.5s-80.833 67.5 -151.5 67.5c-66 0 -122 -23.5 -168 -70.5s-74 -105.167 -84 -174.5zM401.994 130.998l-41 31l882 1138l40 -31z" />
    <glyph glyph-name="ampersand" unicode="&#x26;" horiz-adv-x="1247" 
d="M463 803c-44.667 68 -75.8291 130.5 -93.4961 187.5s-21.834 115.833 -12.501 176.5c15.333 103.333 53.833 180.833 115.5 232.5s140.5 77.5 236.5 77.5c84.667 0 148 -24.167 190 -72.5s57.333 -111.5 46 -189.5c-8.66699 -58 -28.334 -105.667 -59.001 -143
s-72.667 -75.333 -126 -114l-226 -161l392 -537c44.667 51.333 82 108.333 112 171s50.333 129.667 61 201h55c-14 -87.333 -37.167 -164.333 -69.5 -231s-74.5 -128.667 -126.5 -186l158 -215h-67l-130 177l-14 -13c-69.333 -59.333 -139.333 -105 -210 -137
s-147 -48 -229 -48c-129.333 0 -229 33.833 -299 101.5s-96.333 158.167 -79 271.5c11.333 78.667 43.666 149.167 96.999 211.5s126.666 128.5 219.999 198.5zM474.005 33c70 0 141.332 16.168 213.999 48.501s139.334 78.166 200.001 137.499l-371 506l-16.5 21.5
c-4.33301 5.66699 -8.5 11.5 -12.5 17.5l-58 -41c-102.667 -78.667 -174.5 -147.167 -215.5 -205.5s-65.167 -113.5 -72.5 -165.5c-14 -92.667 6.83301 -169 62.5 -229s145.5 -90 269.5 -90zM412.004 1169c-8.66699 -54 -5.33105 -108.501 10.002 -163.501
s43.666 -112.167 84.999 -171.5l234 166c45.333 33.333 79.833 67.833 103.5 103.5s38.5 72.834 44.5 111.501c9.33301 65.333 -1.83398 116.333 -33.501 153s-83.5 55 -155.5 55c-76.667 0 -141.167 -24.5 -193.5 -73.5s-83.833 -109.167 -94.5 -180.5z" />
    <glyph glyph-name="quotesingle" unicode="'" horiz-adv-x="406" 
d="M361 1287l-87 -269h-50l82 267l24 171h55z" />
    <glyph glyph-name="parenleft" unicode="(" horiz-adv-x="607" 
d="M155 586c32.667 234 102.165 446.668 208.498 638.001s221.833 322 346.5 392h6l11 -36c-111.333 -67.333 -218.166 -196.5 -320.499 -387.5s-167.833 -391.833 -196.5 -602.5l-4 -26c-31.333 -219.333 -22.666 -422.166 26.001 -608.499s120 -313.833 214 -382.5
l-21 -36l-6 1c-104.667 69.333 -183.667 199.166 -237 389.499s-63.333 403.166 -30 638.499z" />
    <glyph glyph-name="parenright" unicode=")" horiz-adv-x="623" 
d="M465 566c-34.667 -244.667 -104.333 -459.499 -209 -644.499s-220 -313.167 -346 -384.5h-6l-11 36c110.667 67.333 217.167 196.5 319.5 387.5s168.5 392.167 198.5 603.5l4 26c30 219.333 20.667 422.166 -28 608.499s-119.667 313.5 -213 381.5l21 36l6 -1
c102.667 -68.667 180.667 -201 234 -397s64.333 -406.667 33 -632z" />
    <glyph glyph-name="asterisk" unicode="*" horiz-adv-x="856" 
d="M420 715l-290 84l26 54l288 -93l42 324l55 -2l-47 -325l307 105l12 -53l-314 -97l150 -257l-52 -33l-142 262l-218 -265l-40 32z" />
    <glyph glyph-name="plus" unicode="+" horiz-adv-x="1151" 
d="M615 702h481l-8 -53h-481l-75 -503h-55l75 503h-462l8 53h462l76 504h55z" />
    <glyph glyph-name="comma" unicode="," horiz-adv-x="383" 
d="M154 -8l-108 -250h-51l104 246l26 171h54z" />
    <glyph glyph-name="hyphen" unicode="-" horiz-adv-x="807" 
d="M699 599h-590l8 54h590z" />
    <glyph glyph-name="period" unicode="." horiz-adv-x="439" 
d="M179 0h-86l20 130h86z" />
    <glyph glyph-name="slash" unicode="/" horiz-adv-x="782" 
d="M2 -125h-59l845 1581h59z" />
    <glyph glyph-name="zero" unicode="0" 
d="M1001 514c-26 -174 -84.167 -306.667 -174.5 -398s-206.166 -137 -347.499 -137c-134 0 -234.667 48 -302 144s-88.333 226.333 -63 391l64 428c26 172.667 84.5 305 175.5 397s207.167 138 348.5 138c134 0 234.167 -48 300.5 -144s87.166 -226.333 62.499 -391z
M1011 942c22.667 152 7.00195 270.168 -46.998 354.501s-144.333 126.5 -271 126.5c-120.667 0 -222.334 -44 -305.001 -132s-134.667 -204.333 -156 -349l-64 -426c-22.667 -150 -6.83398 -268 47.499 -354s144.833 -129 271.5 -129c120 0 221.167 44.667 303.5 134
s134.5 205.666 156.5 348.999z" />
    <glyph glyph-name="one" unicode="1" 
d="M536 0h-54l214 1425l-380 -78l7 46l435 84z" />
    <glyph glyph-name="two" unicode="2" 
d="M952 0l-870.997 -0.000976562l8 54l577 572c103.333 102.667 177.666 188.5 222.999 257.5s72.666 136.5 81.999 202.5c15.333 111.333 0 195.333 -46 252s-126.667 85 -242 85c-114.667 0 -210.834 -35.333 -288.501 -106s-124.167 -161 -139.5 -271h-45l-3 6
c14.667 122.667 66.167 224.167 154.5 304.5s198.166 120.5 329.499 120.5c115.333 0 204.333 -34.333 267 -103s85.334 -164.667 68.001 -288c-12 -84 -48.833 -166.167 -110.5 -246.5s-150.167 -178.166 -265.5 -293.499l-484 -486l2 -6h792z" />
    <glyph glyph-name="three" unicode="3" 
d="M453 771h110.998c116.667 0 215.834 30.667 297.501 92s129.167 135.666 142.5 222.999c14.667 100.667 -3.16602 182 -53.499 244s-134.833 93 -253.5 93c-104 0 -197.5 -32 -280.5 -96s-132.167 -148 -147.5 -252h-45l-2 6
c15.333 122.667 69.166 219.334 161.499 290.001s199.833 106 322.5 106c120.667 0 213.834 -35.833 279.501 -107.5s89.5 -167.5 71.5 -287.5c-12 -80 -46.333 -150 -103 -210s-128.334 -103 -215.001 -129c89.333 -24 156 -66.667 200 -128s59.333 -137.666 46 -228.999
c-20 -132 -75 -232.833 -165 -302.5s-200 -104.5 -330 -104.5c-119.333 0 -221.666 36.667 -306.999 110s-116.666 176.666 -93.999 309.999l3 6h46c-17.333 -112 8.16699 -202 76.5 -270s162.833 -102 283.5 -102c115.333 0 212.166 31.167 290.499 93.5
s125.5 147.5 141.5 255.5c17.333 118 -7.5 203 -74.5 255s-167.167 78 -300.5 78h-111l7 44l1 5z" />
    <glyph glyph-name="four" unicode="4" 
d="M819 451h253l-8 -54h-253l-59 -397h-54l59 397h-705l4 30l849 1029h65zM148 456l3 -5h614l139 928l-5 2l-97 -128z" />
    <glyph glyph-name="five" unicode="5" 
d="M216 662l197.002 794.002h690l-8 -53h-641l-153 -618c47.333 42 97.666 73.667 150.999 95s128.333 33.333 225 36c116.667 3.33301 206.5 -36.334 269.5 -119.001s84.167 -193.667 63.5 -333c-23.333 -154 -76 -273.333 -158 -358s-197 -127 -345 -127
c-114 0 -206 33.833 -276 101.5s-93.667 166.834 -71 297.501l2 5h48c-18 -119.333 0.5 -207.5 55.5 -264.5s138.167 -85.5 249.5 -85.5c124.667 0 223.667 36.167 297 108.5s120.666 179.166 141.999 320.499c19.333 127.333 4.33301 225.166 -45 293.499
s-129 102.5 -239 102.5c-102.667 0 -188.5 -18 -257.5 -54s-121.5 -88.667 -157.5 -158z" />
    <glyph glyph-name="six" unicode="6" 
d="M755 1477c50 0 100.336 -5.66797 151.003 -17.001s95 -29 133 -53l-29 -51c-39.333 24.667 -78.833 42 -118.5 52s-88.167 15 -145.5 15c-106.667 0 -204.5 -42.5 -293.5 -127.5s-143.833 -196.5 -164.5 -334.5l-44 -295c42.667 73.333 103.167 133.5 181.5 180.5
s163.833 70.5 256.5 70.5c127.333 0 221.166 -42.667 281.499 -128s79.5 -201.666 57.5 -348.999c-21.333 -141.333 -78 -253.5 -170 -336.5s-202 -124.5 -330 -124.5c-122 0 -217.5 49 -286.5 147s-91.5 226.667 -67.5 386l67 448c23.333 158 84.166 283.667 182.499 377
s211.166 140 338.499 140zM221.003 515.999l0.00390625 -3c-22.667 -149.333 -5.33398 -266.833 51.999 -352.5s142.666 -128.5 255.999 -128.5c108 0 203.667 39.5 287 118.5s133.666 175.5 150.999 289.5c20.667 142 6.66699 248 -42 318s-135 105 -259 105
c-98.667 0 -193.834 -34.5 -285.501 -103.5s-144.5 -150.167 -158.5 -243.5h-1z" />
    <glyph glyph-name="seven" unicode="7" 
d="M1147 1402c-170.667 -164 -320.499 -351 -449.499 -561s-212.833 -446.667 -251.5 -710l-20 -131h-54l20 131c37.333 250.667 115.666 480 234.999 688s271 402.333 455 583h-865l8 54h930z" />
    <glyph glyph-name="eight" unicode="8" 
d="M1068 1096c-12.667 -85.333 -47.8291 -157.832 -105.496 -217.499s-128.167 -101.167 -211.5 -124.5c85.333 -26.667 152 -72.667 200 -138s65.667 -141 53 -227c-20 -132.667 -78 -234.167 -174 -304.5s-209.333 -105.5 -340 -105.5c-132 0 -238.833 36.5 -320.5 109.5
s-112.834 173.167 -93.501 300.5c13.333 92 54.166 170.333 122.499 235s152.166 109 251.499 133c-78 25.333 -138.5 68.166 -181.5 128.499s-58.167 130.5 -45.5 210.5c18.667 126 73.167 221 163.5 285s199.166 96 326.499 96c114 0 206.167 -33.5 276.5 -100.5
s96.5 -160.5 78.5 -280.5zM949.005 384.001c15.333 106 -10.832 189.832 -78.499 251.499s-157.834 92.5 -270.501 92.5c-114 0 -217.167 -32 -309.5 -96s-145.833 -146.667 -160.5 -248c-17.333 -111.333 9.16699 -197.666 79.5 -258.999s166.5 -92 288.5 -92
c107.333 0 205.333 32 294 96s141 149 157 255zM1015.01 1101c14.667 98 -8.33203 176.167 -68.999 234.5s-141.334 87.5 -242.001 87.5c-105.333 0 -199 -29 -281 -87s-130.333 -136.333 -145 -235c-15.333 -100.667 8.66699 -179 72 -235s150 -84 260 -84
c96 0 184 29.333 264 88s127 135.667 141 231z" />
    <glyph glyph-name="nine" unicode="9" 
d="M457 33c112.667 0 209.668 38.166 291.001 114.499s132 179.833 152 310.5l42 287c-46.667 -69.333 -106.834 -122.833 -180.501 -160.5s-153.5 -56.5 -239.5 -56.5c-120.667 0 -215.5 44.833 -284.5 134.5s-93.833 198.167 -74.5 325.5
c21.333 142.667 79.5 259.834 174.5 351.501s206.833 137.5 335.5 137.5c126 0 224.333 -44.667 295 -134s93.667 -216 69 -380l-75 -503c-24 -155.333 -82 -274.333 -174 -357s-205 -124 -339 -124c-46 0 -93 5.5 -141 16.5s-95.667 26.5 -143 46.5l24 50
c40.667 -21.333 81.5 -36.5 122.5 -45.5s89.5 -13.5 145.5 -13.5zM530.001 580.999c95.333 0 181 27.167 257 81.5s133.333 119.5 172 195.5l16 104c23.333 153.333 6.16602 268.5 -51.501 345.5s-142.834 115.5 -255.501 115.5c-107.333 0 -203.666 -43.5 -288.999 -130.5
s-136.666 -188.5 -153.999 -304.5c-18 -116.667 0.166992 -213.667 54.5 -291s137.833 -116 250.5 -116z" />
    <glyph glyph-name="colon" unicode=":" horiz-adv-x="364" 
d="M152 0h-86l20 130h86zM293 949h-86l20 130h86z" />
    <glyph glyph-name="semicolon" unicode=";" horiz-adv-x="364" 
d="M301 952h-86l20 130h86zM155 -8l-108 -250h-51l104 246l26 171h54z" />
    <glyph glyph-name="less" unicode="&#x3c;" horiz-adv-x="1053" 
d="M265 577l-125 -37v-6l113 -36l615 -303l-9 -59l-780 379l1 8l5 29l2 13l893 378l-8 -58z" />
    <glyph glyph-name="equal" unicode="=" horiz-adv-x="1142" 
d="M1027 843h-834l9 54h834zM966 436h-834l9 54h834z" />
    <glyph glyph-name="greater" unicode="&#x3e;" horiz-adv-x="1053" 
d="M167 886l9 58l779 -378l-2 -9h1l-5 -29l-2 -12l-892 -379l8 59l706 307l125 36v6l-113 37z" />
    <glyph glyph-name="question" unicode="?" horiz-adv-x="893" 
d="M375 400c12 77.333 26.9971 132.334 44.9971 165.001s59.333 75 124 127c92 77.333 159.667 143.166 203 197.499s72.333 128.5 87 222.5c14.667 101.333 0.5 178.666 -42.5 231.999s-112.833 80 -209.5 80c-90.667 0 -167.5 -28.5 -230.5 -85.5
s-102.167 -131.167 -117.5 -222.5h-46l-2 6c16 113.333 61.5 200.833 136.5 262.5s164.167 92.5 267.5 92.5c105.333 0 185.333 -34 240 -102s74 -156.333 58 -265c-14.667 -98 -47.167 -179.5 -97.5 -244.5s-125.166 -136.833 -224.499 -215.5
c-51.333 -35.333 -84.666 -69.166 -99.999 -101.499s-27.666 -81.833 -36.999 -148.5h-54zM392.997 0.000976562h-82l16 106h82z" />
    <glyph glyph-name="at" unicode="@" horiz-adv-x="1902" 
d="M1765 523c-28 -146 -84.8301 -273.168 -170.497 -381.501s-192.5 -162.5 -320.5 -162.5c-53.333 0 -94.5 20.5 -123.5 61.5s-41.5 97.5 -37.5 169.5c-48.667 -76.667 -103.834 -134.334 -165.501 -173.001s-128.834 -58 -201.501 -58c-87.333 0 -148.166 40 -182.499 120
s-35.5 185.667 -3.5 317c40 166.667 108 300.334 204 401.001s201.333 151 316 151c53.333 0 96.666 -9.33301 129.999 -28s68 -46 104 -82l-134 -565c-22.667 -101.333 -20.834 -169.833 5.49902 -205.5s59.5 -53.5 99.5 -53.5c101.333 0 189.833 45.333 265.5 136
s128.167 208.334 157.5 353.001c53.333 264 32.833 468.5 -61.5 613.5s-269.833 217.5 -526.5 217.5c-216 0 -414.167 -80.5 -594.5 -241.5s-296.833 -372.5 -349.5 -634.5c-52 -254.667 -25.5 -464.334 79.5 -629.001s276.5 -247 514.5 -247c56 0 115.833 7.5 179.5 22.5
s117.834 34.167 162.501 57.5l17 -46c-44.667 -26.667 -102.334 -48.167 -173.001 -64.5s-136.667 -24.5 -198 -24.5c-244 0 -424.833 84 -542.5 252s-149.167 394.333 -94.5 679s173.834 511.334 357.501 680.001s401.834 253 654.501 253
c257.333 0 440.166 -79 548.499 -237s136.166 -375 83.499 -651zM614.003 415.999c-29.333 -111.333 -32.5 -203 -9.5 -275s72.167 -108 147.5 -108c69.333 0 136.833 22.167 202.5 66.5s126.5 125.5 182.5 243.5l116 488c-19.333 26 -44.166 46.167 -74.499 60.5
s-66.833 21.5 -109.5 21.5c-90.667 0 -178.834 -42.5 -264.501 -127.5s-149.167 -208.167 -190.5 -369.5z" />
    <glyph glyph-name="A" unicode="A" horiz-adv-x="1223" 
d="M952 435h-711l-228 -435h-59l762 1456h66l327 -1456h-59zM269 489h671l-182 815l-15 84l-6 1l-40 -85z" />
    <glyph glyph-name="B" unicode="B" horiz-adv-x="1230" 
d="M120 0l218 1456h383c145.333 0 256.333 -31.333 333 -94s105.667 -155.667 87 -279c-12.667 -84 -42.834 -154.167 -90.501 -210.5s-109.5 -93.833 -185.5 -112.5l-2 -6c84.667 -11.333 151.167 -50.833 199.5 -118.5s65.833 -145.834 52.5 -234.501
c-20 -132 -75.667 -231.833 -167 -299.5s-205.666 -101.5 -342.999 -101.5h-485zM281 719.001l-98.999 -664.997h431c118 0 218 30.667 300 92s131.333 145.666 148 252.999c14 97.333 -8.33301 174.166 -67 230.499s-146.334 86.166 -263.001 89.499h-18h-432z
M289.001 773.004h368.001c122.667 2 221.167 29.167 295.5 81.5s119.166 129.833 134.499 232.5c16 108 -7.33301 187.5 -70 238.5s-164 76.5 -304 76.5h-329z" />
    <glyph glyph-name="C" unicode="C" horiz-adv-x="1327" 
d="M1158 446l1.99805 -6c-20.667 -155.333 -82.5 -271 -185.5 -347s-231.833 -114 -386.5 -114c-153.333 0 -270.666 59.333 -351.999 178s-107.666 272.667 -78.999 462l33 218c28.667 198 99.334 354.167 212.001 468.5s249.667 171.5 411 171.5
c146 0 260.833 -40 344.5 -120s113.5 -193 89.5 -339l-3 -6h-46c20 136 -5.16699 238.5 -75.5 307.5s-176.5 103.5 -318.5 103.5c-136.667 0 -257.667 -54 -363 -162s-171 -248.667 -197 -422l-33 -220c-28 -183.333 -6.83301 -326.833 63.5 -430.5
s177.5 -155.5 321.5 -155.5c135.333 0 250.166 34.667 344.499 104s151.833 172.333 172.5 309h45z" />
    <glyph glyph-name="D" unicode="D" horiz-adv-x="1370" 
d="M120 0l218.002 1456h433c161.333 0 292.666 -60.5 393.999 -181.5s138.666 -273.5 111.999 -457.5l-27 -178c-29.333 -194 -110.5 -349 -243.5 -465s-284.167 -174 -453.5 -174h-433zM384.002 1402l-201.999 -1348h379c145.333 0 281.166 55.833 407.499 167.5
s202.166 250.834 227.499 417.501l27 181c25.333 173.333 -6.66699 313.666 -96 420.999s-210.666 161 -363.999 161h-379z" />
    <glyph glyph-name="E" unicode="E" horiz-adv-x="1129" 
d="M984 732h-701l-101 -678h802l-8 -54h-856l218 1456h856l-8 -54h-802l-93 -616h701z" />
    <glyph glyph-name="F" unicode="F" horiz-adv-x="1127" 
d="M997 716h-716l-107 -716h-54l218 1456h872l-8 -54h-818l-95 -630h717z" />
    <glyph glyph-name="G" unicode="G" horiz-adv-x="1429" 
d="M1175 196c-38.667 -52 -104.832 -101.167 -198.499 -147.5s-203.834 -69.5 -330.501 -69.5c-160 0 -284.667 59.833 -374 179.5s-119.666 273.5 -90.999 461.5l36 238c28 190 100.333 340.667 217 452s256.667 167 420 167c149.333 0 265.5 -40.5 348.5 -121.5
s113.5 -183.167 91.5 -306.5l-2 -6h-46c17.333 115.333 -8.33398 207.5 -77.001 276.5s-176.667 103.5 -324 103.5c-142 0 -267.167 -53 -375.5 -159s-174.5 -240.667 -198.5 -404l-36 -240c-27.333 -180 -3 -322.833 73 -428.5s191.333 -158.5 346 -158.5
c111.333 0 209.333 19.167 294 57.5s143.667 81.833 177 130.5l62 414h-445l9 55h499z" />
    <glyph glyph-name="H" unicode="H" horiz-adv-x="1438" 
d="M1158 0h-54l104 695h-930l-104 -695h-54l218 1456h54l-106 -707h930l106 707h54z" />
    <glyph glyph-name="I" unicode="I" horiz-adv-x="534" 
d="M214 0h-54l218 1456h54z" />
    <glyph glyph-name="J" unicode="J" horiz-adv-x="1122" 
d="M1011 1456l54.002 -0.000976562l-155 -1034c-21.333 -140.667 -75.333 -249.667 -162 -327s-190.667 -116 -312 -116c-128.667 0 -227.334 35.833 -296.001 107.5s-91.334 174.834 -68.001 309.501l2 5h47c-20 -130.667 -2.66699 -224.667 52 -282s145 -86 271 -86
c98.667 0 187.5 35.333 266.5 106s127.5 165 145.5 283z" />
    <glyph glyph-name="K" unicode="K" horiz-adv-x="1174" 
d="M473 721h-210l-108 -721h-54l218 1456h54l-102 -682h212l682 682h68l2 -6l-708 -710l531 -740h-68z" />
    <glyph glyph-name="L" unicode="L" horiz-adv-x="1130" 
d="M183 54h787l-8 -54h-842l218 1456h55z" />
    <glyph glyph-name="M" unicode="M" horiz-adv-x="1756" 
d="M814 86l6 -1l813 1371h61l-218 -1456h-54l198 1322l-6 2l-788 -1324h-43l-401 1353l-6 -1l-202 -1352h-54l218 1456h75z" />
    <glyph glyph-name="N" unicode="N" horiz-adv-x="1449" 
d="M1169 0h-54l-731 1356l-6 -1l-203 -1355h-55l218 1456h55l731 -1354l6 1l203 1353h54z" />
    <glyph glyph-name="O" unicode="O" horiz-adv-x="1364" 
d="M1244 619c-30.667 -204 -102.497 -361.667 -215.497 -473s-255.833 -167 -428.5 -167c-164.667 0 -288.834 58.167 -372.501 174.5s-110.834 271.5 -81.501 465.5l33 218c30 203.333 101.5 360.833 214.5 472.5s256.167 167.5 429.5 167.5
c164.667 0 288.667 -58.167 372 -174.5s110.666 -271.5 81.999 -465.5zM1223 839c27.333 186 6.16797 329.833 -63.499 431.5s-184.834 152.5 -345.501 152.5c-152 0 -280 -53.167 -384 -159.5s-169.333 -247.833 -196 -424.5l-33 -220
c-28.667 -187.333 -8 -331.833 62 -433.5s185 -152.5 345 -152.5c152.667 0 281 53.167 385 159.5s169.667 248.5 197 426.5z" />
    <glyph glyph-name="P" unicode="P" horiz-adv-x="1230" 
d="M267 625l-93.001 -625h-54l218 1456h455c145.333 0 254.333 -38.333 327 -115s99.667 -176.667 81 -300c-19.333 -131.333 -74.666 -233.5 -165.999 -306.5s-213.333 -109.5 -366 -109.5h-402zM274.999 679h402c132 0 239.5 34.667 322.5 104
s132.167 154.666 147.5 255.999c16 108.667 -5.33301 196.334 -64 263.001s-158 100 -298 100h-401z" />
    <glyph glyph-name="Q" unicode="Q" horiz-adv-x="1364" 
d="M1244 619c-16 -104 -42.8311 -196.5 -80.498 -277.5s-85.167 -148.833 -142.5 -203.5l207 -236l-44 -35l-208 233c-51.333 -40 -108.666 -70.167 -171.999 -90.5s-131.333 -30.5 -204 -30.5c-164.667 0 -288.834 58.167 -372.501 174.5s-110.834 271.5 -81.501 465.5
l33 218c30 203.333 101.5 360.833 214.5 472.5s256.167 167.5 429.5 167.5c164.667 0 288.667 -58.167 372 -174.5s110.666 -271.5 81.999 -465.5zM1223 839c27.333 186 6.16797 329.833 -63.499 431.5s-184.834 152.5 -345.501 152.5c-152 0 -280 -53.167 -384 -159.5
s-169.333 -247.833 -196 -424.5l-33 -220c-28.667 -187.333 -8 -331.833 62 -433.5s185 -152.5 345 -152.5c152.667 0 281 53.167 385 159.5s169.667 248.5 197 426.5z" />
    <glyph glyph-name="R" unicode="R" horiz-adv-x="1364" 
d="M271 683l-102.001 -684h-54l218 1456h474c148 0 259.5 -33.5 334.5 -100.5s103.5 -163.5 85.5 -289.5c-13.333 -85.333 -51 -161 -113 -227s-140.667 -108.333 -236 -127c98.667 -18.667 167.334 -57.667 206.001 -117s51.667 -133.666 39 -222.999l-21 -137
c-7.33301 -46.667 -8 -87.5 -2 -122.5s20 -64.167 42 -87.5l-4 -25h-53c-20 27.333 -33.167 61.166 -39.5 101.499s-5.5 85.5 2.5 135.5l20 133c15.333 102.667 -6.5 180.667 -65.5 234s-151.833 80 -278.5 80h-453zM278.999 737l411 0.000976562
c142.667 0 255.334 31.833 338.001 95.5s131 141.167 145 232.5c16.667 113.333 -5.83301 197.666 -67.5 252.999s-163.834 83 -306.501 83h-420z" />
    <glyph glyph-name="S" unicode="S" horiz-adv-x="1224" 
d="M1055 303c14.667 98.667 -6 175.33 -62 229.997s-165 111.667 -327 171c-158 56 -271.833 114.5 -341.5 175.5s-95.167 151.5 -76.5 271.5c14.667 100.667 66 180.167 154 238.5s193.333 87.5 316 87.5c139.333 0 249 -38 329 -114s108.667 -179.333 86 -310l-3 -6h-46
c16.667 112.667 -9.33301 203.5 -78 272.5s-167.667 103.5 -297 103.5c-106 0 -197.667 -27.167 -275 -81.5s-121.333 -117.166 -132 -188.499c-14.667 -96.667 4.5 -173.167 57.5 -229.5s160.833 -112.833 323.5 -169.5c154 -53.333 267.833 -113.166 341.5 -179.499
s102.167 -156.166 85.5 -269.499c-16 -103.333 -71.167 -183.5 -165.5 -240.5s-208.833 -85.5 -343.5 -85.5s-248.667 34.5 -342 103.5s-127.666 175.833 -102.999 320.5l2 6h46c-20.667 -136.667 10.666 -233.5 93.999 -290.5s187 -85.5 311 -85.5c112 0 211.5 27 298.5 81
s136.167 117 147.5 189z" />
    <glyph glyph-name="T" unicode="T" horiz-adv-x="1224" 
d="M1297 1402h-510l-210 -1402h-54l210 1402h-546l8 54h1110z" />
    <glyph glyph-name="U" unicode="U" horiz-adv-x="1365" 
d="M1318 1456l-144.998 -967.002c-24.667 -166 -89.334 -292.5 -194.001 -379.5s-231 -130.5 -379 -130.5c-141.333 0 -253 45.5 -335 136.5s-111 215.5 -87 373.5l145 967h54l-145 -967c-22 -143.333 2.5 -255.166 73.5 -335.499s171.833 -120.5 302.5 -120.5
c123.333 0 234.166 41.833 332.499 125.5s157.833 193.834 178.5 330.501l145 967h54z" />
    <glyph glyph-name="V" unicode="V" horiz-adv-x="1223" 
d="M524 142l14 -78l6 -1l38 79l686 1314h59l-762 -1456h-66l-326 1456h59z" />
    <glyph glyph-name="W" unicode="W" horiz-adv-x="1855" 
d="M394 340l28 -235l6 -1l98 236l511 1116h60l175 -1116l27 -235l6 -1l100 236l467 1116h59l-610 -1456h-61l-179 1214l-26 144l-6 1l-68 -145l-546 -1214h-61l-175 1456h60z" />
    <glyph glyph-name="X" unicode="X" horiz-adv-x="1223" 
d="M648 785l571 671h60l2 -5l-605 -708l413 -743h-67l-387 701l-596 -701h-59l-2 5l630 738l-397 713h68z" />
    <glyph glyph-name="Y" unicode="Y" horiz-adv-x="1223" 
d="M600 647l19 -50l34 50l604 809h66l-682 -902l-83 -554h-55l83 553l-412 903h66z" />
    <glyph glyph-name="Z" unicode="Z" horiz-adv-x="1101" 
d="M84 54h897l-8 -54h-966l2 44l1004 1359h-818l8 53h894l-5 -38z" />
    <glyph glyph-name="bracketleft" unicode="[" horiz-adv-x="439" 
d="M614 1610h-229l-261 -1868h229l-8 -54h-283l277 1976h283z" />
    <glyph glyph-name="backslash" unicode="\" horiz-adv-x="774" 
d="M195 1456h58l371 -1581h-58z" />
    <glyph glyph-name="bracketright" unicode="]" horiz-adv-x="439" 
d="M150 1664h283l-277 -1976h-283l8 54h228l261 1868h-228z" />
    <glyph glyph-name="asciicircum" unicode="^" horiz-adv-x="849" 
d="M179 729h-59l408 727h52l190 -727h-61l-140 543l-23 113l-6 1l-60 -114z" />
    <glyph glyph-name="underscore" unicode="_" horiz-adv-x="845" 
d="M757 -54h-846l8 54h846z" />
    <glyph glyph-name="grave" unicode="`" horiz-adv-x="537" 
d="M519 1252h-82l-201 266h96z" />
    <glyph glyph-name="a" unicode="a" horiz-adv-x="1081" 
d="M800 199c-46.667 -65.333 -109.999 -118.335 -189.999 -159.002s-172.667 -61 -278 -61c-96.667 0 -170.5 27.833 -221.5 83.5s-69.5 129.5 -55.5 221.5c13.333 94 67.166 170.833 161.499 230.5s206.5 89.5 336.5 89.5h308l24 158c14 93.333 -3.83301 164.333 -53.5 213
s-127.5 73 -233.5 73c-94 0 -175.333 -23.833 -244 -71.5s-108.667 -108.5 -120 -182.5l-45 2l-1 5c9.33301 86.667 52.5 158.5 129.5 215.5s173.167 85.5 288.5 85.5c112 0 199.5 -29.667 262.5 -89s86.5 -143.666 70.5 -252.999l-81 -542
c-6 -39.333 -9.66699 -76.666 -11 -111.999s0.666992 -70.666 6 -105.999h-60c-1.33301 56 -1.83301 93.667 -1.5 113s2.5 42.666 6.5 69.999zM340.001 31.998c103.333 0 196.5 23.832 279.5 71.499s148.5 114.834 196.5 201.501l37 244h-306c-108 0 -205.5 -26 -292.5 -78
s-135.833 -115.667 -146.5 -191c-11.333 -75.333 4 -135.5 46 -180.5s104 -67.5 186 -67.5z" />
    <glyph glyph-name="b" unicode="b" 
d="M997 521c-26 -172.667 -81.668 -306.167 -167.001 -400.5s-192 -141.5 -320 -141.5c-81.333 0 -151.333 17.333 -210 52s-102 81 -130 139l-33 -170h-45l44 297v7l66 441l2 7l122 808h54l-100 -667c46 64.667 102.5 115.667 169.5 153s142.5 56 226.5 56
c122 0 212.833 -51 272.5 -153s76.834 -237.667 51.501 -407zM943.999 542c22.667 155.333 11.332 278.5 -34.001 369.5s-125.666 136.5 -240.999 136.5c-98 0 -180.5 -26 -247.5 -78s-119.833 -115.333 -158.5 -190l-77 -518c17.333 -70 53.833 -125.667 109.5 -167
s130.167 -62 223.5 -62c109.333 0 201.5 44.5 276.5 133.5s123.5 207.167 145.5 354.5z" />
    <glyph glyph-name="c" unicode="c" horiz-adv-x="1039" 
d="M464 33c88.667 0 172.329 25.002 250.996 75.002s125.667 125 141 225h45l2 -6c-14 -110.667 -65.167 -196.334 -153.5 -257.001s-186.166 -91 -293.499 -91c-132.667 0 -232.167 50.167 -298.5 150.5s-87.166 230.5 -62.499 390.5l6 42
c24.667 167.333 83 299.166 175 395.499s207.333 144.5 346 144.5c108.667 0 197.834 -33.167 267.501 -99.5s94.167 -158.833 73.5 -277.5l-2 -5h-47c16 110 -5.5 192.167 -64.5 246.5s-137.5 81.5 -235.5 81.5c-122 0 -223.667 -46 -305 -138s-132.666 -208 -153.999 -348
l-6 -42c-22.667 -149.333 -8.16699 -267.833 43.5 -355.5s142.167 -131.5 271.5 -131.5z" />
    <glyph glyph-name="d" unicode="d" 
d="M123 542c26.667 178 83 315.833 169 413.5s193.667 146.5 323 146.5c80.667 0 149.5 -19.333 206.5 -58s99.5 -91 127.5 -157l101 673h54l-122 -810c0 -1.33301 0.166992 -2.5 0.5 -3.5l0.5 -1.5l-66 -441l-3 -7l-44 -297h-52l24 167
c-45.333 -57.333 -101.833 -103 -169.5 -137s-143.5 -51 -227.5 -51c-122 0 -212.833 49.167 -272.5 147.5s-77.167 229.833 -52.5 394.5zM176 521c-23.333 -154.667 -12.167 -274.667 33.5 -360s126.5 -128 242.5 -128c90.667 0 171.167 21.667 241.5 65
s124.833 100.333 163.5 171l76 507c-14.667 76.667 -47 141.167 -97 193.5s-126.667 78.5 -230 78.5c-110 0 -203.167 -47.333 -279.5 -142s-125.5 -216 -147.5 -364z" />
    <glyph glyph-name="e" unicode="e" horiz-adv-x="1039" 
d="M468 -21c-122 0 -220.834 49.833 -296.501 149.5s-102.167 223.5 -79.5 371.5l10 64c24 162.667 86.5 293 187.5 391s218.167 147 351.5 147c116 0 204.667 -40 266 -120s82 -187.333 62 -322l-12 -83h-799c0 -2 -0.333008 -4.5 -1 -7.5s-1 -4.83301 -1 -5.5l-10 -64
c-20.667 -136.667 -0.5 -248.667 60.5 -336s150.833 -131 269.5 -131c62 0 125.5 12 190.5 36s118.833 56 161.5 96l22 -42c-43.333 -42 -97.166 -76.5 -161.499 -103.5s-137.833 -40.5 -220.5 -40.5zM632.999 1048c-107.333 0 -203.501 -39.332 -288.501 -117.999
s-141.5 -176.334 -169.5 -293.001l2 -6h734l5 33c16.667 116 0.333984 209 -48.999 279s-127.333 105 -234 105z" />
    <glyph glyph-name="f" unicode="f" horiz-adv-x="645" 
d="M174 0l153.999 1027h-188l8 55h188l27 178c16 106 52.667 186 110 240s131 81 221 81c21.333 0 43 -1.33301 65 -4s42.333 -7 61 -13l-16 -52c-20.667 5.33301 -39 9.16602 -55 11.499s-36.667 3.5 -62 3.5c-69.333 0 -128.666 -23.833 -177.999 -71.5
s-80 -112.834 -92 -195.501l-27 -178h286l-8 -55h-286l-154 -1027h-54z" />
    <glyph glyph-name="g" unicode="g" 
d="M123 542c26.667 178 82.998 315.834 168.998 413.501s193.667 146.5 323 146.5c80.667 0 149.5 -19.333 206.5 -58s99.5 -91.334 127.5 -158.001l37 196h46l-50 -332c0 -0.666992 0.166992 -1.5 0.5 -2.5s0.5 -1.83301 0.5 -2.5l-66 -441l-3 -8l-45 -302
c-22 -142.667 -74 -250.167 -156 -322.5s-188 -108.5 -318 -108.5c-50.667 0 -104.167 5.5 -160.5 16.5s-104.166 26.167 -143.499 45.5l24 54c46 -21.333 90.667 -37.166 134 -47.499s94 -15.5 152 -15.5c112 0 204.333 33 277 99s118 159 136 279l25 171
c-45.333 -56.667 -101.666 -101.834 -168.999 -135.501s-142.333 -50.5 -225 -50.5c-122 0 -212.833 49.167 -272.5 147.5s-77.167 229.833 -52.5 394.5zM174.998 521.001c-23.333 -154.667 -12 -274.667 34 -360s127 -128 243 -128c89.333 0 169 21.167 239 63.5
s124.333 98.5 163 168.5l78 514c-14.667 76 -47 139.833 -97 191.5s-126.333 77.5 -229 77.5c-110 0 -203.333 -47.333 -280 -142s-126 -216 -148 -364z" />
    <glyph glyph-name="h" unicode="h" 
d="M275 863c45.333 77.333 103.166 136.499 173.499 177.499s152.5 61.5 246.5 61.5c108.667 0 187.834 -36.167 237.501 -108.5s63.167 -184.166 40.5 -335.499l-99 -658h-55l99 660c22 148 11.5 249.667 -31.5 305s-109.167 83 -198.5 83
c-110.667 0 -203.167 -34.667 -277.5 -104s-128.5 -157 -162.5 -263l-102 -681h-54l83 554h-2c1.33301 10.667 3 21.5 5 32.5s4.33301 21.833 7 32.5l141 941h54z" />
    <glyph glyph-name="i" unicode="i" horiz-adv-x="422" 
d="M159 0h-54l162 1082h54zM372 1422h-54l21 138h54z" />
    <glyph glyph-name="j" unicode="j" horiz-adv-x="445" 
d="M322 1082l-175.001 -1171c-18 -115.333 -56 -202.166 -114 -260.499s-132.667 -87.5 -224 -87.5c-18.667 0 -36.667 1.66699 -54 5s-35.666 8.33301 -54.999 15l21 52c12 -4 27 -8 45 -12s35.333 -6 52 -6c71.333 0 131.5 26 180.5 78s80.5 124 94.5 216l175 1171h54z
M367.999 1426h-54l20 134h54z" />
    <glyph glyph-name="k" unicode="k" horiz-adv-x="969" 
d="M377 553h-148l-83 -553h-54l234 1560h54l-143 -953h127l563 475h62l2 -6l-569 -487l451 -589h-70z" />
    <glyph glyph-name="l" unicode="l" horiz-adv-x="422" 
d="M159 0h-54l234 1560h54z" />
    <glyph glyph-name="m" unicode="m" horiz-adv-x="1836" 
d="M268 871c44 74.667 99.166 131.837 165.499 171.504s143.5 59.5 231.5 59.5s158 -23.167 210 -69.5s82.667 -117.5 92 -213.5c42.667 91.333 99.834 161.5 171.501 210.5s156.5 73.5 254.5 73.5c115.333 0 199 -39.5 251 -118.5s66 -201.167 42 -366.5l-93 -617h-55
l93 619c24 163.333 13.167 275.666 -32.5 336.999s-116.167 92 -211.5 92c-107.333 0 -195.833 -33.667 -265.5 -101s-121.167 -153.333 -154.5 -258l-4 -37c-1.33301 -12.667 -3 -25.334 -5 -38.001l-92 -615h-55l83 554h-3c2 14 4.16699 27.667 6.5 41
s5.16602 26.666 8.49902 39.999c20.667 158 8.33398 266.333 -36.999 325s-115.333 88 -210 88c-106.667 0 -194.334 -32.833 -263.001 -98.5s-119.667 -149.834 -153 -252.501l-105 -697h-55l83 554h-2c1.33301 10 2.83301 20.167 4.5 30.5s3.83398 21.833 6.50098 34.5
l70 463h47z" />
    <glyph glyph-name="n" unicode="n" 
d="M276 871c44 74.667 100.169 131.833 168.502 171.5s148.5 59.5 240.5 59.5c113.333 0 195 -37.667 245 -113s63.333 -192.666 40 -351.999l-96 -637h-54l96 639c23.333 156 13.166 263.167 -30.501 321.5s-112.834 87.5 -207.501 87.5
c-109.333 0 -199.666 -34 -270.999 -102s-124 -154.333 -158 -259l-103 -687h-54l83 554h-3c2 13.333 4.16699 26.666 6.5 39.999s5.16602 26.333 8.49902 39l67 449h46z" />
    <glyph glyph-name="o" unicode="o" 
d="M91 562c24.667 164.667 87.667 295.834 189 393.501s223 146.5 365 146.5c135.333 0 240.5 -50.833 315.5 -152.5s100.833 -230.834 77.5 -387.501l-6 -42c-25.333 -165.333 -88.5 -296.833 -189.5 -394.5s-222.167 -146.5 -363.5 -146.5
c-135.333 0 -240.833 50.833 -316.5 152.5s-101.5 231.167 -77.5 388.5zM139 520c-21.333 -140.667 -1.16895 -256.998 60.498 -348.998s157.5 -138 287.5 -138c121.333 0 228.333 47.667 321 143s149.334 210 170.001 344l6 42c20.667 137.333 0 252.666 -62 345.999
s-157 140 -285 140c-122 0 -229.667 -48.333 -323 -145s-149.666 -210.334 -168.999 -341.001z" />
    <glyph glyph-name="p" unicode="p" 
d="M997 521c-26 -172.667 -81.668 -306.166 -167.001 -400.499s-192 -141.5 -320 -141.5c-81.333 0 -151 17.167 -209 51.5s-101.333 80.166 -130 137.499l-87 -584h-54l106 713v8l66 440l2 6l50 331h42l-18 -192c46 66 102.667 117.833 170 155.5s143.333 56.5 228 56.5
c122 0 212.833 -51 272.5 -153s76.834 -237.667 51.501 -407zM944.999 542.001c22.667 155.333 11.167 278.501 -34.5 369.501s-126.167 136.5 -241.5 136.5c-98.667 0 -181.5 -26 -248.5 -78s-119.5 -115.667 -157.5 -191l-77 -515
c16.667 -70.667 52.834 -126.834 108.501 -168.501s130.5 -62.5 224.5 -62.5c109.333 0 201.666 44.5 276.999 133.5s124 207.167 146 354.5z" />
    <glyph glyph-name="q" unicode="q" 
d="M123 542c26.667 178 83 315.833 169 413.5s193.667 146.5 323 146.5c80.667 0 149.5 -19.167 206.5 -57.5s99.5 -90.5 127.5 -156.5l34 194h49l-50 -331c0 -0.666992 0.166992 -1.66699 0.5 -3s0.5 -2.33301 0.5 -3l-66 -441l-3 -7l-106 -713h-54l87 582
c-45.333 -57.333 -101.833 -102.833 -169.5 -136.5s-143.167 -50.5 -226.5 -50.5c-122 0 -212.833 49.167 -272.5 147.5s-77.167 229.833 -52.5 394.5zM176 521c-23.333 -154.667 -12.167 -274.667 33.5 -360s126.5 -128 242.5 -128c90 0 170 21.5 240 64.5
s124.667 99.833 164 170.5l76 510c-14.667 76 -47 140 -97 192s-126.333 78 -229 78c-110 0 -203.167 -47.333 -279.5 -142s-125.5 -216 -147.5 -364z" />
    <glyph glyph-name="r" unicode="r" horiz-adv-x="685" 
d="M725 1043l-69.002 6c-93.333 0 -175.666 -32.167 -246.999 -96.5s-124 -147.833 -158 -250.5l-105 -702h-54l162 1082h44l-18 -188l-4 -24l5 -3c38.667 74.667 90.334 132.5 155.001 173.5s140.667 61.5 228 61.5c14.667 0 28.667 -1.16699 42 -3.5
s24.333 -4.83301 33 -7.5z" />
    <glyph glyph-name="s" unicode="s" horiz-adv-x="1019" 
d="M797 265c8 58.667 -8.99707 111.001 -50.9971 157.001s-122.667 82.667 -242 110c-124.667 27.333 -212.834 62.5 -264.501 105.5s-71.5 106.833 -59.5 191.5c10.667 80.667 52.167 146.334 124.5 197.001s164.166 76 275.499 76c114.667 0 203.5 -28.333 266.5 -85
s86.833 -129.334 71.5 -218.001l-2 -6h-47c10 73.333 -11 134.166 -63 182.499s-129.667 72.5 -233 72.5c-97.333 0 -176.333 -22.167 -237 -66.5s-94.667 -94.5 -102 -150.5c-8 -58.667 7.16699 -107.5 45.5 -146.5s120.833 -73.5 247.5 -103.5
c117.333 -28 203.666 -66.333 258.999 -115s77 -116 65 -202c-12.667 -88 -56.834 -157.5 -132.501 -208.5s-171.5 -76.5 -287.5 -76.5c-121.333 0 -215 28.5 -281 85.5s-91 125.167 -75 204.5l2 6h45c-6.66699 -85.333 21.333 -147 84 -185s140.334 -57 233.001 -57
c96 0 177.5 23.5 244.5 70.5s104.833 100.833 113.5 161.5z" />
    <glyph glyph-name="t" unicode="t" horiz-adv-x="633" 
d="M410 1374l-43.998 -291.999h266l-8 -55h-266l-112 -748c-14 -92 -8.83301 -156 15.5 -192s61.5 -54 111.5 -54c17.333 0 33.666 0.666992 48.999 2s34.666 3.66602 57.999 6.99902l3 -49c-18 -5.33301 -36 -9 -54 -11s-38.333 -3 -61 -3c-70 0 -121 24 -153 72
s-40 124 -24 228l112 748h-200l8 55h200l44 292h55z" />
    <glyph glyph-name="u" unicode="u" 
d="M825 0l19.999 185c-44 -66.667 -99.833 -117.667 -167.5 -153s-146.5 -53 -236.5 -53c-107.333 0 -187.666 40 -240.999 120s-67.333 202 -42 366l92 617h54l-93 -619c-23.333 -152.667 -13.333 -262.5 30 -329.5s112 -100.5 206 -100.5c107.333 0 196 27.833 266 83.5
s120.667 128.5 152 218.5l112 747h55l-96 -637h3c2 10.667 1 4.66699 -3 -18s-7 -38 -9 -46l-57 -381h-45z" />
    <glyph glyph-name="v" unicode="v" horiz-adv-x="978" 
d="M389 229l29 -146l6 -1l74 147l461 853h58l-583 -1081l1 -1h-52l-258 1082h58z" />
    <glyph glyph-name="w" unicode="w" horiz-adv-x="1550" 
d="M333 313l23 -222l6 -1l104 223l358 769h55l127 -769l36 -222l6 -1l92 223l335 769h63l-477 -1082h-54l-149 813l-20 167l-6 1l-72 -168l-389 -813h-54l-152 1082h62z" />
    <glyph glyph-name="x" unicode="x" horiz-adv-x="978" 
d="M499 602l417 480h61l2 -5l-454 -522l317 -555h-67l-291 508l-442 -508h-60l-2 5l478 550l-301 527h68z" />
    <glyph glyph-name="y" unicode="y" horiz-adv-x="978" 
d="M407 196l23.998 -108h6l9 16l520 978h60l-670 -1262c-41.333 -76 -85 -137.833 -131 -185.5s-111.667 -71.5 -197 -71.5c-12 0 -25.5 1.16699 -40.5 3.5s-26.167 4.83301 -33.5 7.5l17 51c7.33301 -2 18 -4 32 -6s25 -3 33 -3c58.667 0 108.834 18.5 150.501 55.5
s80.834 89.833 117.501 158.5l91 176l-270 1076h59z" />
    <glyph glyph-name="z" unicode="z" horiz-adv-x="978" 
d="M93 59l2 -5h763l-8 -54h-843l7 44l853 978l-2 5h-673l8 55h753l-7 -48z" />
    <glyph glyph-name="braceleft" unicode="{" horiz-adv-x="660" 
d="M505 -441c-110.667 36.667 -184.832 94.332 -222.499 172.999s-48.167 174.667 -31.5 288l34 245c12.667 90.667 2.16699 159.667 -31.5 207s-93.5 71 -179.5 71l3 23l3 20l3 23c82 0 147.5 24.333 196.5 73s79.833 116.334 92.5 203.001l34 247
c16 118 53.5 215.5 112.5 292.5s148.167 132.833 267.5 167.5l6 -2l7 -38c-100 -30.667 -178 -82.5 -234 -155.5s-91 -161.167 -105 -264.5l-34 -247c-12 -83.333 -38.833 -152 -80.5 -206s-99.834 -88.667 -174.501 -104c66.667 -18 114 -54.833 142 -110.5
s36.667 -122.167 26 -199.5l-34 -245c-15.333 -106 -4.5 -193.333 32.5 -262s101.833 -119.667 194.5 -153z" />
    <glyph glyph-name="bar" unicode="|" horiz-adv-x="406" 
d="M115 -270h-54l258 1726h54z" />
    <glyph glyph-name="braceright" unicode="}" horiz-adv-x="660" 
d="M-130 -395c100 32.667 178.331 84.334 234.998 155.001s92.334 157.334 107.001 260.001l34 245c11.333 82.667 37.833 151.167 79.5 205.5s100.167 89.833 175.5 106.5c-67.333 17.333 -115 53.5 -143 108.5s-36.333 121.5 -25 199.5l34 247
c15.333 107.333 5.33301 196.333 -30 267s-98.666 121.667 -189.999 153l21 45c110 -36.667 183.667 -94.834 221 -174.501s48 -176.5 32 -290.5l-34 -247c-13.333 -90.667 -3 -159.334 31 -206.001s94 -70 180 -70l-3 -23l-3 -20l-3 -23c-82 0 -147.667 -24.833 -197 -74.5
s-80 -117.5 -92 -203.5l-34 -245c-16.667 -118 -54.5 -215.167 -113.5 -291.5s-149.167 -132.833 -270.5 -169.5z" />
    <glyph glyph-name="asciitilde" unicode="~" horiz-adv-x="1412" 
d="M1280 740c-12 -84 -47.002 -154.499 -105.002 -211.499s-125 -85.5 -201 -85.5c-56 0 -106.833 13 -152.5 39s-94.5 66 -146.5 120c-39.333 39.333 -77.5 68.833 -114.5 88.5s-75.833 29.5 -116.5 29.5c-56.667 0 -108 -22.833 -154 -68.5s-74.333 -108.834 -85 -189.501
l-58 12c12 88 46.167 160 102.5 216s123.5 84 201.5 84c54.667 0 105.334 -13.5 152.001 -40.5s96.334 -66.833 149.001 -119.5c39.333 -41.333 76.833 -71.333 112.5 -90s74.5 -28 116.5 -28c54.667 0 105.5 23.833 152.5 71.5s75.833 109.5 86.5 185.5z" />
    <glyph glyph-name="nonbreakingspace" unicode="&#xa0;" horiz-adv-x="490" 
 />
    <glyph glyph-name="exclamdown" unicode="&#xa1;" horiz-adv-x="406" 
d="M85 -374h-54l147 978h54zM300 918h-95l24 164h95z" />
    <glyph glyph-name="cent" unicode="&#xa2;" horiz-adv-x="1110" 
d="M501 33c88.667 0 172.332 25.002 250.999 75.002s125.667 125 141 225h45l2 -6c-13.333 -105.333 -60.833 -188 -142.5 -248s-174.167 -93 -277.5 -99l-33 -225h-55l33 225c-124.667 8 -217.334 61.5 -278.001 160.5s-79 225.5 -55 379.5l6 42
c24 162 79.5 290.833 166.5 386.5s196.833 146.5 329.5 152.5l33 217h55l-33 -217c101.333 -6.66699 183.333 -42.834 246 -108.501s84.334 -154.834 65.001 -267.501l-2 -5h-47c16 110 -5.5 192.167 -64.5 246.5s-137.5 81.5 -235.5 81.5c-122 0 -223.667 -46 -305 -138
s-132.666 -208 -153.999 -348l-6 -42c-22.667 -149.333 -8.16699 -267.833 43.5 -355.5s142.167 -131.5 271.5 -131.5z" />
    <glyph glyph-name="sterling" unicode="&#xa3;" horiz-adv-x="1150" 
d="M383 667l-22.999 -201c-13.333 -86 -37.333 -165.167 -72 -237.5s-77.334 -130.5 -128.001 -174.5h808l-7 -54h-912l8 54h10c60.667 10.667 112.167 59.167 154.5 145.5s70.5 175.166 84.5 266.499l23 201h-244l8 54h242l36 319c21.333 141.333 71 249.5 149 324.5
s174 112.5 288 112.5c112 0 191.167 -34.667 237.5 -104s60.833 -163.666 43.5 -282.999h-54c18 122 6.5 208 -34.5 258s-108.167 75 -201.5 75c-94 0 -175.333 -33.667 -244 -101s-112 -161.333 -130 -282l-36 -319h477l-8 -54h-475z" />
    <glyph glyph-name="currency" unicode="&#xa4;" horiz-adv-x="1502" 
d="M1106 152c-62.667 -55.333 -132.165 -97.833 -208.498 -127.5s-154.833 -44.5 -235.5 -44.5c-76.667 0 -148.334 15.5 -215.001 46.5s-123.334 74.5 -170.001 130.5l-207 -183l-34 39l210 185c-38.667 55.333 -65.667 118 -81 188s-17 144 -5 222
c12.667 84 37.5 162.333 74.5 235s83.833 136.667 140.5 192l-157 190l46 39l156 -188c60.667 50 128 88.833 202 116.5s150 41.5 228 41.5c73.333 0 142.5 -14.667 207.5 -44s120.833 -70.333 167.5 -123l224 198l35 -40l-226 -200c40 -56.667 68.167 -120.5 84.5 -191.5
s18.833 -146.167 7.5 -225.5c-12.667 -80.667 -36.167 -156.167 -70.5 -226.5s-77.5 -132.5 -129.5 -186.5l152 -182l-47 -40zM215.002 608c-24.667 -165.333 7.33203 -302.5 95.999 -411.5s208.334 -163.5 359.001 -163.5c142 0 276 56.5 402 169.5
s200.667 248.167 224 405.5c24 164 -8.33301 300.5 -97 409.5s-207.667 163.5 -357 163.5c-142.667 0 -277 -56.5 -403 -169.5s-200.667 -247.5 -224 -403.5z" />
    <glyph glyph-name="yen" unicode="&#xa5;" horiz-adv-x="1207" 
d="M1217 1456h66l-606 -780h424l-8 -55h-452l-36 -240h452l-8 -55h-452l-49 -326h-54l49 326h-450l8 55h450l36 240h-450l8 55h421l-370 780h65l345 -718l16 -51h5l32 51z" />
    <glyph glyph-name="brokenbar" unicode="&#xa6;" horiz-adv-x="398" 
d="M52 -270l112 752h54l-112 -752h-54zM251 698h-54l113 758h54z" />
    <glyph glyph-name="section" unicode="&#xa7;" horiz-adv-x="1223" 
d="M1079 431c-11.333 -72.667 -47.5 -132.334 -108.5 -179.001s-139.5 -76 -235.5 -88c82.667 -33.333 141.667 -73.833 177 -121.5s47.333 -111.5 36 -191.5c-17.333 -112 -70.666 -197.667 -159.999 -257s-203.333 -89 -342 -89c-132 0 -240.333 34.5 -325 103.5
s-115 176.5 -91 322.5l2 5l48 2c-21.333 -138.667 5.33398 -236.5 80.001 -293.5s172.667 -85.5 294 -85.5c118.667 0 218.167 27.167 298.5 81.5s126.833 123.833 139.5 208.5c12.667 82.667 -4 146 -50 190s-142.667 86.333 -290 127c-157.333 38.667 -272 86 -344 142
s-100 137 -84 243c11.333 74.667 45.5 135.334 102.5 182.001s131.5 76.667 223.5 90c-76 32 -130.333 72 -163 120s-43 110.333 -31 187c16 108.667 69.167 193.667 159.5 255s205.166 92 344.499 92c137.333 0 241.333 -37.667 312 -113s94.667 -179.666 72 -312.999
l-2 -5h-47c16.667 112 -5 202.833 -65 272.5s-153 104.5 -279 104.5s-228 -27.5 -306 -82.5s-123 -124.167 -135 -207.5c-13.333 -86.667 2.83398 -151.834 48.501 -195.501s145.167 -88.167 298.5 -133.5c161.333 -42.667 275.666 -89.5 342.999 -140.5
s93.666 -128.5 78.999 -232.5zM625 766c-19.333 4 -37.668 8.49707 -55.001 13.4971s-33.666 10.5 -48.999 16.5c-98 -5.33301 -177.333 -30.5 -238 -75.5s-95.667 -100.833 -105 -167.5c-13.333 -90 5.5 -155.833 56.5 -197.5s164.833 -88.5 341.5 -140.5l66 -19
c103.333 0.666992 190.333 23.334 261 68.001s111 99.334 121 164.001c12.667 85.333 -8.83301 150.833 -64.5 196.5s-167.167 92.834 -334.5 141.501z" />
    <glyph glyph-name="dieresis" unicode="&#xa8;" horiz-adv-x="906" 
d="M873 1338h-136l17 118h136zM404 1338h-137l17 118h137z" />
    <glyph glyph-name="copyright" unicode="&#xa9;" horiz-adv-x="1666" 
d="M1125 596l1.99805 -6.00098c-13.333 -104 -49.666 -181.333 -108.999 -232s-136 -76 -230 -76c-92 0 -163 36 -213 108s-66.333 165 -49 279l18 119c17.333 118.667 60.5 212.834 129.5 282.501s151.833 104.5 248.5 104.5c89.333 0 157.333 -26.833 204 -80.5
s61.334 -129.5 44.001 -227.5l-3 -5h-45c13.333 89.333 2.16602 155 -33.501 197s-93.834 63 -174.501 63c-79.333 0 -148.166 -32 -206.499 -96s-94.5 -143 -108.5 -237l-18 -120c-15.333 -100 -4 -180.333 34 -241s98.667 -91 182 -91c77.333 0 140.833 21.333 190.5 64
s80.834 107.667 93.501 195h44zM207.998 728.999c-30.667 -200.667 7.66699 -366.667 115 -498s252.333 -197 435 -197c172.667 0 335 68 487 204s242.333 299.667 271 491c30 200 -8.66699 365.333 -116 496s-252 196 -434 196c-174 0 -336.667 -67.667 -488 -203
s-241.333 -298.333 -270 -489zM151.999 728.999c32.667 218 128 396.999 286 536.999s336.667 210 536 210c189.333 0 344.166 -72.667 464.499 -218s164.833 -321.666 133.5 -528.999c-32.667 -218.667 -128 -398.334 -286 -539.001s-336.667 -211 -536 -211
c-189.333 0 -344.166 72.833 -464.499 218.5s-164.833 322.834 -133.5 531.501z" />
    <glyph glyph-name="ordfeminine" unicode="&#xaa;" horiz-adv-x="898" 
d="M706 706c-4 18 -6.33203 37.001 -6.99902 57.001s0.333008 41 3 63c-32 -38.667 -72.167 -70.667 -120.5 -96s-101.833 -38 -160.5 -38c-76 0 -133.5 20.667 -172.5 62s-53.167 96.666 -42.5 165.999c10 70 42.167 123 96.5 159s129.166 54 224.499 54h219l11 69
c10.667 72 2 126.833 -26 164.5s-74.667 56.5 -140 56.5c-73.333 0 -133.5 -15.833 -180.5 -47.5s-74.833 -77.5 -83.5 -137.5l-45 5l-1 6c6.66699 68 39.5 123 98.5 165s132.5 63 220.5 63c74 0 131.167 -24 171.5 -72s53.833 -116 40.5 -204l-47 -314
c-5.33301 -33.333 -8 -64.333 -8 -93s2.33301 -58 7 -88h-58zM430.001 747.001c56 0 112.001 16 168.001 48s93.667 67 113 105l27 177h-218c-72 0 -131.667 -14.833 -179 -44.5s-74 -65.834 -80 -108.501c-9.33301 -57.333 -0.333008 -101.166 27 -131.499
s74.666 -45.5 141.999 -45.5z" />
    <glyph glyph-name="guillemotleft" unicode="&#xab;" horiz-adv-x="905" 
d="M215 526l237 -380h-70l-239 370l1 6l1 7l1 6l350 370h63l2 -5zM502 526l237 -380h-70l-239 370l1 6l1 7l1 6l350 370h63l2 -5z" />
    <glyph glyph-name="logicalnot" unicode="&#xac;" horiz-adv-x="1101" 
d="M941 706l-1 -6l-46 -304h-54l46 304h-739l8 53h793z" />
    <glyph glyph-name="uni00AD" unicode="&#xad;" horiz-adv-x="807" 
d="M699 599h-590l8 54h590z" />
    <glyph glyph-name="registered" unicode="&#xae;" horiz-adv-x="1674" 
d="M144 729c32.667 218 127.833 396.999 285.5 536.999s336.5 210 536.5 210c189.333 0 344.166 -72.667 464.499 -218s164.833 -321.666 133.5 -528.999c-32.667 -218.667 -128 -398.334 -286 -539.001s-336.667 -211 -536 -211c-189.333 0 -344.166 72.833 -464.499 218.5
s-164.833 322.834 -133.5 531.501zM198.999 728.999c-30.667 -200.667 7.83301 -366.667 115.5 -498s252.834 -197 435.501 -197c172.667 0 335 68 487 204s242.333 299.667 271 491c30 200 -8.66699 365.333 -116 496s-252 196 -434 196
c-174 0 -336.833 -67.667 -488.5 -203s-241.834 -298.333 -270.501 -489zM670.999 687.999l-56 -371.998h-55l128 850h239c92 0 160 -20.5 204 -61.5s60.333 -100.5 49 -178.5c-8 -51.333 -27.667 -93.833 -59 -127.5s-73.666 -60.167 -126.999 -79.5
c43.333 -15.333 73.166 -40.833 89.499 -76.5s20.833 -78.167 13.5 -127.5l-8 -56c-4.66699 -26.667 -7.16699 -50.834 -7.5 -72.501s1.5 -39.834 5.5 -54.501l-3 -16h-59c-4 14 -4.83301 33.667 -2.5 59s5.83301 53.666 10.5 84.999l8 54
c9.33301 64.667 2.33301 109.834 -21 135.501s-69 38.5 -137 38.5h-212zM678.999 744.001l205.999 0.000976562c58 0 110.333 16.167 157 48.5s74.334 77.166 83.001 134.499c10 66 -0.166992 113.167 -30.5 141.5s-88.833 42.5 -175.5 42.5h-184z" />
    <glyph glyph-name="macron" unicode="&#xaf;" horiz-adv-x="811" 
d="M840 1403h-627l8 53h627z" />
    <glyph glyph-name="macron" unicode="&#x2c9;" horiz-adv-x="811" 
d="M840 1403h-627l8 53h627z" />
    <glyph glyph-name="degree" unicode="&#xb0;" horiz-adv-x="783" 
d="M262 1237c9.33301 68 40.5 125 93.5 171s112.5 69 178.5 69c60.667 0 110.834 -23.833 150.501 -71.5s54.834 -103.834 45.501 -168.501c-10.667 -69.333 -41.834 -126.166 -93.501 -170.499s-109.834 -66.5 -174.501 -66.5c-62.667 0 -114.167 23 -154.5 69
s-55.5 102 -45.5 168zM317 1237c-8.66699 -54.667 1.5 -98.5 30.5 -131.5s69.833 -49.5 122.5 -49.5c48.667 0 92.834 17.167 132.501 51.5s63.5 77.5 71.5 129.5c7.33301 55.333 -2.83398 100 -30.501 134s-67.167 51 -118.5 51c-50 0 -95.333 -17.667 -136 -53
s-64.667 -79.333 -72 -132z" />
    <glyph glyph-name="plusminus" unicode="&#xb1;" horiz-adv-x="1077" 
d="M606 805h420l-8 -54h-419l-65 -462h-54l64 462h-442l8 54h442l65 462h54zM1014 88h-835l8 54h835z" />
    <glyph glyph-name="twosuperior" unicode="&#xb2;" horiz-adv-x="807" 
d="M685 667h-551.001l8 55l372 300c63.333 53.333 108 97 134 131s41.667 68 47 102c8 54 -1.5 95.667 -28.5 125s-72.833 44 -137.5 44c-66.667 0 -122 -17.167 -166 -51.5s-70 -77.833 -78 -130.5h-48l-2 6c6.66699 66.667 37.834 121.834 93.501 165.501
s125.167 65.5 208.5 65.5c74 0 130.833 -19.333 170.5 -58s54.167 -94.334 43.5 -167.001c-7.33301 -48.667 -30 -94.167 -68 -136.5s-93.333 -93.833 -166 -154.5l-301 -235l2 -6h475z" />
    <glyph glyph-name="threesuperior" unicode="&#xb3;" horiz-adv-x="831" 
d="M778 1257c-6.66699 -42.667 -24.332 -79.833 -52.999 -111.5s-66 -55.167 -112 -70.5c46.667 -14.667 80.5 -38.167 101.5 -70.5s27.833 -72.833 20.5 -121.5c-10.667 -74 -44.5 -130.5 -101.5 -169.5s-127.167 -58.5 -210.5 -58.5c-74 0 -136.333 19.667 -187 59
s-69 95.333 -55 168l2 6h49c-8 -54 6.16699 -97.167 42.5 -129.5s88.833 -48.5 157.5 -48.5c67.333 0 123.166 15.333 167.499 46s70.833 72.334 79.5 125.001c8.66699 59.333 -3.16602 101.833 -35.499 127.5s-85.833 38.5 -160.5 38.5h-114l1 9l7 47h114
c68.667 0 122.667 13.833 162 41.5s62.666 66.167 69.999 115.5c7.33301 50.667 -4.16699 90.5 -34.5 119.5s-80.5 43.5 -150.5 43.5c-58.667 0 -111.334 -15.333 -158.001 -46s-73.334 -70.334 -80.001 -119.001h-45l-2 6c6 65.333 37.333 117.333 94 156
s123.334 58 200.001 58c78.667 0 139.334 -19.333 182.001 -58s59 -93 49 -163z" />
    <glyph glyph-name="acute" unicode="&#xb4;" horiz-adv-x="511" 
d="M477 1518h77l2 -6l-268 -260h-66l-3 6z" />
    <glyph glyph-name="mu" unicode="&#xb5;" 
d="M305 1082l-95.999 -642c-23.333 -154.667 -11.5 -261.167 35.5 -319.5s116.833 -87.5 209.5 -87.5c120.667 0 214.834 33.167 282.501 99.5s115.5 158.166 143.5 275.499l101 674h54l-87 -577h3c-2.66699 -16.667 -5 -30.667 -7 -42s-4.33301 -22.333 -7 -33l-64 -430
h-41l20 200c-42.667 -72 -96.834 -126.833 -162.501 -164.5s-143.834 -56.5 -234.501 -56.5c-66 0 -124.833 15.333 -176.5 46s-88.167 80.334 -109.5 149.001l-88 -590h-52l224 1498h52z" />
    <glyph glyph-name="paragraph" unicode="&#xb6;" horiz-adv-x="946" 
d="M636 0l77.998 520h-125c-149.333 0 -262.166 43.667 -338.499 131s-104.166 199.666 -83.499 336.999c21.333 142.667 81 256.334 179 341.001s225.667 127 383 127h179l-218 -1456h-54z" />
    <glyph glyph-name="periodcentered" unicode="&#xb7;" horiz-adv-x="472" 
d="M303 624h-118l22 152h118z" />
    <glyph glyph-name="cedilla" unicode="&#xb8;" horiz-adv-x="490" 
d="M127 0l-21.999 -75.999c60 -4.66699 105.5 -19.834 136.5 -45.501s42.5 -66.834 34.5 -123.501c-9.33301 -60.667 -42.333 -107.5 -99 -140.5s-134.667 -49.5 -234 -49.5v49c67.333 0 128.666 12.167 183.999 36.5s86.666 59.166 93.999 104.499
c6.66699 44.667 -3.66602 74.834 -30.999 90.501s-80.333 26.834 -159 33.501l43 121h53z" />
    <glyph glyph-name="onesuperior" unicode="&#xb9;" horiz-adv-x="471" 
d="M319 665h-54l112 747l-168 -14l8 56l224 23z" />
    <glyph glyph-name="ordmasculine" unicode="&#xba;" horiz-adv-x="914" 
d="M239 1142c15.333 102.667 54.833 184.167 118.5 244.5s142.5 90.5 236.5 90.5c90 0 158.5 -31.5 205.5 -94.5s63.167 -143.167 48.5 -240.5l-17 -117c-16 -103.333 -55.5 -184.833 -118.5 -244.5s-141.167 -89.5 -234.5 -89.5c-90 0 -158.833 31.167 -206.5 93.5
s-64.167 142.5 -49.5 240.5zM276 1025c-13.333 -86 -2.83398 -154.167 31.499 -204.5s93.833 -75.5 178.5 -75.5c77.333 0 142.333 26.5 195 79.5s85 119.833 97 200.5l17 117c12.667 84 1.33398 151.833 -33.999 203.5s-94 77.5 -176 77.5
c-78 0 -143.333 -26.833 -196 -80.5s-84.667 -120.5 -96 -200.5z" />
    <glyph glyph-name="guillemotright" unicode="&#xbb;" horiz-adv-x="897" 
d="M424 551l-235 389h70l237 -380l-1 -6l-1 -7l-1 -6l-349 -370h-63l-2 5zM714 551l-235 389h70l237 -380l-1 -6l-1 -7l-1 -6l-349 -370h-63l-2 5z" />
    <glyph glyph-name="onequarter" unicode="&#xbc;" horiz-adv-x="1533" 
d="M381 664h-54l112 747l-168 -14l8 56l224 23zM302 139l-41 31l882 1138l40 -31zM1213 241h176l-8 -55h-176l-28 -186h-55l28 186h-442l5 36l522 579h62zM804 246l2 -5h352l72 480l-5 2l-45 -59z" />
    <glyph glyph-name="onehalf" unicode="&#xbd;" horiz-adv-x="1447" 
d="M314 139l-41 31l882 1138l40 -31zM381 664h-54l112 747l-168 -14l8 56l224 23zM1366 0h-551.001l8 55l372 300c63.333 53.333 108 97 134 131s41.667 68 47 102c8 54 -1.5 95.667 -28.5 125s-72.833 44 -137.5 44c-66.667 0 -122 -17.167 -166 -51.5
s-70 -77.833 -78 -130.5h-48l-2 6c6.66699 66.667 37.834 121.834 93.501 165.501s125.167 65.5 208.5 65.5c74 0 130.833 -19.333 170.5 -58s54.167 -94.334 43.5 -167.001c-7.33301 -48.667 -30 -94.167 -68 -136.5s-93.333 -93.833 -166 -154.5l-301 -235l2 -6h475z" />
    <glyph glyph-name="threequarters" unicode="&#xbe;" horiz-adv-x="1653" 
d="M529 139l-41 31l882 1138l40 -31zM1438 241h176l-8 -55h-176l-28 -186h-55l28 186h-442l5 36l522 579h62zM1029 246l2 -5h352l72 480l-5 2l-45 -59zM410 1104l113.999 0.000976562c68.667 0 122.5 13.833 161.5 41.5s62.167 66.167 69.5 115.5
c7.33301 50.667 -4 90.5 -34 119.5s-80 43.5 -150 43.5c-59.333 0 -112.333 -15.333 -159 -46s-73.334 -70.334 -80.001 -119.001h-45l-2 6c6 65.333 37.333 117.333 94 156s123.334 58 200.001 58c78.667 0 139.334 -19.333 182.001 -58s59 -93 49 -163
c-6.66699 -42.667 -24.334 -79.834 -53.001 -111.501s-66 -55.167 -112 -70.5c46.667 -14.667 80.5 -38.167 101.5 -70.5s28.167 -72.833 21.5 -121.5c-11.333 -74 -45.5 -130.5 -102.5 -169.5s-127.167 -58.5 -210.5 -58.5c-74 0 -136.333 19.667 -187 59
s-69 95.333 -55 168l2 6h49c-8 -54 6.16699 -97.167 42.5 -129.5s88.833 -48.5 157.5 -48.5c68 0 124.167 15.333 168.5 46s70.5 72.334 78.5 125.001c8.66699 59.333 -3.16602 101.833 -35.499 127.5s-85.833 38.5 -160.5 38.5h-114l7 44z" />
    <glyph glyph-name="questiondown" unicode="&#xbf;" horiz-adv-x="912" 
d="M532 683c-13.333 -78.667 -28.665 -134.169 -45.998 -166.502s-58 -74.166 -122 -125.499c-92.667 -77.333 -160.834 -143.333 -204.501 -198s-72.167 -128.667 -85.5 -222c-16 -101.333 -2.33301 -178.666 41 -231.999s113.666 -80 210.999 -80
c90 0 166.333 28.5 229 85.5s102 131.167 118 222.5h46l2 -6c-16 -113.333 -61.5 -200.833 -136.5 -262.5s-163.833 -92.5 -266.5 -92.5c-106 0 -186.167 34 -240.5 102s-73.5 156.333 -57.5 265c14 97.333 46.167 178.5 96.5 243.5s125.5 137.167 225.5 216.5
c50.667 34.667 83.5 68 98.5 100s27.5 82 37.5 150h54zM514.001 1083h82l-15 -106h-82z" />
    <glyph glyph-name="Agrave" unicode="&#xc0;" horiz-adv-x="1223" 
d="M952 435h-711l-228 -435h-59l762 1456h66l327 -1456h-59zM269 489h671l-182 815l-15 84l-6 1l-40 -85zM824 1604h-82l-201 266h96z" />
    <glyph glyph-name="Aacute" unicode="&#xc1;" horiz-adv-x="1223" 
d="M952 435h-711l-228 -435h-59l762 1456h66l327 -1456h-59zM269 489h671l-182 815l-15 84l-6 1l-40 -85zM975 1862h77l2 -6l-268 -260h-66l-3 6z" />
    <glyph glyph-name="Acircumflex" unicode="&#xc2;" horiz-adv-x="1223" 
d="M952 435h-711l-228 -435h-59l762 1456h66l327 -1456h-59zM269 489h671l-182 815l-15 84l-6 1l-40 -85zM1028 1614l-2 -13h-70l-157 186l-211 -186h-66l2 17l241 206h80z" />
    <glyph glyph-name="Atilde" unicode="&#xc3;" horiz-adv-x="1223" 
d="M952 435h-711l-228 -435h-59l762 1456h66l327 -1456h-59zM269 489h671l-182 815l-15 84l-6 1l-40 -85zM1089 1801c-8 -57.333 -31.167 -102.666 -69.5 -135.999s-82.5 -50 -132.5 -50c-47.333 0 -94.666 20.833 -141.999 62.5s-89.666 62.5 -126.999 62.5
c-34 0 -64.667 -12.5 -92 -37.5s-43.333 -57.5 -48 -97.5l-54 10c7.33301 56 29.666 99.833 66.999 131.5s82 47.5 134 47.5c45.333 0 92.666 -20.667 141.999 -62s92 -62 128 -62c32 0 61.833 13.167 89.5 39.5s44.5 60.166 50.5 101.499z" />
    <glyph glyph-name="Adieresis" unicode="&#xc4;" horiz-adv-x="1223" 
d="M952 435h-711l-228 -435h-59l762 1456h66l327 -1456h-59zM269 489h671l-182 815l-15 84l-6 1l-40 -85zM1085 1673h-136l17 118h136zM616 1673h-137l17 118h137z" />
    <glyph glyph-name="Aring" unicode="&#xc5;" horiz-adv-x="1223" 
d="M952 435h-711l-228 -435h-59l762 1456h66l327 -1456h-59zM269 489h671l-182 815l-15 84l-6 1l-40 -85zM653 1726c5.33301 39.333 23.3311 72.333 53.998 99s65 40 103 40c34.667 0 63.334 -13.833 86.001 -41.5s31.334 -60.167 26.001 -97.5
c-6 -39.333 -24 -71.666 -54 -96.999s-63.333 -38 -100 -38c-36 0 -65.667 13.167 -89 39.5s-32 58.166 -26 95.499zM709.998 1726c-4 -24 0.499023 -43.167 13.499 -57.5s30.833 -21.5 53.5 -21.5c20.667 0 39.5 7.5 56.5 22.5s27.5 33.833 31.5 56.5
c3.33301 24 -1.16699 43.667 -13.5 59s-29.166 23 -50.499 23s-41 -7.83301 -59 -23.5s-28.667 -35.167 -32 -58.5z" />
    <glyph glyph-name="AE" unicode="&#xc6;" horiz-adv-x="1816" 
d="M1688 0h-752l46 425h-628l-319 -425h-65l1099 1456h776l-8 -54h-696l-66 -616h588l-8 -54h-586l-73 -678h700zM394 478h593l100 922l-6 2l-71 -104z" />
    <glyph glyph-name="Ccedilla" unicode="&#xc7;" horiz-adv-x="1327" 
d="M1158 446l1.99805 -6c-20.667 -155.333 -82.5 -271 -185.5 -347s-231.833 -114 -386.5 -114c-153.333 0 -270.666 59.333 -351.999 178s-107.666 272.667 -78.999 462l33 218c28.667 198 99.334 354.167 212.001 468.5s249.667 171.5 411 171.5
c146 0 260.833 -40 344.5 -120s113.5 -193 89.5 -339l-3 -6h-46c20 136 -5.16699 238.5 -75.5 307.5s-176.5 103.5 -318.5 103.5c-136.667 0 -257.667 -54 -363 -162s-171 -248.667 -197 -422l-33 -220c-28 -183.333 -6.83301 -326.833 63.5 -430.5
s177.5 -155.5 321.5 -155.5c135.333 0 250.166 34.667 344.499 104s151.833 172.333 172.5 309h45zM597.998 -9l-21.999 -75.999c60 -4.66699 105.5 -19.834 136.5 -45.501s42.5 -66.834 34.5 -123.501c-9.33301 -60.667 -42.333 -107.5 -99 -140.5
s-134.667 -49.5 -234 -49.5v49c67.333 0 128.666 12.167 183.999 36.5s86.666 59.166 93.999 104.499c6.66699 44.667 -3.66602 74.834 -30.999 90.501s-80.333 26.834 -159 33.501l43 121h53z" />
    <glyph glyph-name="Egrave" unicode="&#xc8;" horiz-adv-x="1129" 
d="M984 732h-701l-101 -678h802l-8 -54h-856l218 1456h856l-8 -54h-802l-93 -616h701zM831 1604h-82l-201 266h96z" />
    <glyph glyph-name="Eacute" unicode="&#xc9;" horiz-adv-x="1129" 
d="M984 732h-701l-101 -678h802l-8 -54h-856l218 1456h856l-8 -54h-802l-93 -616h701zM982 1862h77l2 -6l-268 -260h-66l-3 6z" />
    <glyph glyph-name="Ecircumflex" unicode="&#xca;" horiz-adv-x="1129" 
d="M984 732h-701l-101 -678h802l-8 -54h-856l218 1456h856l-8 -54h-802l-93 -616h701zM1035 1614l-2 -13h-70l-157 186l-211 -186h-66l2 17l241 206h80z" />
    <glyph glyph-name="Edieresis" unicode="&#xcb;" horiz-adv-x="1129" 
d="M984 732h-701l-101 -678h802l-8 -54h-856l218 1456h856l-8 -54h-802l-93 -616h701zM1092 1673h-136l17 118h136zM623 1673h-137l17 118h137z" />
    <glyph glyph-name="Igrave" unicode="&#xcc;" horiz-adv-x="534" 
d="M214 0h-54l218 1456h54zM481 1604h-82l-201 266h96z" />
    <glyph glyph-name="Iacute" unicode="&#xcd;" horiz-adv-x="534" 
d="M214 0h-54l218 1456h54zM631 1862h77l2 -6l-268 -260h-66l-3 6z" />
    <glyph glyph-name="Icircumflex" unicode="&#xce;" horiz-adv-x="534" 
d="M214 0h-54l218 1456h54zM685 1614l-2 -13h-70l-157 186l-211 -186h-66l2 17l241 206h80z" />
    <glyph glyph-name="Idieresis" unicode="&#xcf;" horiz-adv-x="534" 
d="M214 0h-54l218 1456h54zM742 1673h-136l17 118h136zM273 1673h-137l17 118h137z" />
    <glyph glyph-name="Eth" unicode="&#xd0;" horiz-adv-x="1370" 
d="M120 0l107.002 713h-140l8 54h140l103 689h433c161.333 0 292.666 -60.5 393.999 -181.5s138.666 -273.5 111.999 -457.5l-27 -178c-29.333 -194 -110.5 -349 -243.5 -465s-284.167 -174 -453.5 -174h-433zM674.002 713h-392.999l-99 -659h379
c145.333 0 281.166 55.833 407.499 167.5s202.166 250.834 227.499 417.501l27 181c25.333 173.333 -6.66699 313.666 -96 420.999s-210.666 161 -363.999 161h-379l-95 -635h393z" />
    <glyph glyph-name="Ntilde" unicode="&#xd1;" horiz-adv-x="1449" 
d="M1169 0h-54l-731 1356l-6 -1l-203 -1355h-55l218 1456h55l731 -1354l6 1l203 1353h54zM1203 1801c-8 -57.333 -31.167 -102.666 -69.5 -135.999s-82.5 -50 -132.5 -50c-47.333 0 -94.666 20.833 -141.999 62.5s-89.666 62.5 -126.999 62.5c-34 0 -64.667 -12.5 -92 -37.5
s-43.333 -57.5 -48 -97.5l-54 10c7.33301 56 29.666 99.833 66.999 131.5s82 47.5 134 47.5c45.333 0 92.666 -20.667 141.999 -62s92 -62 128 -62c32 0 61.833 13.167 89.5 39.5s44.5 60.166 50.5 101.499z" />
    <glyph glyph-name="Ograve" unicode="&#xd2;" horiz-adv-x="1364" 
d="M1244 619c-30.667 -204 -102.497 -361.667 -215.497 -473s-255.833 -167 -428.5 -167c-164.667 0 -288.834 58.167 -372.501 174.5s-110.834 271.5 -81.501 465.5l33 218c30 203.333 101.5 360.833 214.5 472.5s256.167 167.5 429.5 167.5
c164.667 0 288.667 -58.167 372 -174.5s110.666 -271.5 81.999 -465.5zM1223 839c27.333 186 6.16797 329.833 -63.499 431.5s-184.834 152.5 -345.501 152.5c-152 0 -280 -53.167 -384 -159.5s-169.333 -247.833 -196 -424.5l-33 -220
c-28.667 -187.333 -8 -331.833 62 -433.5s185 -152.5 345 -152.5c152.667 0 281 53.167 385 159.5s169.667 248.5 197 426.5zM891.005 1625h-82l-201 266h96z" />
    <glyph glyph-name="Oacute" unicode="&#xd3;" horiz-adv-x="1364" 
d="M1244 619c-30.667 -204 -102.497 -361.667 -215.497 -473s-255.833 -167 -428.5 -167c-164.667 0 -288.834 58.167 -372.501 174.5s-110.834 271.5 -81.501 465.5l33 218c30 203.333 101.5 360.833 214.5 472.5s256.167 167.5 429.5 167.5
c164.667 0 288.667 -58.167 372 -174.5s110.666 -271.5 81.999 -465.5zM1223 839c27.333 186 6.16797 329.833 -63.499 431.5s-184.834 152.5 -345.501 152.5c-152 0 -280 -53.167 -384 -159.5s-169.333 -247.833 -196 -424.5l-33 -220
c-28.667 -187.333 -8 -331.833 62 -433.5s185 -152.5 345 -152.5c152.667 0 281 53.167 385 159.5s169.667 248.5 197 426.5zM1042 1883h77l2 -6l-268 -260h-66l-3 6z" />
    <glyph glyph-name="Ocircumflex" unicode="&#xd4;" horiz-adv-x="1364" 
d="M1244 619c-30.667 -204 -102.497 -361.667 -215.497 -473s-255.833 -167 -428.5 -167c-164.667 0 -288.834 58.167 -372.501 174.5s-110.834 271.5 -81.501 465.5l33 218c30 203.333 101.5 360.833 214.5 472.5s256.167 167.5 429.5 167.5
c164.667 0 288.667 -58.167 372 -174.5s110.666 -271.5 81.999 -465.5zM1223 839c27.333 186 6.16797 329.833 -63.499 431.5s-184.834 152.5 -345.501 152.5c-152 0 -280 -53.167 -384 -159.5s-169.333 -247.833 -196 -424.5l-33 -220
c-28.667 -187.333 -8 -331.833 62 -433.5s185 -152.5 345 -152.5c152.667 0 281 53.167 385 159.5s169.667 248.5 197 426.5zM1096 1635l-2 -13h-70l-157 186l-211 -186h-66l2 17l241 206h80z" />
    <glyph glyph-name="Otilde" unicode="&#xd5;" horiz-adv-x="1364" 
d="M1244 619c-30.667 -204 -102.497 -361.667 -215.497 -473s-255.833 -167 -428.5 -167c-164.667 0 -288.834 58.167 -372.501 174.5s-110.834 271.5 -81.501 465.5l33 218c30 203.333 101.5 360.833 214.5 472.5s256.167 167.5 429.5 167.5
c164.667 0 288.667 -58.167 372 -174.5s110.666 -271.5 81.999 -465.5zM1223 839c27.333 186 6.16797 329.833 -63.499 431.5s-184.834 152.5 -345.501 152.5c-152 0 -280 -53.167 -384 -159.5s-169.333 -247.833 -196 -424.5l-33 -220
c-28.667 -187.333 -8 -331.833 62 -433.5s185 -152.5 345 -152.5c152.667 0 281 53.167 385 159.5s169.667 248.5 197 426.5zM1157 1822c-8 -57.333 -31.167 -102.666 -69.5 -135.999s-82.5 -50 -132.5 -50c-47.333 0 -94.666 20.833 -141.999 62.5
s-89.666 62.5 -126.999 62.5c-34 0 -64.667 -12.5 -92 -37.5s-43.333 -57.5 -48 -97.5l-54 10c7.33301 56 29.666 99.833 66.999 131.5s82 47.5 134 47.5c45.333 0 92.666 -20.667 141.999 -62s92 -62 128 -62c32 0 61.833 13.167 89.5 39.5s44.5 60.166 50.5 101.499z" />
    <glyph glyph-name="Odieresis" unicode="&#xd6;" horiz-adv-x="1364" 
d="M1244 619c-30.667 -204 -102.497 -361.667 -215.497 -473s-255.833 -167 -428.5 -167c-164.667 0 -288.834 58.167 -372.501 174.5s-110.834 271.5 -81.501 465.5l33 218c30 203.333 101.5 360.833 214.5 472.5s256.167 167.5 429.5 167.5
c164.667 0 288.667 -58.167 372 -174.5s110.666 -271.5 81.999 -465.5zM1223 839c27.333 186 6.16797 329.833 -63.499 431.5s-184.834 152.5 -345.501 152.5c-152 0 -280 -53.167 -384 -159.5s-169.333 -247.833 -196 -424.5l-33 -220
c-28.667 -187.333 -8 -331.833 62 -433.5s185 -152.5 345 -152.5c152.667 0 281 53.167 385 159.5s169.667 248.5 197 426.5zM1152 1694h-136l17 118h136zM683.005 1694h-137l17 118h137z" />
    <glyph glyph-name="multiply" unicode="&#xd7;" horiz-adv-x="1052" 
d="M61 289l444 393l-303 364l45 39l302 -364l411 364l33 -39l-412 -364l326 -393l-44 -37l-326 391l-442 -391z" />
    <glyph glyph-name="Oslash" unicode="&#xd8;" horiz-adv-x="1364" 
d="M1244 619c-30.667 -204 -102.499 -361.667 -215.499 -473s-255.833 -167 -428.5 -167c-63.333 0 -121.333 8.83301 -174 26.5s-98.334 44.167 -137.001 79.5l-126 -160h-66l155 197c-50 56.667 -84.333 127.167 -103 211.5s-19.667 179.5 -3 285.5l33 218
c30 203.333 101.5 360.833 214.5 472.5s256.167 167.5 429.5 167.5c78 0 148 -14.167 210 -42.5s113.333 -68.5 154 -120.5l142 181h66l-178 -227c31.333 -55.333 52.333 -119.5 63 -192.5s9.66699 -152.5 -3 -238.5zM201.001 619c-16 -101.333 -17.167 -190.333 -3.5 -267
s41.5 -138 83.5 -184l6 -1l869 1108c-35.333 48 -81.5 84.667 -138.5 110s-124.833 38 -203.5 38c-152 0 -280 -53.167 -384 -159.5s-169.333 -247.833 -196 -424.5zM1223 839c11.333 79.333 14 151.5 8 216.5s-21 119.833 -45 164.5l-6 2l-861 -1098
c34 -30.667 75.333 -53.5 124 -68.5s103.667 -22.5 165 -22.5c152.667 0 281 53.167 385 159.5s169.667 248.5 197 426.5z" />
    <glyph glyph-name="Ugrave" unicode="&#xd9;" horiz-adv-x="1365" 
d="M1318 1456l-144.998 -967.002c-24.667 -166 -89.334 -292.5 -194.001 -379.5s-231 -130.5 -379 -130.5c-141.333 0 -253 45.5 -335 136.5s-111 215.5 -87 373.5l145 967h54l-145 -967c-22 -143.333 2.5 -255.166 73.5 -335.499s171.833 -120.5 302.5 -120.5
c123.333 0 234.166 41.833 332.499 125.5s157.833 193.834 178.5 330.501l145 967h54zM909.002 1604h-82l-201 266h96z" />
    <glyph glyph-name="Uacute" unicode="&#xda;" horiz-adv-x="1365" 
d="M1318 1456l-144.998 -967.002c-24.667 -166 -89.334 -292.5 -194.001 -379.5s-231 -130.5 -379 -130.5c-141.333 0 -253 45.5 -335 136.5s-111 215.5 -87 373.5l145 967h54l-145 -967c-22 -143.333 2.5 -255.166 73.5 -335.499s171.833 -120.5 302.5 -120.5
c123.333 0 234.166 41.833 332.499 125.5s157.833 193.834 178.5 330.501l145 967h54zM1060 1862h77l2 -6l-268 -260h-66l-3 6z" />
    <glyph glyph-name="Ucircumflex" unicode="&#xdb;" horiz-adv-x="1365" 
d="M1318 1456l-144.998 -967.002c-24.667 -166 -89.334 -292.5 -194.001 -379.5s-231 -130.5 -379 -130.5c-141.333 0 -253 45.5 -335 136.5s-111 215.5 -87 373.5l145 967h54l-145 -967c-22 -143.333 2.5 -255.166 73.5 -335.499s171.833 -120.5 302.5 -120.5
c123.333 0 234.166 41.833 332.499 125.5s157.833 193.834 178.5 330.501l145 967h54zM1113 1614l-2 -13h-70l-157 186l-211 -186h-66l2 17l241 206h80z" />
    <glyph glyph-name="Udieresis" unicode="&#xdc;" horiz-adv-x="1365" 
d="M1318 1456l-144.998 -967.002c-24.667 -166 -89.334 -292.5 -194.001 -379.5s-231 -130.5 -379 -130.5c-141.333 0 -253 45.5 -335 136.5s-111 215.5 -87 373.5l145 967h54l-145 -967c-22 -143.333 2.5 -255.166 73.5 -335.499s171.833 -120.5 302.5 -120.5
c123.333 0 234.166 41.833 332.499 125.5s157.833 193.834 178.5 330.501l145 967h54zM1170 1673h-136l17 118h136zM701.002 1673h-137l17 118h137z" />
    <glyph glyph-name="Yacute" unicode="&#xdd;" horiz-adv-x="1223" 
d="M600 647l19 -50l34 50l604 809h66l-682 -902l-83 -554h-55l83 553l-412 903h66zM969 1851h77l2 -6l-268 -260h-66l-3 6z" />
    <glyph glyph-name="Thorn" unicode="&#xde;" horiz-adv-x="1219" 
d="M392 1456l-47 -313.001h371c135.333 0 238.5 -38.167 309.5 -114.5s97.833 -173.166 80.5 -290.499c-19.333 -124.667 -73.5 -223.167 -162.5 -295.5s-205.167 -108.5 -348.5 -108.5h-371l-50 -334h-54l218 1456h54zM337 1089l-105 -700.999h371
c124.667 0 227.167 35.167 307.5 105.5s127.166 151.166 140.499 242.499c15.333 99.333 -5.16699 183 -61.5 251s-150.166 102 -281.499 102h-371z" />
    <glyph glyph-name="germandbls" unicode="&#xdf;" horiz-adv-x="1183" 
d="M138 0l-54.002 -0.000976562l162 1082c19.333 130 63.333 227.833 132 293.5s157.334 98.5 266.001 98.5c78.667 0 143.167 -24.667 193.5 -74s69.833 -114 58.5 -194c-11.333 -71.333 -41.833 -140.833 -91.5 -208.5s-79.167 -133.5 -88.5 -197.5
c-10 -64 42.5 -142.333 157.5 -235s165.167 -188.667 150.5 -288c-15.333 -98 -64.333 -172.167 -147 -222.5s-171 -75.5 -265 -75.5c-56 0 -114.167 8.83301 -174.5 26.5s-101.833 38.5 -124.5 62.5l33 49c24 -22.667 61.5 -42.5 112.5 -59.5s102.167 -25.5 153.5 -25.5
c90 0 169.5 24 238.5 72s109.167 108.667 120.5 182c11.333 80 -40.5 165.333 -155.5 256s-166.167 177.334 -153.5 260.001c11.333 74 41 145.833 89 215.5s76.333 133.167 85 190.5c9.33301 62.667 -5.16699 113.667 -43.5 153s-87.166 59 -146.499 59
c-86 0 -161.167 -29.333 -225.5 -88s-104.5 -142 -120.5 -250z" />
    <glyph glyph-name="agrave" unicode="&#xe0;" horiz-adv-x="1081" 
d="M800 199c-46.667 -65.333 -109.999 -118.335 -189.999 -159.002s-172.667 -61 -278 -61c-96.667 0 -170.5 27.833 -221.5 83.5s-69.5 129.5 -55.5 221.5c13.333 94 67.166 170.833 161.499 230.5s206.5 89.5 336.5 89.5h308l24 158c14 93.333 -3.83301 164.333 -53.5 213
s-127.5 73 -233.5 73c-94 0 -175.333 -23.833 -244 -71.5s-108.667 -108.5 -120 -182.5l-45 2l-1 5c9.33301 86.667 52.5 158.5 129.5 215.5s173.167 85.5 288.5 85.5c112 0 199.5 -29.667 262.5 -89s86.5 -143.666 70.5 -252.999l-81 -542
c-6 -39.333 -9.66699 -76.666 -11 -111.999s0.666992 -70.666 6 -105.999h-60c-1.33301 56 -1.83301 93.667 -1.5 113s2.5 42.666 6.5 69.999zM340.001 31.998c103.333 0 196.5 23.832 279.5 71.499s148.5 114.834 196.5 201.501l37 244h-306c-108 0 -205.5 -26 -292.5 -78
s-135.833 -115.667 -146.5 -191c-11.333 -75.333 4 -135.5 46 -180.5s104 -67.5 186 -67.5zM698.001 1284h-82l-201 266h96z" />
    <glyph glyph-name="aacute" unicode="&#xe1;" horiz-adv-x="1081" 
d="M800 199c-46.667 -65.333 -109.999 -118.335 -189.999 -159.002s-172.667 -61 -278 -61c-96.667 0 -170.5 27.833 -221.5 83.5s-69.5 129.5 -55.5 221.5c13.333 94 67.166 170.833 161.499 230.5s206.5 89.5 336.5 89.5h308l24 158c14 93.333 -3.83301 164.333 -53.5 213
s-127.5 73 -233.5 73c-94 0 -175.333 -23.833 -244 -71.5s-108.667 -108.5 -120 -182.5l-45 2l-1 5c9.33301 86.667 52.5 158.5 129.5 215.5s173.167 85.5 288.5 85.5c112 0 199.5 -29.667 262.5 -89s86.5 -143.666 70.5 -252.999l-81 -542
c-6 -39.333 -9.66699 -76.666 -11 -111.999s0.666992 -70.666 6 -105.999h-60c-1.33301 56 -1.83301 93.667 -1.5 113s2.5 42.666 6.5 69.999zM340.001 31.998c103.333 0 196.5 23.832 279.5 71.499s148.5 114.834 196.5 201.501l37 244h-306c-108 0 -205.5 -26 -292.5 -78
s-135.833 -115.667 -146.5 -191c-11.333 -75.333 4 -135.5 46 -180.5s104 -67.5 186 -67.5zM849.001 1542h77l2 -6l-268 -260h-66l-3 6z" />
    <glyph glyph-name="acircumflex" unicode="&#xe2;" horiz-adv-x="1081" 
d="M800 199c-46.667 -65.333 -109.999 -118.335 -189.999 -159.002s-172.667 -61 -278 -61c-96.667 0 -170.5 27.833 -221.5 83.5s-69.5 129.5 -55.5 221.5c13.333 94 67.166 170.833 161.499 230.5s206.5 89.5 336.5 89.5h308l24 158c14 93.333 -3.83301 164.333 -53.5 213
s-127.5 73 -233.5 73c-94 0 -175.333 -23.833 -244 -71.5s-108.667 -108.5 -120 -182.5l-45 2l-1 5c9.33301 86.667 52.5 158.5 129.5 215.5s173.167 85.5 288.5 85.5c112 0 199.5 -29.667 262.5 -89s86.5 -143.666 70.5 -252.999l-81 -542
c-6 -39.333 -9.66699 -76.666 -11 -111.999s0.666992 -70.666 6 -105.999h-60c-1.33301 56 -1.83301 93.667 -1.5 113s2.5 42.666 6.5 69.999zM340.001 31.998c103.333 0 196.5 23.832 279.5 71.499s148.5 114.834 196.5 201.501l37 244h-306c-108 0 -205.5 -26 -292.5 -78
s-135.833 -115.667 -146.5 -191c-11.333 -75.333 4 -135.5 46 -180.5s104 -67.5 186 -67.5zM902.001 1294l-2 -13h-70l-157 186l-211 -186h-66l2 17l241 206h80z" />
    <glyph glyph-name="atilde" unicode="&#xe3;" horiz-adv-x="1081" 
d="M800 199c-46.667 -65.333 -109.999 -118.335 -189.999 -159.002s-172.667 -61 -278 -61c-96.667 0 -170.5 27.833 -221.5 83.5s-69.5 129.5 -55.5 221.5c13.333 94 67.166 170.833 161.499 230.5s206.5 89.5 336.5 89.5h308l24 158c14 93.333 -3.83301 164.333 -53.5 213
s-127.5 73 -233.5 73c-94 0 -175.333 -23.833 -244 -71.5s-108.667 -108.5 -120 -182.5l-45 2l-1 5c9.33301 86.667 52.5 158.5 129.5 215.5s173.167 85.5 288.5 85.5c112 0 199.5 -29.667 262.5 -89s86.5 -143.666 70.5 -252.999l-81 -542
c-6 -39.333 -9.66699 -76.666 -11 -111.999s0.666992 -70.666 6 -105.999h-60c-1.33301 56 -1.83301 93.667 -1.5 113s2.5 42.666 6.5 69.999zM340.001 31.998c103.333 0 196.5 23.832 279.5 71.499s148.5 114.834 196.5 201.501l37 244h-306c-108 0 -205.5 -26 -292.5 -78
s-135.833 -115.667 -146.5 -191c-11.333 -75.333 4 -135.5 46 -180.5s104 -67.5 186 -67.5zM963.001 1481c-8 -57.333 -31.167 -102.666 -69.5 -135.999s-82.5 -50 -132.5 -50c-47.333 0 -94.666 20.833 -141.999 62.5s-89.666 62.5 -126.999 62.5
c-34 0 -64.667 -12.5 -92 -37.5s-43.333 -57.5 -48 -97.5l-54 10c7.33301 56 29.666 99.833 66.999 131.5s82 47.5 134 47.5c45.333 0 92.666 -20.667 141.999 -62s92 -62 128 -62c32 0 61.833 13.167 89.5 39.5s44.5 60.166 50.5 101.499z" />
    <glyph glyph-name="adieresis" unicode="&#xe4;" horiz-adv-x="1081" 
d="M800 199c-46.667 -65.333 -109.999 -118.335 -189.999 -159.002s-172.667 -61 -278 -61c-96.667 0 -170.5 27.833 -221.5 83.5s-69.5 129.5 -55.5 221.5c13.333 94 67.166 170.833 161.499 230.5s206.5 89.5 336.5 89.5h308l24 158c14 93.333 -3.83301 164.333 -53.5 213
s-127.5 73 -233.5 73c-94 0 -175.333 -23.833 -244 -71.5s-108.667 -108.5 -120 -182.5l-45 2l-1 5c9.33301 86.667 52.5 158.5 129.5 215.5s173.167 85.5 288.5 85.5c112 0 199.5 -29.667 262.5 -89s86.5 -143.666 70.5 -252.999l-81 -542
c-6 -39.333 -9.66699 -76.666 -11 -111.999s0.666992 -70.666 6 -105.999h-60c-1.33301 56 -1.83301 93.667 -1.5 113s2.5 42.666 6.5 69.999zM340.001 31.998c103.333 0 196.5 23.832 279.5 71.499s148.5 114.834 196.5 201.501l37 244h-306c-108 0 -205.5 -26 -292.5 -78
s-135.833 -115.667 -146.5 -191c-11.333 -75.333 4 -135.5 46 -180.5s104 -67.5 186 -67.5zM959.001 1353h-136l17 118h136zM490.001 1353h-137l17 118h137z" />
    <glyph glyph-name="aring" unicode="&#xe5;" horiz-adv-x="1081" 
d="M800 199c-46.667 -65.333 -109.999 -118.335 -189.999 -159.002s-172.667 -61 -278 -61c-96.667 0 -170.5 27.833 -221.5 83.5s-69.5 129.5 -55.5 221.5c13.333 94 67.166 170.833 161.499 230.5s206.5 89.5 336.5 89.5h308l24 158c14 93.333 -3.83301 164.333 -53.5 213
s-127.5 73 -233.5 73c-94 0 -175.333 -23.833 -244 -71.5s-108.667 -108.5 -120 -182.5l-45 2l-1 5c9.33301 86.667 52.5 158.5 129.5 215.5s173.167 85.5 288.5 85.5c112 0 199.5 -29.667 262.5 -89s86.5 -143.666 70.5 -252.999l-81 -542
c-6 -39.333 -9.66699 -76.666 -11 -111.999s0.666992 -70.666 6 -105.999h-60c-1.33301 56 -1.83301 93.667 -1.5 113s2.5 42.666 6.5 69.999zM340.001 31.998c103.333 0 196.5 23.832 279.5 71.499s148.5 114.834 196.5 201.501l37 244h-306c-108 0 -205.5 -26 -292.5 -78
s-135.833 -115.667 -146.5 -191c-11.333 -75.333 4 -135.5 46 -180.5s104 -67.5 186 -67.5zM527.001 1406c5.33301 39.333 23.3311 72.333 53.998 99s65 40 103 40c34.667 0 63.334 -13.833 86.001 -41.5s31.334 -60.167 26.001 -97.5c-6 -39.333 -24 -71.666 -54 -96.999
s-63.333 -38 -100 -38c-36 0 -65.667 13.167 -89 39.5s-32 58.166 -26 95.499zM583.999 1406c-4 -24 0.499023 -43.167 13.499 -57.5s30.833 -21.5 53.5 -21.5c20.667 0 39.5 7.5 56.5 22.5s27.5 33.833 31.5 56.5c3.33301 24 -1.16699 43.667 -13.5 59
s-29.166 23 -50.499 23s-41 -7.83301 -59 -23.5s-28.667 -35.167 -32 -58.5z" />
    <glyph glyph-name="ae" unicode="&#xe6;" horiz-adv-x="1802" 
d="M1215 -21c-92 0 -169.167 22.667 -231.5 68s-105.5 108.333 -129.5 189l-3 -18h1c-38.667 -63.333 -98 -119 -178 -167s-173 -72 -279 -72c-108.667 0 -191 27.667 -247 83s-76.667 129.333 -62 222c14 96 61.667 170.5 143 223.5s192 79.5 332 79.5h290l20 133
c16 108 4.33301 189.667 -35 245s-105.333 83 -198 83c-98 0 -181 -26.167 -249 -78.5s-107.667 -118.5 -119 -198.5l-44 6l-2 6c11.333 95.333 55.333 172.333 132 231s173.334 88 290.001 88c83.333 0 150.833 -24.333 202.5 -73s79.5 -118.667 83.5 -210
c47.333 88.667 109.5 158 186.5 208s160.167 75 249.5 75c120.667 0 212.167 -39.833 274.5 -119.5s83.5 -187.167 63.5 -322.5l-12 -83h-787c0 -2 -0.333008 -4.5 -1 -7.5s-1 -4.83301 -1 -5.5l-10 -64c-22 -143.333 -6.33301 -257 47 -341s147 -126 281 -126
c65.333 0 128.833 11.667 190.5 35s115.5 55.333 161.5 96l23 -42c-49.333 -44 -103.833 -78.833 -163.5 -104.5s-132.834 -38.5 -219.501 -38.5zM402 31c82.667 0 164 21.998 244 65.998s130 86.667 150 128l46 307h-287c-118.667 0 -215 -24.167 -289 -72.5
s-116 -108.166 -126 -179.499c-12 -81.333 4.33301 -143.166 49 -185.499s115.667 -63.5 213 -63.5zM1360 1048c-102 0 -193.5 -39.168 -274.5 -117.501s-134.833 -175.833 -161.5 -292.5l2 -6h722l5 32c17.333 116.667 1 209.834 -49 279.501s-131.333 104.5 -244 104.5z
" />
    <glyph glyph-name="ccedilla" unicode="&#xe7;" horiz-adv-x="1039" 
d="M464 33c88.667 0 172.329 25.002 250.996 75.002s125.667 125 141 225h45l2 -6c-14 -110.667 -65.167 -196.334 -153.5 -257.001s-186.166 -91 -293.499 -91c-132.667 0 -232.167 50.167 -298.5 150.5s-87.166 230.5 -62.499 390.5l6 42
c24.667 167.333 83 299.166 175 395.499s207.333 144.5 346 144.5c108.667 0 197.834 -33.167 267.501 -99.5s94.167 -158.833 73.5 -277.5l-2 -5h-47c16 110 -5.5 192.167 -64.5 246.5s-137.5 81.5 -235.5 81.5c-122 0 -223.667 -46 -305 -138s-132.666 -208 -153.999 -348
l-6 -42c-22.667 -149.333 -8.16699 -267.833 43.5 -355.5s142.167 -131.5 271.5 -131.5zM466.995 -8.99805l-21.999 -75.999c60 -4.66699 105.5 -19.834 136.5 -45.501s42.5 -66.834 34.5 -123.501c-9.33301 -60.667 -42.333 -107.5 -99 -140.5s-134.667 -49.5 -234 -49.5
v49c67.333 0 128.666 12.167 183.999 36.5s86.666 59.166 93.999 104.499c6.66699 44.667 -3.66602 74.834 -30.999 90.501s-80.333 26.834 -159 33.501l43 121h53z" />
    <glyph glyph-name="egrave" unicode="&#xe8;" horiz-adv-x="1039" 
d="M468 -21c-122 0 -220.834 49.833 -296.501 149.5s-102.167 223.5 -79.5 371.5l10 64c24 162.667 86.5 293 187.5 391s218.167 147 351.5 147c116 0 204.667 -40 266 -120s82 -187.333 62 -322l-12 -83h-799c0 -2 -0.333008 -4.5 -1 -7.5s-1 -4.83301 -1 -5.5l-10 -64
c-20.667 -136.667 -0.5 -248.667 60.5 -336s150.833 -131 269.5 -131c62 0 125.5 12 190.5 36s118.833 56 161.5 96l22 -42c-43.333 -42 -97.166 -76.5 -161.499 -103.5s-137.833 -40.5 -220.5 -40.5zM632.999 1048c-107.333 0 -203.501 -39.332 -288.501 -117.999
s-141.5 -176.334 -169.5 -293.001l2 -6h734l5 33c16.667 116 0.333984 209 -48.999 279s-127.333 105 -234 105zM720.998 1283h-82l-201 266h96z" />
    <glyph glyph-name="eacute" unicode="&#xe9;" horiz-adv-x="1039" 
d="M468 -21c-122 0 -220.834 49.833 -296.501 149.5s-102.167 223.5 -79.5 371.5l10 64c24 162.667 86.5 293 187.5 391s218.167 147 351.5 147c116 0 204.667 -40 266 -120s82 -187.333 62 -322l-12 -83h-799c0 -2 -0.333008 -4.5 -1 -7.5s-1 -4.83301 -1 -5.5l-10 -64
c-20.667 -136.667 -0.5 -248.667 60.5 -336s150.833 -131 269.5 -131c62 0 125.5 12 190.5 36s118.833 56 161.5 96l22 -42c-43.333 -42 -97.166 -76.5 -161.499 -103.5s-137.833 -40.5 -220.5 -40.5zM632.999 1048c-107.333 0 -203.501 -39.332 -288.501 -117.999
s-141.5 -176.334 -169.5 -293.001l2 -6h734l5 33c16.667 116 0.333984 209 -48.999 279s-127.333 105 -234 105zM870.998 1541h77l2 -6l-268 -260h-66l-3 6z" />
    <glyph glyph-name="ecircumflex" unicode="&#xea;" horiz-adv-x="1039" 
d="M468 -21c-122 0 -220.834 49.833 -296.501 149.5s-102.167 223.5 -79.5 371.5l10 64c24 162.667 86.5 293 187.5 391s218.167 147 351.5 147c116 0 204.667 -40 266 -120s82 -187.333 62 -322l-12 -83h-799c0 -2 -0.333008 -4.5 -1 -7.5s-1 -4.83301 -1 -5.5l-10 -64
c-20.667 -136.667 -0.5 -248.667 60.5 -336s150.833 -131 269.5 -131c62 0 125.5 12 190.5 36s118.833 56 161.5 96l22 -42c-43.333 -42 -97.166 -76.5 -161.499 -103.5s-137.833 -40.5 -220.5 -40.5zM632.999 1048c-107.333 0 -203.501 -39.332 -288.501 -117.999
s-141.5 -176.334 -169.5 -293.001l2 -6h734l5 33c16.667 116 0.333984 209 -48.999 279s-127.333 105 -234 105zM924.998 1293l-2 -13h-70l-157 186l-211 -186h-66l2 17l241 206h80z" />
    <glyph glyph-name="edieresis" unicode="&#xeb;" horiz-adv-x="1039" 
d="M468 -21c-122 0 -220.834 49.833 -296.501 149.5s-102.167 223.5 -79.5 371.5l10 64c24 162.667 86.5 293 187.5 391s218.167 147 351.5 147c116 0 204.667 -40 266 -120s82 -187.333 62 -322l-12 -83h-799c0 -2 -0.333008 -4.5 -1 -7.5s-1 -4.83301 -1 -5.5l-10 -64
c-20.667 -136.667 -0.5 -248.667 60.5 -336s150.833 -131 269.5 -131c62 0 125.5 12 190.5 36s118.833 56 161.5 96l22 -42c-43.333 -42 -97.166 -76.5 -161.499 -103.5s-137.833 -40.5 -220.5 -40.5zM632.999 1048c-107.333 0 -203.501 -39.332 -288.501 -117.999
s-141.5 -176.334 -169.5 -293.001l2 -6h734l5 33c16.667 116 0.333984 209 -48.999 279s-127.333 105 -234 105zM981.998 1352h-136l17 118h136zM512.998 1352h-137l17 118h137z" />
    <glyph glyph-name="igrave" unicode="&#xec;" horiz-adv-x="406" 
d="M155 0h-54l162 1082h54zM370 1261h-82l-201 266h96z" />
    <glyph glyph-name="iacute" unicode="&#xed;" horiz-adv-x="406" 
d="M155 0h-54l162 1082h54zM520 1519h77l2 -6l-268 -260h-66l-3 6z" />
    <glyph glyph-name="icircumflex" unicode="&#xee;" horiz-adv-x="406" 
d="M155 0h-54l162 1082h54zM575 1271l-2 -13h-70l-157 186l-211 -186h-66l2 17l241 206h80z" />
    <glyph glyph-name="idieresis" unicode="&#xef;" horiz-adv-x="406" 
d="M155 0h-54l162 1082h54zM632 1331h-136l17 118h136zM163 1331h-137l17 118h137z" />
    <glyph glyph-name="eth" unicode="&#xf0;" horiz-adv-x="1183" 
d="M945 1324c62.667 -67.333 104.503 -147.331 125.503 -239.998s22.167 -202.334 3.5 -329.001l-33 -220c-25.333 -169.333 -88.833 -304.333 -190.5 -405s-219.834 -151 -354.501 -151c-128 0 -229.333 45.167 -304 135.5s-102 200.833 -82 331.5
c24.667 166.667 82.5 292.834 173.5 378.501s207.833 128.5 350.5 128.5c88 0 166.833 -17.667 236.5 -53s119.5 -84 149.5 -146l1 3c18.667 128 16.667 235.5 -6 322.5s-62.667 159.5 -120 217.5l-395 -208l-20 48l374 197c-32 25.333 -67.333 48.666 -106 69.999
s-82 42.333 -130 63l28 50c53.333 -22.667 101.666 -46.834 144.999 -72.501s81.666 -53.167 114.999 -82.5l283 149l21 -48zM509.003 37.002c114.667 0 217.497 47 308.497 141s147.5 213 169.5 357l20 131c-18.667 63.333 -60.667 117.333 -126 162
s-150.666 67 -255.999 67c-126.667 0 -230.167 -42 -310.5 -126s-130.166 -191.667 -149.499 -323c-17.333 -113.333 4.33398 -209.833 65.001 -289.5s153.667 -119.5 279 -119.5z" />
    <glyph glyph-name="ntilde" unicode="&#xf1;" 
d="M276 871c44 74.667 100.169 131.833 168.502 171.5s148.5 59.5 240.5 59.5c113.333 0 195 -37.667 245 -113s63.333 -192.666 40 -351.999l-96 -637h-54l96 639c23.333 156 13.166 263.167 -30.501 321.5s-112.834 87.5 -207.501 87.5
c-109.333 0 -199.666 -34 -270.999 -102s-124 -154.333 -158 -259l-103 -687h-54l83 554h-3c2 13.333 4.16699 26.666 6.5 39.999s5.16602 26.333 8.49902 39l67 449h46zM1007 1479c-8 -57.333 -31.167 -102.666 -69.5 -135.999s-82.5 -50 -132.5 -50
c-47.333 0 -94.666 20.833 -141.999 62.5s-89.666 62.5 -126.999 62.5c-34 0 -64.667 -12.5 -92 -37.5s-43.333 -57.5 -48 -97.5l-54 10c7.33301 56 29.666 99.833 66.999 131.5s82 47.5 134 47.5c45.333 0 92.666 -20.667 141.999 -62s92 -62 128 -62
c32 0 61.833 13.167 89.5 39.5s44.5 60.166 50.5 101.499z" />
    <glyph glyph-name="ograve" unicode="&#xf2;" 
d="M91 562c24.667 164.667 87.667 295.834 189 393.501s223 146.5 365 146.5c135.333 0 240.5 -50.833 315.5 -152.5s100.833 -230.834 77.5 -387.501l-6 -42c-25.333 -165.333 -88.5 -296.833 -189.5 -394.5s-222.167 -146.5 -363.5 -146.5
c-135.333 0 -240.833 50.833 -316.5 152.5s-101.5 231.167 -77.5 388.5zM139 520c-21.333 -140.667 -1.16895 -256.998 60.498 -348.998s157.5 -138 287.5 -138c121.333 0 228.333 47.667 321 143s149.334 210 170.001 344l6 42c20.667 137.333 0 252.666 -62 345.999
s-157 140 -285 140c-122 0 -229.667 -48.333 -323 -145s-149.666 -210.334 -168.999 -341.001zM745.997 1282h-82l-201 266h96z" />
    <glyph glyph-name="oacute" unicode="&#xf3;" 
d="M91 562c24.667 164.667 87.667 295.834 189 393.501s223 146.5 365 146.5c135.333 0 240.5 -50.833 315.5 -152.5s100.833 -230.834 77.5 -387.501l-6 -42c-25.333 -165.333 -88.5 -296.833 -189.5 -394.5s-222.167 -146.5 -363.5 -146.5
c-135.333 0 -240.833 50.833 -316.5 152.5s-101.5 231.167 -77.5 388.5zM139 520c-21.333 -140.667 -1.16895 -256.998 60.498 -348.998s157.5 -138 287.5 -138c121.333 0 228.333 47.667 321 143s149.334 210 170.001 344l6 42c20.667 137.333 0 252.666 -62 345.999
s-157 140 -285 140c-122 0 -229.667 -48.333 -323 -145s-149.666 -210.334 -168.999 -341.001zM895.997 1540h77l2 -6l-268 -260h-66l-3 6z" />
    <glyph glyph-name="ocircumflex" unicode="&#xf4;" 
d="M91 562c24.667 164.667 87.667 295.834 189 393.501s223 146.5 365 146.5c135.333 0 240.5 -50.833 315.5 -152.5s100.833 -230.834 77.5 -387.501l-6 -42c-25.333 -165.333 -88.5 -296.833 -189.5 -394.5s-222.167 -146.5 -363.5 -146.5
c-135.333 0 -240.833 50.833 -316.5 152.5s-101.5 231.167 -77.5 388.5zM139 520c-21.333 -140.667 -1.16895 -256.998 60.498 -348.998s157.5 -138 287.5 -138c121.333 0 228.333 47.667 321 143s149.334 210 170.001 344l6 42c20.667 137.333 0 252.666 -62 345.999
s-157 140 -285 140c-122 0 -229.667 -48.333 -323 -145s-149.666 -210.334 -168.999 -341.001zM949.997 1292l-2 -13h-70l-157 186l-211 -186h-66l2 17l241 206h80z" />
    <glyph glyph-name="otilde" unicode="&#xf5;" 
d="M91 562c24.667 164.667 87.667 295.834 189 393.501s223 146.5 365 146.5c135.333 0 240.5 -50.833 315.5 -152.5s100.833 -230.834 77.5 -387.501l-6 -42c-25.333 -165.333 -88.5 -296.833 -189.5 -394.5s-222.167 -146.5 -363.5 -146.5
c-135.333 0 -240.833 50.833 -316.5 152.5s-101.5 231.167 -77.5 388.5zM139 520c-21.333 -140.667 -1.16895 -256.998 60.498 -348.998s157.5 -138 287.5 -138c121.333 0 228.333 47.667 321 143s149.334 210 170.001 344l6 42c20.667 137.333 0 252.666 -62 345.999
s-157 140 -285 140c-122 0 -229.667 -48.333 -323 -145s-149.666 -210.334 -168.999 -341.001zM1011 1479c-8 -57.333 -31.167 -102.666 -69.5 -135.999s-82.5 -50 -132.5 -50c-47.333 0 -94.666 20.833 -141.999 62.5s-89.666 62.5 -126.999 62.5
c-34 0 -64.667 -12.5 -92 -37.5s-43.333 -57.5 -48 -97.5l-54 10c7.33301 56 29.666 99.833 66.999 131.5s82 47.5 134 47.5c45.333 0 92.666 -20.667 141.999 -62s92 -62 128 -62c32 0 61.833 13.167 89.5 39.5s44.5 60.166 50.5 101.499z" />
    <glyph glyph-name="odieresis" unicode="&#xf6;" 
d="M91 562c24.667 164.667 87.667 295.834 189 393.501s223 146.5 365 146.5c135.333 0 240.5 -50.833 315.5 -152.5s100.833 -230.834 77.5 -387.501l-6 -42c-25.333 -165.333 -88.5 -296.833 -189.5 -394.5s-222.167 -146.5 -363.5 -146.5
c-135.333 0 -240.833 50.833 -316.5 152.5s-101.5 231.167 -77.5 388.5zM139 520c-21.333 -140.667 -1.16895 -256.998 60.498 -348.998s157.5 -138 287.5 -138c121.333 0 228.333 47.667 321 143s149.334 210 170.001 344l6 42c20.667 137.333 0 252.666 -62 345.999
s-157 140 -285 140c-122 0 -229.667 -48.333 -323 -145s-149.666 -210.334 -168.999 -341.001zM1007 1351h-136l17 118h136zM537.997 1351h-137l17 118h137z" />
    <glyph glyph-name="divide" unicode="&#xf7;" horiz-adv-x="1159" 
d="M1094 686h-998l8 52h998zM704 1020h-96l18 122h96zM587 241h-96l18 122h96z" />
    <glyph glyph-name="oslash" unicode="&#xf8;" 
d="M91 562c24.667 164.667 87.6699 295.834 189.003 393.501s223 146.5 365 146.5c39.333 0 77.166 -5 113.499 -15s69.833 -24.333 100.5 -43l112 175h63l-132 -207c56 -48 96.333 -111 121 -189s29.667 -165 15 -261l-6 -42
c-25.333 -165.333 -88.5 -296.833 -189.5 -394.5s-222.167 -146.5 -363.5 -146.5c-38 0 -74 4.16699 -108 12.5s-65.333 21.166 -94 38.499l-111 -175h-63l130 204c-60.667 46.667 -104.334 110.167 -131.001 190.5s-32.334 170.5 -17.001 270.5zM139.003 520
c-14 -90 -10.502 -171 10.498 -243s57.833 -127.333 110.5 -166l6 -1l564 887c-26.667 16.667 -56.167 29.334 -88.5 38.001s-67.166 13 -104.499 13c-122 0 -229.667 -48.333 -323 -145s-149.666 -210.334 -168.999 -341.001zM984.001 562c12 84 8.49902 161 -10.501 231
s-52.167 125 -99.5 165l-6 1l-562 -884c25.333 -14 53 -24.5 83 -31.5s62.667 -10.5 98 -10.5c121.333 0 228.333 47.667 321 143s149.334 210 170.001 344z" />
    <glyph glyph-name="ugrave" unicode="&#xf9;" 
d="M825 0l19.999 185c-44 -66.667 -99.833 -117.667 -167.5 -153s-146.5 -53 -236.5 -53c-107.333 0 -187.666 40 -240.999 120s-67.333 202 -42 366l92 617h54l-93 -619c-23.333 -152.667 -13.333 -262.5 30 -329.5s112 -100.5 206 -100.5c107.333 0 196 27.833 266 83.5
s120.667 128.5 152 218.5l112 747h55l-96 -637h3c2 10.667 1 4.66699 -3 -18s-7 -38 -9 -46l-57 -381h-45zM739.999 1261h-82l-201 266h96z" />
    <glyph glyph-name="uacute" unicode="&#xfa;" 
d="M825 0l19.999 185c-44 -66.667 -99.833 -117.667 -167.5 -153s-146.5 -53 -236.5 -53c-107.333 0 -187.666 40 -240.999 120s-67.333 202 -42 366l92 617h54l-93 -619c-23.333 -152.667 -13.333 -262.5 30 -329.5s112 -100.5 206 -100.5c107.333 0 196 27.833 266 83.5
s120.667 128.5 152 218.5l112 747h55l-96 -637h3c2 10.667 1 4.66699 -3 -18s-7 -38 -9 -46l-57 -381h-45zM890.999 1519h77l2 -6l-268 -260h-66l-3 6z" />
    <glyph glyph-name="ucircumflex" unicode="&#xfb;" 
d="M825 0l19.999 185c-44 -66.667 -99.833 -117.667 -167.5 -153s-146.5 -53 -236.5 -53c-107.333 0 -187.666 40 -240.999 120s-67.333 202 -42 366l92 617h54l-93 -619c-23.333 -152.667 -13.333 -262.5 30 -329.5s112 -100.5 206 -100.5c107.333 0 196 27.833 266 83.5
s120.667 128.5 152 218.5l112 747h55l-96 -637h3c2 10.667 1 4.66699 -3 -18s-7 -38 -9 -46l-57 -381h-45zM944.999 1271l-2 -13h-70l-157 186l-211 -186h-66l2 17l241 206h80z" />
    <glyph glyph-name="udieresis" unicode="&#xfc;" 
d="M825 0l19.999 185c-44 -66.667 -99.833 -117.667 -167.5 -153s-146.5 -53 -236.5 -53c-107.333 0 -187.666 40 -240.999 120s-67.333 202 -42 366l92 617h54l-93 -619c-23.333 -152.667 -13.333 -262.5 30 -329.5s112 -100.5 206 -100.5c107.333 0 196 27.833 266 83.5
s120.667 128.5 152 218.5l112 747h55l-96 -637h3c2 10.667 1 4.66699 -3 -18s-7 -38 -9 -46l-57 -381h-45zM1002 1331h-136l17 118h136zM532.999 1331h-137l17 118h137z" />
    <glyph glyph-name="yacute" unicode="&#xfd;" horiz-adv-x="978" 
d="M407 196l23.998 -108h6l9 16l520 978h60l-670 -1262c-41.333 -76 -85 -137.833 -131 -185.5s-111.667 -71.5 -197 -71.5c-12 0 -25.5 1.16699 -40.5 3.5s-26.167 4.83301 -33.5 7.5l17 51c7.33301 -2 18 -4 32 -6s25 -3 33 -3c58.667 0 108.834 18.5 150.501 55.5
s80.834 89.833 117.501 158.5l91 176l-270 1076h59zM824.998 1519h77l2 -6l-268 -260h-66l-3 6z" />
    <glyph glyph-name="thorn" unicode="&#xfe;" 
d="M997 521c-26 -172.667 -81.668 -306.167 -167.001 -400.5s-192 -141.5 -320 -141.5c-80.667 0 -150 17 -208 51s-101.333 79.667 -130 137l-25 -167h-1l-62 -416h-54l106 713v8l66 440l2 6l50 331h1l72 478h54l-100 -666c46 64.667 102.333 115.5 169 152.5
s142 55.5 226 55.5c122 0 212.833 -51 272.5 -153s76.834 -237.667 51.501 -407zM944.999 542c22.667 155.333 11.168 278.5 -34.499 369.5s-126.167 136.5 -241.5 136.5c-97.333 0 -179.5 -25.833 -246.5 -77.5s-119.833 -114.5 -158.5 -188.5l-78 -519
c17.333 -70 53.833 -125.833 109.5 -167.5s130.167 -62.5 223.5 -62.5c109.333 0 201.666 44.5 276.999 133.5s124 207.167 146 354.5z" />
    <glyph glyph-name="ydieresis" unicode="&#xff;" horiz-adv-x="978" 
d="M407 196l23.998 -108h6l9 16l520 978h60l-670 -1262c-41.333 -76 -85 -137.833 -131 -185.5s-111.667 -71.5 -197 -71.5c-12 0 -25.5 1.16699 -40.5 3.5s-26.167 4.83301 -33.5 7.5l17 51c7.33301 -2 18 -4 32 -6s25 -3 33 -3c58.667 0 108.834 18.5 150.501 55.5
s80.834 89.833 117.501 158.5l91 176l-270 1076h59zM935.998 1331h-136l17 118h136zM466.998 1331h-137l17 118h137z" />
    <glyph glyph-name="Amacron" unicode="&#x100;" horiz-adv-x="1223" 
d="M952 435h-711l-228 -435h-59l762 1456h66l327 -1456h-59zM269 489h671l-182 815l-15 84l-6 1l-40 -85zM1089 1733h-627l8 53h627z" />
    <glyph glyph-name="amacron" unicode="&#x101;" horiz-adv-x="1081" 
d="M800 199c-46.667 -65.333 -109.999 -118.335 -189.999 -159.002s-172.667 -61 -278 -61c-96.667 0 -170.5 27.833 -221.5 83.5s-69.5 129.5 -55.5 221.5c13.333 94 67.166 170.833 161.499 230.5s206.5 89.5 336.5 89.5h308l24 158c14 93.333 -3.83301 164.333 -53.5 213
s-127.5 73 -233.5 73c-94 0 -175.333 -23.833 -244 -71.5s-108.667 -108.5 -120 -182.5l-45 2l-1 5c9.33301 86.667 52.5 158.5 129.5 215.5s173.167 85.5 288.5 85.5c112 0 199.5 -29.667 262.5 -89s86.5 -143.666 70.5 -252.999l-81 -542
c-6 -39.333 -9.66699 -76.666 -11 -111.999s0.666992 -70.666 6 -105.999h-60c-1.33301 56 -1.83301 93.667 -1.5 113s2.5 42.666 6.5 69.999zM340.001 31.998c103.333 0 196.5 23.832 279.5 71.499s148.5 114.834 196.5 201.501l37 244h-306c-108 0 -205.5 -26 -292.5 -78
s-135.833 -115.667 -146.5 -191c-11.333 -75.333 4 -135.5 46 -180.5s104 -67.5 186 -67.5zM963.001 1413h-627l8 53h627z" />
    <glyph glyph-name="Abreve" unicode="&#x102;" horiz-adv-x="1223" 
d="M952 435h-711l-228 -435h-59l762 1456h66l327 -1456h-59zM269 489h671l-182 815l-15 84l-6 1l-40 -85zM1066 1839l2 -6c-8 -74 -39.5 -132.833 -94.5 -176.5s-125.5 -65.5 -211.5 -65.5c-82.667 0 -146.5 22.667 -191.5 68s-60.833 103.333 -47.5 174l3 6h46
c-8.66699 -59.333 2.5 -106.166 33.5 -140.499s85.833 -51.5 164.5 -51.5c71.333 0 129 18.167 173 54.5s70 82.166 78 137.499h45z" />
    <glyph glyph-name="abreve" unicode="&#x103;" horiz-adv-x="1081" 
d="M800 199c-46.667 -65.333 -109.999 -118.335 -189.999 -159.002s-172.667 -61 -278 -61c-96.667 0 -170.5 27.833 -221.5 83.5s-69.5 129.5 -55.5 221.5c13.333 94 67.166 170.833 161.499 230.5s206.5 89.5 336.5 89.5h308l24 158c14 93.333 -3.83301 164.333 -53.5 213
s-127.5 73 -233.5 73c-94 0 -175.333 -23.833 -244 -71.5s-108.667 -108.5 -120 -182.5l-45 2l-1 5c9.33301 86.667 52.5 158.5 129.5 215.5s173.167 85.5 288.5 85.5c112 0 199.5 -29.667 262.5 -89s86.5 -143.666 70.5 -252.999l-81 -542
c-6 -39.333 -9.66699 -76.666 -11 -111.999s0.666992 -70.666 6 -105.999h-60c-1.33301 56 -1.83301 93.667 -1.5 113s2.5 42.666 6.5 69.999zM340.001 31.998c103.333 0 196.5 23.832 279.5 71.499s148.5 114.834 196.5 201.501l37 244h-306c-108 0 -205.5 -26 -292.5 -78
s-135.833 -115.667 -146.5 -191c-11.333 -75.333 4 -135.5 46 -180.5s104 -67.5 186 -67.5zM940.001 1519l2 -6c-8 -74 -39.5 -132.833 -94.5 -176.5s-125.5 -65.5 -211.5 -65.5c-82.667 0 -146.5 22.667 -191.5 68s-60.833 103.333 -47.5 174l3 6h46
c-8.66699 -59.333 2.5 -106.166 33.5 -140.499s85.833 -51.5 164.5 -51.5c71.333 0 129 18.167 173 54.5s70 82.166 78 137.499h45z" />
    <glyph glyph-name="Aogonek" unicode="&#x104;" horiz-adv-x="1223" 
d="M952 435h-711l-228 -435h-59l762 1456h66l327 -1456h-59zM269 489h671l-182 815l-15 84l-6 1l-40 -85zM1099 0c-57.333 -46 -100.5 -84.834 -129.5 -116.501s-46.167 -67.167 -51.5 -106.5c-3.33301 -14 -0.833008 -30.833 7.5 -50.5s29.833 -29.5 64.5 -29.5
c22 0 42.333 3.66699 61 11s36.667 16.333 54 27l9 -48c-18 -12 -37.833 -22.333 -59.5 -31s-46.167 -13 -73.5 -13c-39.333 0 -70.333 11.833 -93 35.5s-30.667 56.5 -24 98.5c5.33301 42 25 83.333 59 124s76.333 80.334 127 119.001z" />
    <glyph glyph-name="aogonek" unicode="&#x105;" horiz-adv-x="1081" 
d="M800 199c-46.667 -65.333 -109.999 -118.335 -189.999 -159.002s-172.667 -61 -278 -61c-96.667 0 -170.5 27.833 -221.5 83.5s-69.5 129.5 -55.5 221.5c13.333 94 67.166 170.833 161.499 230.5s206.5 89.5 336.5 89.5h308l24 158c14 93.333 -3.83301 164.333 -53.5 213
s-127.5 73 -233.5 73c-94 0 -175.333 -23.833 -244 -71.5s-108.667 -108.5 -120 -182.5l-45 2l-1 5c9.33301 86.667 52.5 158.5 129.5 215.5s173.167 85.5 288.5 85.5c112 0 199.5 -29.667 262.5 -89s86.5 -143.666 70.5 -252.999l-81 -542
c-6 -39.333 -9.66699 -76.666 -11 -111.999s0.666992 -70.666 6 -105.999h-60c-1.33301 56 -1.83301 93.667 -1.5 113s2.5 42.666 6.5 69.999zM340.001 31.998c103.333 0 196.5 23.832 279.5 71.499s148.5 114.834 196.5 201.501l37 244h-306c-108 0 -205.5 -26 -292.5 -78
s-135.833 -115.667 -146.5 -191c-11.333 -75.333 4 -135.5 46 -180.5s104 -67.5 186 -67.5zM843.001 -0.00292969c-57.333 -46 -100.5 -84.834 -129.5 -116.501s-46.167 -67.167 -51.5 -106.5c-3.33301 -14 -0.833008 -30.833 7.5 -50.5s29.833 -29.5 64.5 -29.5
c22 0 42.333 3.66699 61 11s36.667 16.333 54 27l9 -48c-18 -12 -37.833 -22.333 -59.5 -31s-46.167 -13 -73.5 -13c-39.333 0 -70.333 11.833 -93 35.5s-30.667 56.5 -24 98.5c5.33301 42 25 83.333 59 124s76.333 80.334 127 119.001z" />
    <glyph glyph-name="Cacute" unicode="&#x106;" horiz-adv-x="1327" 
d="M1158 446l1.99805 -6c-20.667 -155.333 -82.5 -271 -185.5 -347s-231.833 -114 -386.5 -114c-153.333 0 -270.666 59.333 -351.999 178s-107.666 272.667 -78.999 462l33 218c28.667 198 99.334 354.167 212.001 468.5s249.667 171.5 411 171.5
c146 0 260.833 -40 344.5 -120s113.5 -193 89.5 -339l-3 -6h-46c20 136 -5.16699 238.5 -75.5 307.5s-176.5 103.5 -318.5 103.5c-136.667 0 -257.667 -54 -363 -162s-171 -248.667 -197 -422l-33 -220c-28 -183.333 -6.83301 -326.833 63.5 -430.5
s177.5 -155.5 321.5 -155.5c135.333 0 250.166 34.667 344.499 104s151.833 172.333 172.5 309h45zM1044 1883h77l2 -6l-268 -260h-66l-3 6z" />
    <glyph glyph-name="cacute" unicode="&#x107;" horiz-adv-x="1039" 
d="M464 33c88.667 0 172.329 25.002 250.996 75.002s125.667 125 141 225h45l2 -6c-14 -110.667 -65.167 -196.334 -153.5 -257.001s-186.166 -91 -293.499 -91c-132.667 0 -232.167 50.167 -298.5 150.5s-87.166 230.5 -62.499 390.5l6 42
c24.667 167.333 83 299.166 175 395.499s207.333 144.5 346 144.5c108.667 0 197.834 -33.167 267.501 -99.5s94.167 -158.833 73.5 -277.5l-2 -5h-47c16 110 -5.5 192.167 -64.5 246.5s-137.5 81.5 -235.5 81.5c-122 0 -223.667 -46 -305 -138s-132.666 -208 -153.999 -348
l-6 -42c-22.667 -149.333 -8.16699 -267.833 43.5 -355.5s142.167 -131.5 271.5 -131.5zM860.995 1540h77l2 -6l-268 -260h-66l-3 6z" />
    <glyph glyph-name="Ccircumflex" unicode="&#x108;" horiz-adv-x="1327" 
d="M1158 446l1.99805 -6c-20.667 -155.333 -82.5 -271 -185.5 -347s-231.833 -114 -386.5 -114c-153.333 0 -270.666 59.333 -351.999 178s-107.666 272.667 -78.999 462l33 218c28.667 198 99.334 354.167 212.001 468.5s249.667 171.5 411 171.5
c146 0 260.833 -40 344.5 -120s113.5 -193 89.5 -339l-3 -6h-46c20 136 -5.16699 238.5 -75.5 307.5s-176.5 103.5 -318.5 103.5c-136.667 0 -257.667 -54 -363 -162s-171 -248.667 -197 -422l-33 -220c-28 -183.333 -6.83301 -326.833 63.5 -430.5
s177.5 -155.5 321.5 -155.5c135.333 0 250.166 34.667 344.499 104s151.833 172.333 172.5 309h45zM1098 1635l-2 -13h-70l-157 186l-211 -186h-66l2 17l241 206h80z" />
    <glyph glyph-name="ccircumflex" unicode="&#x109;" horiz-adv-x="1039" 
d="M464 33c88.667 0 172.329 25.002 250.996 75.002s125.667 125 141 225h45l2 -6c-14 -110.667 -65.167 -196.334 -153.5 -257.001s-186.166 -91 -293.499 -91c-132.667 0 -232.167 50.167 -298.5 150.5s-87.166 230.5 -62.499 390.5l6 42
c24.667 167.333 83 299.166 175 395.499s207.333 144.5 346 144.5c108.667 0 197.834 -33.167 267.501 -99.5s94.167 -158.833 73.5 -277.5l-2 -5h-47c16 110 -5.5 192.167 -64.5 246.5s-137.5 81.5 -235.5 81.5c-122 0 -223.667 -46 -305 -138s-132.666 -208 -153.999 -348
l-6 -42c-22.667 -149.333 -8.16699 -267.833 43.5 -355.5s142.167 -131.5 271.5 -131.5zM914.995 1292l-2 -13h-70l-157 186l-211 -186h-66l2 17l241 206h80z" />
    <glyph glyph-name="uni010A" unicode="&#x10a;" horiz-adv-x="1327" 
d="M1158 446l1.99805 -6c-20.667 -155.333 -82.5 -271 -185.5 -347s-231.833 -114 -386.5 -114c-153.333 0 -270.666 59.333 -351.999 178s-107.666 272.667 -78.999 462l33 218c28.667 198 99.334 354.167 212.001 468.5s249.667 171.5 411 171.5
c146 0 260.833 -40 344.5 -120s113.5 -193 89.5 -339l-3 -6h-46c20 136 -5.16699 238.5 -75.5 307.5s-176.5 103.5 -318.5 103.5c-136.667 0 -257.667 -54 -363 -162s-171 -248.667 -197 -422l-33 -220c-28 -183.333 -6.83301 -326.833 63.5 -430.5
s177.5 -155.5 321.5 -155.5c135.333 0 250.166 34.667 344.499 104s151.833 172.333 172.5 309h45zM897.998 1688h-95l20 138h95z" />
    <glyph glyph-name="uni010B" unicode="&#x10b;" horiz-adv-x="1039" 
d="M464 33c88.667 0 172.329 25.002 250.996 75.002s125.667 125 141 225h45l2 -6c-14 -110.667 -65.167 -196.334 -153.5 -257.001s-186.166 -91 -293.499 -91c-132.667 0 -232.167 50.167 -298.5 150.5s-87.166 230.5 -62.499 390.5l6 42
c24.667 167.333 83 299.166 175 395.499s207.333 144.5 346 144.5c108.667 0 197.834 -33.167 267.501 -99.5s94.167 -158.833 73.5 -277.5l-2 -5h-47c16 110 -5.5 192.167 -64.5 246.5s-137.5 81.5 -235.5 81.5c-122 0 -223.667 -46 -305 -138s-132.666 -208 -153.999 -348
l-6 -42c-22.667 -149.333 -8.16699 -267.833 43.5 -355.5s142.167 -131.5 271.5 -131.5zM714.995 1345h-95l20 138h95z" />
    <glyph glyph-name="Ccaron" unicode="&#x10c;" horiz-adv-x="1327" 
d="M1158 446l1.99805 -6c-20.667 -155.333 -82.5 -271 -185.5 -347s-231.833 -114 -386.5 -114c-153.333 0 -270.666 59.333 -351.999 178s-107.666 272.667 -78.999 462l33 218c28.667 198 99.334 354.167 212.001 468.5s249.667 171.5 411 171.5
c146 0 260.833 -40 344.5 -120s113.5 -193 89.5 -339l-3 -6h-46c20 136 -5.16699 238.5 -75.5 307.5s-176.5 103.5 -318.5 103.5c-136.667 0 -257.667 -54 -363 -162s-171 -248.667 -197 -422l-33 -220c-28 -183.333 -6.83301 -326.833 63.5 -430.5
s177.5 -155.5 321.5 -155.5c135.333 0 250.166 34.667 344.499 104s151.833 172.333 172.5 309h45zM845.998 1661l212 187h67l-2 -16l-243 -207h-79l-183 209l2 14h71z" />
    <glyph glyph-name="ccaron" unicode="&#x10d;" horiz-adv-x="1039" 
d="M464 33c88.667 0 172.329 25.002 250.996 75.002s125.667 125 141 225h45l2 -6c-14 -110.667 -65.167 -196.334 -153.5 -257.001s-186.166 -91 -293.499 -91c-132.667 0 -232.167 50.167 -298.5 150.5s-87.166 230.5 -62.499 390.5l6 42
c24.667 167.333 83 299.166 175 395.499s207.333 144.5 346 144.5c108.667 0 197.834 -33.167 267.501 -99.5s94.167 -158.833 73.5 -277.5l-2 -5h-47c16 110 -5.5 192.167 -64.5 246.5s-137.5 81.5 -235.5 81.5c-122 0 -223.667 -46 -305 -138s-132.666 -208 -153.999 -348
l-6 -42c-22.667 -149.333 -8.16699 -267.833 43.5 -355.5s142.167 -131.5 271.5 -131.5zM663.995 1318l212 187h67l-2 -16l-243 -207h-79l-183 209l2 14h71z" />
    <glyph glyph-name="Dcaron" unicode="&#x10e;" horiz-adv-x="1370" 
d="M120 0l218.002 1456h433c161.333 0 292.666 -60.5 393.999 -181.5s138.666 -273.5 111.999 -457.5l-27 -178c-29.333 -194 -110.5 -349 -243.5 -465s-284.167 -174 -453.5 -174h-433zM384.002 1402l-201.999 -1348h379c145.333 0 281.166 55.833 407.499 167.5
s202.166 250.834 227.499 417.501l27 181c25.333 173.333 -6.66699 313.666 -96 420.999s-210.666 161 -363.999 161h-379zM780.003 1640l212 187h67l-2 -16l-243 -207h-79l-183 209l2 14h71z" />
    <glyph glyph-name="dcaron" unicode="&#x10f;" 
d="M123 542c26.667 178 83 315.833 169 413.5s193.667 146.5 323 146.5c80.667 0 149.5 -19.333 206.5 -58s99.5 -91 127.5 -157l101 673h54l-122 -810c0 -1.33301 0.166992 -2.5 0.5 -3.5l0.5 -1.5l-66 -441l-3 -7l-44 -297h-52l24 167
c-45.333 -57.333 -101.833 -103 -169.5 -137s-143.5 -51 -227.5 -51c-122 0 -212.833 49.167 -272.5 147.5s-77.167 229.833 -52.5 394.5zM176 521c-23.333 -154.667 -12.167 -274.667 33.5 -360s126.5 -128 242.5 -128c90.667 0 171.167 21.667 241.5 65
s124.833 100.333 163.5 171l76 507c-14.667 76.667 -47 141.167 -97 193.5s-126.667 78.5 -230 78.5c-110 0 -203.167 -47.333 -279.5 -142s-125.5 -216 -147.5 -364zM1357 1453l-77 -186h-50l72 182l16 109h54z" />
    <glyph glyph-name="Dcroat" unicode="&#x110;" horiz-adv-x="1370" 
d="M120 0l107.002 713h-140l8 54h140l103 689h433c161.333 0 292.666 -60.5 393.999 -181.5s138.666 -273.5 111.999 -457.5l-27 -178c-29.333 -194 -110.5 -349 -243.5 -465s-284.167 -174 -453.5 -174h-433zM674.002 713h-392.999l-99 -659h379
c145.333 0 281.166 55.833 407.499 167.5s202.166 250.834 227.499 417.501l27 181c25.333 173.333 -6.66699 313.666 -96 420.999s-210.666 161 -363.999 161h-379l-95 -635h393z" />
    <glyph glyph-name="dcroat" unicode="&#x111;" 
d="M1223 1281h-161l-80 -531c0 -1.33301 0.166992 -2.5 0.5 -3.5l0.5 -1.5l-66 -441l-3 -7l-44 -297h-52l24 167c-45.333 -57.333 -101.833 -103 -169.5 -137s-143.5 -51 -227.5 -51c-122 0 -212.833 49.167 -272.5 147.5s-77.167 229.833 -52.5 394.5l3 21
c26.667 178 83 315.833 169 413.5s193.667 146.5 323 146.5c80.667 0 149.5 -19.333 206.5 -58s99.5 -91 127.5 -157l59 394h-372l8 54h372l34 225h54l-34 -225h161zM176 521c-23.333 -154.667 -12.167 -274.667 33.5 -360s126.5 -128 242.5 -128
c90.667 0 171.167 21.667 241.5 65s124.833 100.333 163.5 171l76 507c-14.667 76.667 -47 141.167 -97 193.5s-126.667 78.5 -230 78.5c-110 0 -203.167 -47.333 -279.5 -142s-125.5 -216 -147.5 -364z" />
    <glyph glyph-name="Emacron" unicode="&#x112;" horiz-adv-x="1129" 
d="M984 732h-701l-101 -678h802l-8 -54h-856l218 1456h856l-8 -54h-802l-93 -616h701zM1096 1733h-627l8 53h627z" />
    <glyph glyph-name="emacron" unicode="&#x113;" horiz-adv-x="1039" 
d="M468 -21c-122 0 -220.834 49.833 -296.501 149.5s-102.167 223.5 -79.5 371.5l10 64c24 162.667 86.5 293 187.5 391s218.167 147 351.5 147c116 0 204.667 -40 266 -120s82 -187.333 62 -322l-12 -83h-799c0 -2 -0.333008 -4.5 -1 -7.5s-1 -4.83301 -1 -5.5l-10 -64
c-20.667 -136.667 -0.5 -248.667 60.5 -336s150.833 -131 269.5 -131c62 0 125.5 12 190.5 36s118.833 56 161.5 96l22 -42c-43.333 -42 -97.166 -76.5 -161.499 -103.5s-137.833 -40.5 -220.5 -40.5zM632.999 1048c-107.333 0 -203.501 -39.332 -288.501 -117.999
s-141.5 -176.334 -169.5 -293.001l2 -6h734l5 33c16.667 116 0.333984 209 -48.999 279s-127.333 105 -234 105zM984.998 1412h-627l8 53h627z" />
    <glyph glyph-name="Ebreve" unicode="&#x114;" horiz-adv-x="1129" 
d="M984 732h-701l-101 -678h802l-8 -54h-856l218 1456h856l-8 -54h-802l-93 -616h701zM1073 1839l2 -6c-8 -74 -39.5 -132.833 -94.5 -176.5s-125.5 -65.5 -211.5 -65.5c-82.667 0 -146.5 22.667 -191.5 68s-60.833 103.333 -47.5 174l3 6h46
c-8.66699 -59.333 2.5 -106.166 33.5 -140.499s85.833 -51.5 164.5 -51.5c71.333 0 129 18.167 173 54.5s70 82.166 78 137.499h45z" />
    <glyph glyph-name="ebreve" unicode="&#x115;" horiz-adv-x="1039" 
d="M468 -21c-122 0 -220.834 49.833 -296.501 149.5s-102.167 223.5 -79.5 371.5l10 64c24 162.667 86.5 293 187.5 391s218.167 147 351.5 147c116 0 204.667 -40 266 -120s82 -187.333 62 -322l-12 -83h-799c0 -2 -0.333008 -4.5 -1 -7.5s-1 -4.83301 -1 -5.5l-10 -64
c-20.667 -136.667 -0.5 -248.667 60.5 -336s150.833 -131 269.5 -131c62 0 125.5 12 190.5 36s118.833 56 161.5 96l22 -42c-43.333 -42 -97.166 -76.5 -161.499 -103.5s-137.833 -40.5 -220.5 -40.5zM632.999 1048c-107.333 0 -203.501 -39.332 -288.501 -117.999
s-141.5 -176.334 -169.5 -293.001l2 -6h734l5 33c16.667 116 0.333984 209 -48.999 279s-127.333 105 -234 105zM962.998 1518l2 -6c-8 -74 -39.5 -132.833 -94.5 -176.5s-125.5 -65.5 -211.5 -65.5c-82.667 0 -146.5 22.667 -191.5 68s-60.833 103.333 -47.5 174l3 6h46
c-8.66699 -59.333 2.5 -106.166 33.5 -140.499s85.833 -51.5 164.5 -51.5c71.333 0 129 18.167 173 54.5s70 82.166 78 137.499h45z" />
    <glyph glyph-name="Edotaccent" unicode="&#x116;" horiz-adv-x="1129" 
d="M984 732h-701l-101 -678h802l-8 -54h-856l218 1456h856l-8 -54h-802l-93 -616h701zM835 1667h-95l20 138h95z" />
    <glyph glyph-name="edotaccent" unicode="&#x117;" horiz-adv-x="1039" 
d="M468 -21c-122 0 -220.834 49.833 -296.501 149.5s-102.167 223.5 -79.5 371.5l10 64c24 162.667 86.5 293 187.5 391s218.167 147 351.5 147c116 0 204.667 -40 266 -120s82 -187.333 62 -322l-12 -83h-799c0 -2 -0.333008 -4.5 -1 -7.5s-1 -4.83301 -1 -5.5l-10 -64
c-20.667 -136.667 -0.5 -248.667 60.5 -336s150.833 -131 269.5 -131c62 0 125.5 12 190.5 36s118.833 56 161.5 96l22 -42c-43.333 -42 -97.166 -76.5 -161.499 -103.5s-137.833 -40.5 -220.5 -40.5zM632.999 1048c-107.333 0 -203.501 -39.332 -288.501 -117.999
s-141.5 -176.334 -169.5 -293.001l2 -6h734l5 33c16.667 116 0.333984 209 -48.999 279s-127.333 105 -234 105zM724.998 1346h-95l20 138h95z" />
    <glyph glyph-name="Eogonek" unicode="&#x118;" horiz-adv-x="1129" 
d="M984 732h-701l-101 -678h802l-8 -54h-856l218 1456h856l-8 -54h-802l-93 -616h701zM554 0c-57.333 -46 -100.5 -84.834 -129.5 -116.501s-46.167 -67.167 -51.5 -106.5c-3.33301 -14 -0.833008 -30.833 7.5 -50.5s29.833 -29.5 64.5 -29.5c22 0 42.333 3.66699 61 11
s36.667 16.333 54 27l9 -48c-18 -12 -37.833 -22.333 -59.5 -31s-46.167 -13 -73.5 -13c-39.333 0 -70.333 11.833 -93 35.5s-30.667 56.5 -24 98.5c5.33301 42 25 83.333 59 124s76.333 80.334 127 119.001z" />
    <glyph glyph-name="eogonek" unicode="&#x119;" horiz-adv-x="1039" 
d="M468 -21c-122 0 -220.834 49.833 -296.501 149.5s-102.167 223.5 -79.5 371.5l10 64c24 162.667 86.5 293 187.5 391s218.167 147 351.5 147c116 0 204.667 -40 266 -120s82 -187.333 62 -322l-12 -83h-799c0 -2 -0.333008 -4.5 -1 -7.5s-1 -4.83301 -1 -5.5l-10 -64
c-20.667 -136.667 -0.5 -248.667 60.5 -336s150.833 -131 269.5 -131c62 0 125.5 12 190.5 36s118.833 56 161.5 96l22 -42c-43.333 -42 -97.166 -76.5 -161.499 -103.5s-137.833 -40.5 -220.5 -40.5zM632.999 1048c-107.333 0 -203.501 -39.332 -288.501 -117.999
s-141.5 -176.334 -169.5 -293.001l2 -6h734l5 33c16.667 116 0.333984 209 -48.999 279s-127.333 105 -234 105zM740.998 58.001c-57.333 -46 -100.5 -84.834 -129.5 -116.501s-46.167 -67.167 -51.5 -106.5c-3.33301 -14 -0.833008 -30.833 7.5 -50.5
s29.833 -29.5 64.5 -29.5c22 0 42.333 3.66699 61 11s36.667 16.333 54 27l9 -48c-18 -12 -37.833 -22.333 -59.5 -31s-46.167 -13 -73.5 -13c-39.333 0 -70.333 11.833 -93 35.5s-30.667 56.5 -24 98.5c5.33301 42 25 83.333 59 124s76.333 80.334 127 119.001z" />
    <glyph glyph-name="Ecaron" unicode="&#x11a;" horiz-adv-x="1129" 
d="M984 732h-701l-101 -678h802l-8 -54h-856l218 1456h856l-8 -54h-802l-93 -616h701zM784 1640l212 187h67l-2 -16l-243 -207h-79l-183 209l2 14h71z" />
    <glyph glyph-name="ecaron" unicode="&#x11b;" horiz-adv-x="1039" 
d="M468 -21c-122 0 -220.834 49.833 -296.501 149.5s-102.167 223.5 -79.5 371.5l10 64c24 162.667 86.5 293 187.5 391s218.167 147 351.5 147c116 0 204.667 -40 266 -120s82 -187.333 62 -322l-12 -83h-799c0 -2 -0.333008 -4.5 -1 -7.5s-1 -4.83301 -1 -5.5l-10 -64
c-20.667 -136.667 -0.5 -248.667 60.5 -336s150.833 -131 269.5 -131c62 0 125.5 12 190.5 36s118.833 56 161.5 96l22 -42c-43.333 -42 -97.166 -76.5 -161.499 -103.5s-137.833 -40.5 -220.5 -40.5zM632.999 1048c-107.333 0 -203.501 -39.332 -288.501 -117.999
s-141.5 -176.334 -169.5 -293.001l2 -6h734l5 33c16.667 116 0.333984 209 -48.999 279s-127.333 105 -234 105zM673.998 1319l212 187h67l-2 -16l-243 -207h-79l-183 209l2 14h71z" />
    <glyph glyph-name="Gcircumflex" unicode="&#x11c;" horiz-adv-x="1429" 
d="M1175 196c-38.667 -52 -104.832 -101.167 -198.499 -147.5s-203.834 -69.5 -330.501 -69.5c-160 0 -284.667 59.833 -374 179.5s-119.666 273.5 -90.999 461.5l36 238c28 190 100.333 340.667 217 452s256.667 167 420 167c149.333 0 265.5 -40.5 348.5 -121.5
s113.5 -183.167 91.5 -306.5l-2 -6h-46c17.333 115.333 -8.33398 207.5 -77.001 276.5s-176.667 103.5 -324 103.5c-142 0 -267.167 -53 -375.5 -159s-174.5 -240.667 -198.5 -404l-36 -240c-27.333 -180 -3 -322.833 73 -428.5s191.333 -158.5 346 -158.5
c111.333 0 209.333 19.167 294 57.5s143.667 81.833 177 130.5l62 414h-445l9 55h499zM1089 1635l-2 -13h-70l-157 186l-211 -186h-66l2 17l241 206h80z" />
    <glyph glyph-name="gcircumflex" unicode="&#x11d;" 
d="M123 542c26.667 178 82.998 315.834 168.998 413.501s193.667 146.5 323 146.5c80.667 0 149.5 -19.333 206.5 -58s99.5 -91.334 127.5 -158.001l37 196h46l-50 -332c0 -0.666992 0.166992 -1.5 0.5 -2.5s0.5 -1.83301 0.5 -2.5l-66 -441l-3 -8l-45 -302
c-22 -142.667 -74 -250.167 -156 -322.5s-188 -108.5 -318 -108.5c-50.667 0 -104.167 5.5 -160.5 16.5s-104.166 26.167 -143.499 45.5l24 54c46 -21.333 90.667 -37.166 134 -47.499s94 -15.5 152 -15.5c112 0 204.333 33 277 99s118 159 136 279l25 171
c-45.333 -56.667 -101.666 -101.834 -168.999 -135.501s-142.333 -50.5 -225 -50.5c-122 0 -212.833 49.167 -272.5 147.5s-77.167 229.833 -52.5 394.5zM174.998 521.001c-23.333 -154.667 -12 -274.667 34 -360s127 -128 243 -128c89.333 0 169 21.167 239 63.5
s124.333 98.5 163 168.5l78 514c-14.667 76 -47 139.833 -97 191.5s-126.333 77.5 -229 77.5c-110 0 -203.333 -47.333 -280 -142s-126 -216 -148 -364zM934.998 1292l-2 -13h-70l-157 186l-211 -186h-66l2 17l241 206h80z" />
    <glyph glyph-name="Gbreve" unicode="&#x11e;" horiz-adv-x="1429" 
d="M1175 196c-38.667 -52 -104.832 -101.167 -198.499 -147.5s-203.834 -69.5 -330.501 -69.5c-160 0 -284.667 59.833 -374 179.5s-119.666 273.5 -90.999 461.5l36 238c28 190 100.333 340.667 217 452s256.667 167 420 167c149.333 0 265.5 -40.5 348.5 -121.5
s113.5 -183.167 91.5 -306.5l-2 -6h-46c17.333 115.333 -8.33398 207.5 -77.001 276.5s-176.667 103.5 -324 103.5c-142 0 -267.167 -53 -375.5 -159s-174.5 -240.667 -198.5 -404l-36 -240c-27.333 -180 -3 -322.833 73 -428.5s191.333 -158.5 346 -158.5
c111.333 0 209.333 19.167 294 57.5s143.667 81.833 177 130.5l62 414h-445l9 55h499zM1127 1860l2 -6c-8 -74 -39.5 -132.833 -94.5 -176.5s-125.5 -65.5 -211.5 -65.5c-82.667 0 -146.5 22.667 -191.5 68s-60.833 103.333 -47.5 174l3 6h46
c-8.66699 -59.333 2.5 -106.166 33.5 -140.499s85.833 -51.5 164.5 -51.5c71.333 0 129 18.167 173 54.5s70 82.166 78 137.499h45z" />
    <glyph glyph-name="gbreve" unicode="&#x11f;" 
d="M123 542c26.667 178 82.998 315.834 168.998 413.501s193.667 146.5 323 146.5c80.667 0 149.5 -19.333 206.5 -58s99.5 -91.334 127.5 -158.001l37 196h46l-50 -332c0 -0.666992 0.166992 -1.5 0.5 -2.5s0.5 -1.83301 0.5 -2.5l-66 -441l-3 -8l-45 -302
c-22 -142.667 -74 -250.167 -156 -322.5s-188 -108.5 -318 -108.5c-50.667 0 -104.167 5.5 -160.5 16.5s-104.166 26.167 -143.499 45.5l24 54c46 -21.333 90.667 -37.166 134 -47.499s94 -15.5 152 -15.5c112 0 204.333 33 277 99s118 159 136 279l25 171
c-45.333 -56.667 -101.666 -101.834 -168.999 -135.501s-142.333 -50.5 -225 -50.5c-122 0 -212.833 49.167 -272.5 147.5s-77.167 229.833 -52.5 394.5zM174.998 521.001c-23.333 -154.667 -12 -274.667 34 -360s127 -128 243 -128c89.333 0 169 21.167 239 63.5
s124.333 98.5 163 168.5l78 514c-14.667 76 -47 139.833 -97 191.5s-126.333 77.5 -229 77.5c-110 0 -203.333 -47.333 -280 -142s-126 -216 -148 -364zM972.998 1517l2 -6c-8 -74 -39.5 -132.833 -94.5 -176.5s-125.5 -65.5 -211.5 -65.5
c-82.667 0 -146.5 22.667 -191.5 68s-60.833 103.333 -47.5 174l3 6h46c-8.66699 -59.333 2.5 -106.166 33.5 -140.499s85.833 -51.5 164.5 -51.5c71.333 0 129 18.167 173 54.5s70 82.166 78 137.499h45z" />
    <glyph glyph-name="uni0120" unicode="&#x120;" horiz-adv-x="1429" 
d="M1175 196c-38.667 -52 -104.832 -101.167 -198.499 -147.5s-203.834 -69.5 -330.501 -69.5c-160 0 -284.667 59.833 -374 179.5s-119.666 273.5 -90.999 461.5l36 238c28 190 100.333 340.667 217 452s256.667 167 420 167c149.333 0 265.5 -40.5 348.5 -121.5
s113.5 -183.167 91.5 -306.5l-2 -6h-46c17.333 115.333 -8.33398 207.5 -77.001 276.5s-176.667 103.5 -324 103.5c-142 0 -267.167 -53 -375.5 -159s-174.5 -240.667 -198.5 -404l-36 -240c-27.333 -180 -3 -322.833 73 -428.5s191.333 -158.5 346 -158.5
c111.333 0 209.333 19.167 294 57.5s143.667 81.833 177 130.5l62 414h-445l9 55h499zM889.002 1688h-95l20 138h95z" />
    <glyph glyph-name="uni0121" unicode="&#x121;" 
d="M123 542c26.667 178 82.998 315.834 168.998 413.501s193.667 146.5 323 146.5c80.667 0 149.5 -19.333 206.5 -58s99.5 -91.334 127.5 -158.001l37 196h46l-50 -332c0 -0.666992 0.166992 -1.5 0.5 -2.5s0.5 -1.83301 0.5 -2.5l-66 -441l-3 -8l-45 -302
c-22 -142.667 -74 -250.167 -156 -322.5s-188 -108.5 -318 -108.5c-50.667 0 -104.167 5.5 -160.5 16.5s-104.166 26.167 -143.499 45.5l24 54c46 -21.333 90.667 -37.166 134 -47.499s94 -15.5 152 -15.5c112 0 204.333 33 277 99s118 159 136 279l25 171
c-45.333 -56.667 -101.666 -101.834 -168.999 -135.501s-142.333 -50.5 -225 -50.5c-122 0 -212.833 49.167 -272.5 147.5s-77.167 229.833 -52.5 394.5zM174.998 521.001c-23.333 -154.667 -12 -274.667 34 -360s127 -128 243 -128c89.333 0 169 21.167 239 63.5
s124.333 98.5 163 168.5l78 514c-14.667 76 -47 139.833 -97 191.5s-126.333 77.5 -229 77.5c-110 0 -203.333 -47.333 -280 -142s-126 -216 -148 -364zM734.998 1345h-95l20 138h95z" />
    <glyph glyph-name="Gcommaaccent" unicode="&#x122;" horiz-adv-x="1429" 
d="M1175 196c-38.667 -52 -104.832 -101.167 -198.499 -147.5s-203.834 -69.5 -330.501 -69.5c-160 0 -284.667 59.833 -374 179.5s-119.666 273.5 -90.999 461.5l36 238c28 190 100.333 340.667 217 452s256.667 167 420 167c149.333 0 265.5 -40.5 348.5 -121.5
s113.5 -183.167 91.5 -306.5l-2 -6h-46c17.333 115.333 -8.33398 207.5 -77.001 276.5s-176.667 103.5 -324 103.5c-142 0 -267.167 -53 -375.5 -159s-174.5 -240.667 -198.5 -404l-36 -240c-27.333 -180 -3 -322.833 73 -428.5s191.333 -158.5 346 -158.5
c111.333 0 209.333 19.167 294 57.5s143.667 81.833 177 130.5l62 414h-445l9 55h499zM638.002 -260l-77 -186h-50l72 182l16 109h54z" />
    <glyph glyph-name="gcommaaccent" unicode="&#x123;" 
d="M123 542c26.667 178 82.998 315.834 168.998 413.501s193.667 146.5 323 146.5c80.667 0 149.5 -19.333 206.5 -58s99.5 -91.334 127.5 -158.001l37 196h46l-50 -332c0 -0.666992 0.166992 -1.5 0.5 -2.5s0.5 -1.83301 0.5 -2.5l-66 -441l-3 -8l-45 -302
c-22 -142.667 -74 -250.167 -156 -322.5s-188 -108.5 -318 -108.5c-50.667 0 -104.167 5.5 -160.5 16.5s-104.166 26.167 -143.499 45.5l24 54c46 -21.333 90.667 -37.166 134 -47.499s94 -15.5 152 -15.5c112 0 204.333 33 277 99s118 159 136 279l25 171
c-45.333 -56.667 -101.666 -101.834 -168.999 -135.501s-142.333 -50.5 -225 -50.5c-122 0 -212.833 49.167 -272.5 147.5s-77.167 229.833 -52.5 394.5zM174.998 521.001c-23.333 -154.667 -12 -274.667 34 -360s127 -128 243 -128c89.333 0 169 21.167 239 63.5
s124.333 98.5 163 168.5l78 514c-14.667 76 -47 139.833 -97 191.5s-126.333 77.5 -229 77.5c-110 0 -203.333 -47.333 -280 -142s-126 -216 -148 -364zM669.998 1402l87 188h50l-83 -184l-19 -132h-54z" />
    <glyph glyph-name="Hcircumflex" unicode="&#x124;" horiz-adv-x="1438" 
d="M1158 0h-54l104 695h-930l-104 -695h-54l218 1456h54l-106 -707h930l106 707h54zM1132 1614l-2 -13h-70l-157 186l-211 -186h-66l2 17l241 206h80z" />
    <glyph glyph-name="hcircumflex" unicode="&#x125;" 
d="M275 863c45.333 77.333 103.166 136.499 173.499 177.499s152.5 61.5 246.5 61.5c108.667 0 187.834 -36.167 237.501 -108.5s63.167 -184.166 40.5 -335.499l-99 -658h-55l99 660c22 148 11.5 249.667 -31.5 305s-109.167 83 -198.5 83
c-110.667 0 -203.167 -34.667 -277.5 -104s-128.5 -157 -162.5 -263l-102 -681h-54l83 554h-2c1.33301 10.667 3 21.5 5 32.5s4.33301 21.833 7 32.5l141 941h54zM889 1613l-2 -13h-70l-157 186l-211 -186h-66l2 17l241 206h80z" />
    <glyph glyph-name="Hbar" unicode="&#x126;" horiz-adv-x="1389" 
d="M1279 1081h155l-8 -53h-155l-154 -1028h-54l104 695h-930l-104 -695h-54l154 1028h-139l8 53h139l56 375h54l-56 -375h930l56 375h54zM245 749h930l42 279h-930z" />
    <glyph glyph-name="hbar" unicode="&#x127;" 
d="M764 1281l-426 -0.000976562l-63 -418c45.333 77.333 103.166 136.5 173.499 177.5s152.5 61.5 246.5 61.5c108.667 0 187.834 -36.167 237.501 -108.5s63.167 -184.166 40.5 -335.499l-99 -658h-55l99 660c22 148 11.5 249.667 -31.5 305s-109.167 83 -198.5 83
c-110.667 0 -203.167 -34.667 -277.5 -104s-128.5 -157 -162.5 -263l-102 -681h-54l83 554h-2c1.33301 10.667 3 21.5 5 32.5s4.33301 21.833 7 32.5l99 662h-107l8 54h107l34 225h54l-34 -225h426z" />
    <glyph glyph-name="Itilde" unicode="&#x128;" horiz-adv-x="534" 
d="M214 0h-54l218 1456h54zM746 1801c-8 -57.333 -31.167 -102.666 -69.5 -135.999s-82.5 -50 -132.5 -50c-47.333 0 -94.666 20.833 -141.999 62.5s-89.666 62.5 -126.999 62.5c-34 0 -64.667 -12.5 -92 -37.5s-43.333 -57.5 -48 -97.5l-54 10
c7.33301 56 29.666 99.833 66.999 131.5s82 47.5 134 47.5c45.333 0 92.666 -20.667 141.999 -62s92 -62 128 -62c32 0 61.833 13.167 89.5 39.5s44.5 60.166 50.5 101.499z" />
    <glyph glyph-name="itilde" unicode="&#x129;" horiz-adv-x="406" 
d="M155 0h-54l162 1082h54zM636 1459c-8 -57.333 -31.167 -102.666 -69.5 -135.999s-82.5 -50 -132.5 -50c-47.333 0 -94.666 20.833 -141.999 62.5s-89.666 62.5 -126.999 62.5c-34 0 -64.667 -12.5 -92 -37.5s-43.333 -57.5 -48 -97.5l-54 10
c7.33301 56 29.666 99.833 66.999 131.5s82 47.5 134 47.5c45.333 0 92.666 -20.667 141.999 -62s92 -62 128 -62c32 0 61.833 13.167 89.5 39.5s44.5 60.166 50.5 101.499z" />
    <glyph glyph-name="Imacron" unicode="&#x12a;" horiz-adv-x="534" 
d="M214 0h-54l218 1456h54zM745 1733h-627l8 53h627z" />
    <glyph glyph-name="imacron" unicode="&#x12b;" horiz-adv-x="406" 
d="M155 0h-54l162 1082h54zM635 1391h-627l8 53h627z" />
    <glyph glyph-name="Ibreve" unicode="&#x12c;" horiz-adv-x="534" 
d="M214 0h-54l218 1456h54zM723 1839l2 -6c-8 -74 -39.5 -132.833 -94.5 -176.5s-125.5 -65.5 -211.5 -65.5c-82.667 0 -146.5 22.667 -191.5 68s-60.833 103.333 -47.5 174l3 6h46c-8.66699 -59.333 2.5 -106.166 33.5 -140.499s85.833 -51.5 164.5 -51.5
c71.333 0 129 18.167 173 54.5s70 82.166 78 137.499h45z" />
    <glyph glyph-name="ibreve" unicode="&#x12d;" horiz-adv-x="406" 
d="M155 0h-54l162 1082h54zM613 1496l2 -6c-8 -74 -39.5 -132.833 -94.5 -176.5s-125.5 -65.5 -211.5 -65.5c-82.667 0 -146.5 22.667 -191.5 68s-60.833 103.333 -47.5 174l3 6h46c-8.66699 -59.333 2.5 -106.166 33.5 -140.499s85.833 -51.5 164.5 -51.5
c71.333 0 129 18.167 173 54.5s70 82.166 78 137.499h45z" />
    <glyph glyph-name="Iogonek" unicode="&#x12e;" horiz-adv-x="534" 
d="M214 0h-54l218 1456h54zM205 0c-57.333 -46 -100.5 -84.834 -129.5 -116.501s-46.167 -67.167 -51.5 -106.5c-3.33301 -14 -0.833008 -30.833 7.5 -50.5s29.833 -29.5 64.5 -29.5c22 0 42.333 3.66699 61 11s36.667 16.333 54 27l9 -48
c-18 -12 -37.833 -22.333 -59.5 -31s-46.167 -13 -73.5 -13c-39.333 0 -70.333 11.833 -93 35.5s-30.667 56.5 -24 98.5c5.33301 42 25 83.333 59 124s76.333 80.334 127 119.001z" />
    <glyph glyph-name="iogonek" unicode="&#x12f;" horiz-adv-x="422" 
d="M159 0h-54l162 1082h54zM372 1422h-54l21 138h54zM149 0c-57.333 -46 -100.5 -84.834 -129.5 -116.501s-46.167 -67.167 -51.5 -106.5c-3.33301 -14 -0.833008 -30.833 7.5 -50.5s29.833 -29.5 64.5 -29.5c22 0 42.333 3.66699 61 11s36.667 16.333 54 27l9 -48
c-18 -12 -37.833 -22.333 -59.5 -31s-46.167 -13 -73.5 -13c-39.333 0 -70.333 11.833 -93 35.5s-30.667 56.5 -24 98.5c5.33301 42 25 83.333 59 124s76.333 80.334 127 119.001z" />
    <glyph glyph-name="Idotaccent" unicode="&#x130;" horiz-adv-x="534" 
d="M214 0h-54l218 1456h54zM484 1667h-95l20 138h95z" />
    <glyph glyph-name="dotlessi" unicode="&#x131;" horiz-adv-x="406" 
d="M155 0h-54l162 1082h54z" />
    <glyph glyph-name="IJ" unicode="&#x132;" horiz-adv-x="1656" 
d="M214 0h-54l218 1456h54zM1545 1456l54.002 -0.000976562l-155 -1034c-21.333 -140.667 -75.333 -249.667 -162 -327s-190.667 -116 -312 -116c-128.667 0 -227.334 35.833 -296.001 107.5s-91.334 174.834 -68.001 309.501l2 5h47
c-20 -130.667 -2.66699 -224.667 52 -282s145 -86 271 -86c98.667 0 187.5 35.333 266.5 106s127.5 165 145.5 283z" />
    <glyph glyph-name="ij" unicode="&#x133;" horiz-adv-x="867" 
d="M159 0h-54l162 1082h54zM372 1422h-54l21 138h54zM744 1082l-175.001 -1171c-18 -115.333 -56 -202.166 -114 -260.499s-132.667 -87.5 -224 -87.5c-18.667 0 -36.667 1.66699 -54 5s-35.666 8.33301 -54.999 15l21 52c12 -4 27 -8 45 -12s35.333 -6 52 -6
c71.333 0 131.5 26 180.5 78s80.5 124 94.5 216l175 1171h54zM789.999 1426h-54l20 134h54z" />
    <glyph glyph-name="Jcircumflex" unicode="&#x134;" horiz-adv-x="1122" 
d="M1011 1456l54.002 -0.000976562l-155 -1034c-21.333 -140.667 -75.333 -249.667 -162 -327s-190.667 -116 -312 -116c-128.667 0 -227.334 35.833 -296.001 107.5s-91.334 174.834 -68.001 309.501l2 5h47c-20 -130.667 -2.66699 -224.667 52 -282s145 -86 271 -86
c98.667 0 187.5 35.333 266.5 106s127.5 165 145.5 283zM1311 1584l-2 -13h-70l-157 186l-211 -186h-66l2 17l241 206h80z" />
    <glyph glyph-name="jcircumflex" unicode="&#x135;" horiz-adv-x="422" 
d="M322 1082l-175.002 -1171c-18 -115.333 -56 -202.166 -114 -260.499s-132.667 -87.5 -224 -87.5c-18.667 0 -36.667 1.66699 -54 5s-35.666 8.33301 -54.999 15l21 52c12 -4 27 -8 45 -12s35.333 -6 52 -6c71.333 0 131.333 25.833 180 77.5
s80.334 123.834 95.001 216.501l175 1171h54zM571.998 1252l-2 -13h-70l-157 186l-211 -186h-66l2 17l241 206h80z" />
    <glyph glyph-name="Kcommaaccent" unicode="&#x136;" horiz-adv-x="1227" 
d="M473 721h-210l-108 -721h-54l218 1456h54l-102 -682h212l682 682h68l2 -6l-708 -710l531 -740h-68zM533 -252l-77 -186h-50l72 182l16 109h54z" />
    <glyph glyph-name="kcommaaccent" unicode="&#x137;" horiz-adv-x="969" 
d="M377 553h-148l-83 -553h-54l234 1560h54l-143 -953h127l563 475h62l2 -6l-569 -487l451 -589h-70zM447 -250l-77 -186h-50l72 182l16 109h54z" />
    <glyph glyph-name="kgreenlandic" unicode="&#x138;" horiz-adv-x="1084" 
d="M393 529h-168l-79 -529h-55l162 1082h55l-75 -500h178l564 500h61l2 -6l-581 -523l483 -548l-2 -5h-64z" />
    <glyph glyph-name="Lacute" unicode="&#x139;" horiz-adv-x="1130" 
d="M183 54h787l-8 -54h-842l218 1456h55zM585 1799h77l2 -6l-268 -260h-66l-3 6z" />
    <glyph glyph-name="lacute" unicode="&#x13a;" horiz-adv-x="422" 
d="M159 0h-54l234 1560h54zM578 1874h77l2 -6l-268 -260h-66l-3 6z" />
    <glyph glyph-name="Lcommaaccent" unicode="&#x13b;" horiz-adv-x="1130" 
d="M183 54h787l-8 -54h-842l218 1456h55zM536 -250l-77 -186h-50l72 182l16 109h54z" />
    <glyph glyph-name="lcommaaccent" unicode="&#x13c;" horiz-adv-x="422" 
d="M159 0h-54l234 1560h54zM126 -250l-77 -186h-50l72 182l16 109h54z" />
    <glyph glyph-name="Lcaron" unicode="&#x13d;" horiz-adv-x="1130" 
d="M183 54h787l-8 -54h-842l218 1456h55zM786 1350l-77 -186h-50l72 182l16 109h54z" />
    <glyph glyph-name="lcaron" unicode="&#x13e;" horiz-adv-x="422" 
d="M159 0h-54l234 1560h54zM635 1453l-77 -186h-50l72 182l16 109h54z" />
    <glyph glyph-name="Ldot" unicode="&#x13f;" horiz-adv-x="1130" 
d="M183 54h787l-8 -54h-842l218 1456h55zM722 687h-95l20 138h95z" />
    <glyph glyph-name="ldot" unicode="&#x140;" horiz-adv-x="422" 
d="M159 0h-54l234 1560h54zM473 726h-95l20 138h95z" />
    <glyph glyph-name="Lslash" unicode="&#x141;" horiz-adv-x="1061" 
d="M285 791l368 111l-8 -57l-368 -112l-102 -679h787l-8 -54h-842l107 716l-192 -58l8 57l192 58l103 683h55z" />
    <glyph glyph-name="lslash" unicode="&#x142;" horiz-adv-x="505" 
d="M333 850l214 80l-9 -59l-214 -80l-118 -791h-54l115 769l-227 -85l8 59l228 85l110 732h54z" />
    <glyph glyph-name="Nacute" unicode="&#x143;" horiz-adv-x="1449" 
d="M1169 0h-54l-731 1356l-6 -1l-203 -1355h-55l218 1456h55l731 -1354l6 1l203 1353h54zM1089 1862h77l2 -6l-268 -260h-66l-3 6z" />
    <glyph glyph-name="nacute" unicode="&#x144;" 
d="M276 871c44 74.667 100.169 131.833 168.502 171.5s148.5 59.5 240.5 59.5c113.333 0 195 -37.667 245 -113s63.333 -192.666 40 -351.999l-96 -637h-54l96 639c23.333 156 13.166 263.167 -30.501 321.5s-112.834 87.5 -207.501 87.5
c-109.333 0 -199.666 -34 -270.999 -102s-124 -154.333 -158 -259l-103 -687h-54l83 554h-3c2 13.333 4.16699 26.666 6.5 39.999s5.16602 26.333 8.49902 39l67 449h46zM892.002 1540h77l2 -6l-268 -260h-66l-3 6z" />
    <glyph glyph-name="Ncommaaccent" unicode="&#x145;" horiz-adv-x="1449" 
d="M1169 0h-54l-731 1356l-6 -1l-203 -1355h-55l218 1456h55l731 -1354l6 1l203 1353h54zM637 -250l-77 -186h-50l72 182l16 109h54z" />
    <glyph glyph-name="ncommaaccent" unicode="&#x146;" 
d="M276 871c44 74.667 100.169 131.833 168.502 171.5s148.5 59.5 240.5 59.5c113.333 0 195 -37.667 245 -113s63.333 -192.666 40 -351.999l-96 -637h-54l96 639c23.333 156 13.166 263.167 -30.501 321.5s-112.834 87.5 -207.501 87.5
c-109.333 0 -199.666 -34 -270.999 -102s-124 -154.333 -158 -259l-103 -687h-54l83 554h-3c2 13.333 4.16699 26.666 6.5 39.999s5.16602 26.333 8.49902 39l67 449h46zM489.002 -250.001l-77 -186h-50l72 182l16 109h54z" />
    <glyph glyph-name="Ncaron" unicode="&#x147;" horiz-adv-x="1449" 
d="M1169 0h-54l-731 1356l-6 -1l-203 -1355h-55l218 1456h55l731 -1354l6 1l203 1353h54zM891 1640l212 187h67l-2 -16l-243 -207h-79l-183 209l2 14h71z" />
    <glyph glyph-name="ncaron" unicode="&#x148;" 
d="M276 871c44 74.667 100.169 131.833 168.502 171.5s148.5 59.5 240.5 59.5c113.333 0 195 -37.667 245 -113s63.333 -192.666 40 -351.999l-96 -637h-54l96 639c23.333 156 13.166 263.167 -30.501 321.5s-112.834 87.5 -207.501 87.5
c-109.333 0 -199.666 -34 -270.999 -102s-124 -154.333 -158 -259l-103 -687h-54l83 554h-3c2 13.333 4.16699 26.666 6.5 39.999s5.16602 26.333 8.49902 39l67 449h46zM695.002 1318l212 187h67l-2 -16l-243 -207h-79l-183 209l2 14h71z" />
    <glyph glyph-name="napostrophe" unicode="&#x149;" 
d="M276 871c44 74.667 100.169 131.833 168.502 171.5s148.5 59.5 240.5 59.5c113.333 0 195 -37.667 245 -113s63.333 -192.666 40 -351.999l-96 -637h-54l96 639c23.333 156 13.166 263.167 -30.501 321.5s-112.834 87.5 -207.501 87.5
c-109.333 0 -199.666 -34 -270.999 -102s-124 -154.333 -158 -259l-103 -687h-54l83 554h-3c2 13.333 4.16699 26.666 6.5 39.999s5.16602 26.333 8.49902 39l67 449h46zM233.002 1450l-77 -186h-50l72 182l16 109h54z" />
    <glyph glyph-name="Eng" unicode="&#x14a;" horiz-adv-x="1450" 
d="M1388 1456l-231 -1545c-18 -115.333 -56.167 -202.166 -114.5 -260.499s-132.833 -87.5 -223.5 -87.5c-19.333 0 -37.5 1.66699 -54.5 5s-35.167 8.33301 -54.5 15l21 52c11.333 -4.66699 25.833 -8.83398 43.5 -12.501s35.5 -5.5 53.5 -5.5
c70.667 0 130.5 25.833 179.5 77.5s80.833 123.834 95.5 216.501l13 89l-733 1356l-6 -1l-203 -1355h-54l218 1456h54l733 -1355l6 1l203 1354h54z" />
    <glyph glyph-name="eng" unicode="&#x14b;" 
d="M276 870c43.333 74.667 99.166 131.998 167.499 171.998s148.833 60 241.5 60c113.333 0 195 -37.667 245 -113s63.333 -192.666 40 -351.999l-109 -726c-18 -115.333 -56.167 -202.166 -114.5 -260.499s-132.833 -87.5 -223.5 -87.5
c-23.333 0 -45.166 1.66699 -65.499 5s-41.833 8.33301 -64.5 15l21 52c13.333 -4.66699 31 -9 53 -13s43.333 -6 64 -6c70.667 0 130.667 26 180 78s81.333 124.333 96 217l109 728c23.333 156.667 13.166 264 -30.501 322s-112.834 87 -207.501 87
c-109.333 0 -199.666 -34 -270.999 -102s-124 -154.333 -158 -259l-103 -687h-54l83 554h-2c1.33301 10 2.83301 20.167 4.5 30.5s3.83398 21.833 6.50098 34.5l70 463h46z" />
    <glyph glyph-name="Omacron" unicode="&#x14c;" horiz-adv-x="1364" 
d="M1244 619c-30.667 -204 -102.497 -361.667 -215.497 -473s-255.833 -167 -428.5 -167c-164.667 0 -288.834 58.167 -372.501 174.5s-110.834 271.5 -81.501 465.5l33 218c30 203.333 101.5 360.833 214.5 472.5s256.167 167.5 429.5 167.5
c164.667 0 288.667 -58.167 372 -174.5s110.666 -271.5 81.999 -465.5zM1223 839c27.333 186 6.16797 329.833 -63.499 431.5s-184.834 152.5 -345.501 152.5c-152 0 -280 -53.167 -384 -159.5s-169.333 -247.833 -196 -424.5l-33 -220
c-28.667 -187.333 -8 -331.833 62 -433.5s185 -152.5 345 -152.5c152.667 0 281 53.167 385 159.5s169.667 248.5 197 426.5zM1156 1754h-627l8 53h627z" />
    <glyph glyph-name="omacron" unicode="&#x14d;" 
d="M91 562c24.667 164.667 87.667 295.834 189 393.501s223 146.5 365 146.5c135.333 0 240.5 -50.833 315.5 -152.5s100.833 -230.834 77.5 -387.501l-6 -42c-25.333 -165.333 -88.5 -296.833 -189.5 -394.5s-222.167 -146.5 -363.5 -146.5
c-135.333 0 -240.833 50.833 -316.5 152.5s-101.5 231.167 -77.5 388.5zM139 520c-21.333 -140.667 -1.16895 -256.998 60.498 -348.998s157.5 -138 287.5 -138c121.333 0 228.333 47.667 321 143s149.334 210 170.001 344l6 42c20.667 137.333 0 252.666 -62 345.999
s-157 140 -285 140c-122 0 -229.667 -48.333 -323 -145s-149.666 -210.334 -168.999 -341.001zM1010 1411h-627l8 53h627z" />
    <glyph glyph-name="Obreve" unicode="&#x14e;" horiz-adv-x="1364" 
d="M1244 619c-30.667 -204 -102.497 -361.667 -215.497 -473s-255.833 -167 -428.5 -167c-164.667 0 -288.834 58.167 -372.501 174.5s-110.834 271.5 -81.501 465.5l33 218c30 203.333 101.5 360.833 214.5 472.5s256.167 167.5 429.5 167.5
c164.667 0 288.667 -58.167 372 -174.5s110.666 -271.5 81.999 -465.5zM1223 839c27.333 186 6.16797 329.833 -63.499 431.5s-184.834 152.5 -345.501 152.5c-152 0 -280 -53.167 -384 -159.5s-169.333 -247.833 -196 -424.5l-33 -220
c-28.667 -187.333 -8 -331.833 62 -433.5s185 -152.5 345 -152.5c152.667 0 281 53.167 385 159.5s169.667 248.5 197 426.5zM1134 1860l2 -6c-8 -74 -39.5 -132.833 -94.5 -176.5s-125.5 -65.5 -211.5 -65.5c-82.667 0 -146.5 22.667 -191.5 68s-60.833 103.333 -47.5 174
l3 6h46c-8.66699 -59.333 2.5 -106.166 33.5 -140.499s85.833 -51.5 164.5 -51.5c71.333 0 129 18.167 173 54.5s70 82.166 78 137.499h45z" />
    <glyph glyph-name="obreve" unicode="&#x14f;" 
d="M91 562c24.667 164.667 87.667 295.834 189 393.501s223 146.5 365 146.5c135.333 0 240.5 -50.833 315.5 -152.5s100.833 -230.834 77.5 -387.501l-6 -42c-25.333 -165.333 -88.5 -296.833 -189.5 -394.5s-222.167 -146.5 -363.5 -146.5
c-135.333 0 -240.833 50.833 -316.5 152.5s-101.5 231.167 -77.5 388.5zM139 520c-21.333 -140.667 -1.16895 -256.998 60.498 -348.998s157.5 -138 287.5 -138c121.333 0 228.333 47.667 321 143s149.334 210 170.001 344l6 42c20.667 137.333 0 252.666 -62 345.999
s-157 140 -285 140c-122 0 -229.667 -48.333 -323 -145s-149.666 -210.334 -168.999 -341.001zM987.997 1517l2 -6c-8 -74 -39.5 -132.833 -94.5 -176.5s-125.5 -65.5 -211.5 -65.5c-82.667 0 -146.5 22.667 -191.5 68s-60.833 103.333 -47.5 174l3 6h46
c-8.66699 -59.333 2.5 -106.166 33.5 -140.499s85.833 -51.5 164.5 -51.5c71.333 0 129 18.167 173 54.5s70 82.166 78 137.499h45z" />
    <glyph glyph-name="Ohungarumlaut" unicode="&#x150;" horiz-adv-x="1364" 
d="M1244 619c-30.667 -204 -102.497 -361.667 -215.497 -473s-255.833 -167 -428.5 -167c-164.667 0 -288.834 58.167 -372.501 174.5s-110.834 271.5 -81.501 465.5l33 218c30 203.333 101.5 360.833 214.5 472.5s256.167 167.5 429.5 167.5
c164.667 0 288.667 -58.167 372 -174.5s110.666 -271.5 81.999 -465.5zM1223 839c27.333 186 6.16797 329.833 -63.499 431.5s-184.834 152.5 -345.501 152.5c-152 0 -280 -53.167 -384 -159.5s-169.333 -247.833 -196 -424.5l-33 -220
c-28.667 -187.333 -8 -331.833 62 -433.5s185 -152.5 345 -152.5c152.667 0 281 53.167 385 159.5s169.667 248.5 197 426.5zM1216 1888h71l2 -6l-331 -260h-64l-2 6zM946.005 1888h68l2 -6l-287 -260h-61l-2 6z" />
    <glyph glyph-name="ohungarumlaut" unicode="&#x151;" 
d="M91 562c24.667 164.667 87.667 295.834 189 393.501s223 146.5 365 146.5c135.333 0 240.5 -50.833 315.5 -152.5s100.833 -230.834 77.5 -387.501l-6 -42c-25.333 -165.333 -88.5 -296.833 -189.5 -394.5s-222.167 -146.5 -363.5 -146.5
c-135.333 0 -240.833 50.833 -316.5 152.5s-101.5 231.167 -77.5 388.5zM139 520c-21.333 -140.667 -1.16895 -256.998 60.498 -348.998s157.5 -138 287.5 -138c121.333 0 228.333 47.667 321 143s149.334 210 170.001 344l6 42c20.667 137.333 0 252.666 -62 345.999
s-157 140 -285 140c-122 0 -229.667 -48.333 -323 -145s-149.666 -210.334 -168.999 -341.001zM1070 1545h71l2 -6l-331 -260h-64l-2 6zM799.997 1545h68l2 -6l-287 -260h-61l-2 6z" />
    <glyph glyph-name="OE" unicode="&#x152;" horiz-adv-x="1873" 
d="M1679 0l-797.999 0.000976562c-69.333 -6.66699 -129.333 -11.834 -180 -15.501s-101.667 -5.5 -153 -5.5c-148 0 -263.333 55.833 -346 167.5s-110.667 254.834 -84 429.501l46 304c27.333 183.333 96.5 328.666 207.5 435.999s244.167 161 399.5 161
c50.667 0 103.667 -2 159 -6s111.666 -9 168.999 -15h798l-8 -54h-802l-93 -616h701l-8 -54h-701l-101 -678h802zM556.001 33.001c46.667 0 93.8301 0.832031 141.497 2.49902s91.834 4.83398 132.501 9.50098l204 1366c-39.333 4 -81.666 7 -126.999 9
s-93.666 3 -144.999 3c-135.333 0 -253.833 -50.167 -355.5 -150.5s-164.5 -230.5 -188.5 -390.5l-46 -306c-24.667 -166 -2.16699 -298 67.5 -396s175.167 -147 316.5 -147z" />
    <glyph glyph-name="oe" unicode="&#x153;" horiz-adv-x="1921" 
d="M1358 -21c-95.333 0 -177.836 31.499 -247.503 94.499s-112.5 146.167 -128.5 249.5c-46.667 -108.667 -114 -193.167 -202 -253.5s-186.667 -90.5 -296 -90.5c-135.333 0 -240.833 50.833 -316.5 152.5s-101.5 231.167 -77.5 388.5l6 42
c24.667 164.667 87.667 295.834 189 393.501s223 146.5 365 146.5c104.667 0 192.334 -31.667 263.001 -95s114.334 -148 131.001 -254c46 108.667 112.5 194 199.5 256s182.833 93 287.5 93c116 0 204.667 -40 266 -120s82 -187.333 62 -322l-12 -83h-799
c0 -2 -0.333008 -4.5 -1 -7.5s-1 -4.83301 -1 -5.5l-10 -64c-20.667 -136.667 -0.5 -248.667 60.5 -336s150.833 -131 269.5 -131c62 0 125.5 12 190.5 36s118.833 56 161.5 96l22 -42c-43.333 -42 -97.166 -76.5 -161.499 -103.5s-137.833 -40.5 -220.5 -40.5z
M143.997 519.999c-21.333 -140.667 -1.16895 -256.998 60.498 -348.998s157.5 -138 287.5 -138c121.333 0 228.333 47.667 321 143s149.334 210 170.001 344l6 42c20.667 137.333 0 252.666 -62 345.999s-157 140 -285 140c-122 0 -229.667 -48.333 -323 -145
s-149.666 -210.334 -168.999 -341.001zM1522.99 1048c-107.333 0 -203.501 -39.332 -288.501 -117.999s-141.5 -176.334 -169.5 -293.001l2 -6h734l5 33c16.667 116 0.333984 209 -48.999 279s-127.333 105 -234 105z" />
    <glyph glyph-name="Racute" unicode="&#x154;" horiz-adv-x="1364" 
d="M271 683l-102.001 -684h-54l218 1456h474c148 0 259.5 -33.5 334.5 -100.5s103.5 -163.5 85.5 -289.5c-13.333 -85.333 -51 -161 -113 -227s-140.667 -108.333 -236 -127c98.667 -18.667 167.334 -57.667 206.001 -117s51.667 -133.666 39 -222.999l-21 -137
c-7.33301 -46.667 -8 -87.5 -2 -122.5s20 -64.167 42 -87.5l-4 -25h-53c-20 27.333 -33.167 61.166 -39.5 101.499s-5.5 85.5 2.5 135.5l20 133c15.333 102.667 -6.5 180.667 -65.5 234s-151.833 80 -278.5 80h-453zM278.999 737l411 0.000976562
c142.667 0 255.334 31.833 338.001 95.5s131 141.167 145 232.5c16.667 113.333 -5.83301 197.666 -67.5 252.999s-163.834 83 -306.501 83h-420zM968.999 1862h77l2 -6l-268 -260h-66l-3 6z" />
    <glyph glyph-name="racute" unicode="&#x155;" horiz-adv-x="685" 
d="M725 1043l-69.002 6c-93.333 0 -175.666 -32.167 -246.999 -96.5s-124 -147.833 -158 -250.5l-105 -702h-54l162 1082h44l-18 -188l-4 -24l5 -3c38.667 74.667 90.334 132.5 155.001 173.5s140.667 61.5 228 61.5c14.667 0 28.667 -1.16699 42 -3.5
s24.333 -4.83301 33 -7.5zM726.998 1540h77l2 -6l-268 -260h-66l-3 6z" />
    <glyph glyph-name="Rcommaaccent" unicode="&#x156;" horiz-adv-x="1364" 
d="M271 683l-102.001 -684h-54l218 1456h474c148 0 259.5 -33.5 334.5 -100.5s103.5 -163.5 85.5 -289.5c-13.333 -85.333 -51 -161 -113 -227s-140.667 -108.333 -236 -127c98.667 -18.667 167.334 -57.667 206.001 -117s51.667 -133.666 39 -222.999l-21 -137
c-7.33301 -46.667 -8 -87.5 -2 -122.5s20 -64.167 42 -87.5l-4 -25h-53c-20 27.333 -33.167 61.166 -39.5 101.499s-5.5 85.5 2.5 135.5l20 133c15.333 102.667 -6.5 180.667 -65.5 234s-151.833 80 -278.5 80h-453zM278.999 737l411 0.000976562
c142.667 0 255.334 31.833 338.001 95.5s131 141.167 145 232.5c16.667 113.333 -5.83301 197.666 -67.5 252.999s-163.834 83 -306.501 83h-420zM516.999 -249.999l-77 -186h-50l72 182l16 109h54z" />
    <glyph glyph-name="rcommaaccent" unicode="&#x157;" horiz-adv-x="685" 
d="M725 1043l-69.002 6c-93.333 0 -175.666 -32.167 -246.999 -96.5s-124 -147.833 -158 -250.5l-105 -702h-54l162 1082h44l-18 -188l-4 -24l5 -3c38.667 74.667 90.334 132.5 155.001 173.5s140.667 61.5 228 61.5c14.667 0 28.667 -1.16699 42 -3.5
s24.333 -4.83301 33 -7.5zM111.998 -241l-77 -186h-50l72 182l16 109h54z" />
    <glyph glyph-name="Rcaron" unicode="&#x158;" horiz-adv-x="1364" 
d="M271 683l-102.001 -684h-54l218 1456h474c148 0 259.5 -33.5 334.5 -100.5s103.5 -163.5 85.5 -289.5c-13.333 -85.333 -51 -161 -113 -227s-140.667 -108.333 -236 -127c98.667 -18.667 167.334 -57.667 206.001 -117s51.667 -133.666 39 -222.999l-21 -137
c-7.33301 -46.667 -8 -87.5 -2 -122.5s20 -64.167 42 -87.5l-4 -25h-53c-20 27.333 -33.167 61.166 -39.5 101.499s-5.5 85.5 2.5 135.5l20 133c15.333 102.667 -6.5 180.667 -65.5 234s-151.833 80 -278.5 80h-453zM278.999 737l411 0.000976562
c142.667 0 255.334 31.833 338.001 95.5s131 141.167 145 232.5c16.667 113.333 -5.83301 197.666 -67.5 252.999s-163.834 83 -306.501 83h-420zM770.999 1640l212 187h67l-2 -16l-243 -207h-79l-183 209l2 14h71z" />
    <glyph glyph-name="rcaron" unicode="&#x159;" horiz-adv-x="685" 
d="M725 1043l-69.002 6c-93.333 0 -175.666 -32.167 -246.999 -96.5s-124 -147.833 -158 -250.5l-105 -702h-54l162 1082h44l-18 -188l-4 -24l5 -3c38.667 74.667 90.334 132.5 155.001 173.5s140.667 61.5 228 61.5c14.667 0 28.667 -1.16699 42 -3.5
s24.333 -4.83301 33 -7.5zM529.998 1318l212 187h67l-2 -16l-243 -207h-79l-183 209l2 14h71z" />
    <glyph glyph-name="Sacute" unicode="&#x15a;" horiz-adv-x="1223" 
d="M1055 303c14.667 98.667 -6 175.33 -62 229.997s-165 111.667 -327 171c-158 56 -271.833 114.5 -341.5 175.5s-95.167 151.5 -76.5 271.5c14.667 100.667 66 180.167 154 238.5s193.333 87.5 316 87.5c139.333 0 249 -38 329 -114s108.667 -179.333 86 -310l-3 -6h-46
c16.667 112.667 -9.33301 203.5 -78 272.5s-167.667 103.5 -297 103.5c-106 0 -197.667 -27.167 -275 -81.5s-121.333 -117.166 -132 -188.499c-14.667 -96.667 4.5 -173.167 57.5 -229.5s160.833 -112.833 323.5 -169.5c154 -53.333 267.833 -113.166 341.5 -179.499
s102.167 -156.166 85.5 -269.499c-16 -103.333 -71.167 -183.5 -165.5 -240.5s-208.833 -85.5 -343.5 -85.5s-248.667 34.5 -342 103.5s-127.666 175.833 -102.999 320.5l2 6h46c-20.667 -136.667 10.666 -233.5 93.999 -290.5s187 -85.5 311 -85.5c112 0 211.5 27 298.5 81
s136.167 117 147.5 189zM984 1883h77l2 -6l-268 -260h-66l-3 6z" />
    <glyph glyph-name="sacute" unicode="&#x15b;" horiz-adv-x="1019" 
d="M797 265c8 58.667 -8.99707 111.001 -50.9971 157.001s-122.667 82.667 -242 110c-124.667 27.333 -212.834 62.5 -264.501 105.5s-71.5 106.833 -59.5 191.5c10.667 80.667 52.167 146.334 124.5 197.001s164.166 76 275.499 76c114.667 0 203.5 -28.333 266.5 -85
s86.833 -129.334 71.5 -218.001l-2 -6h-47c10 73.333 -11 134.166 -63 182.499s-129.667 72.5 -233 72.5c-97.333 0 -176.333 -22.167 -237 -66.5s-94.667 -94.5 -102 -150.5c-8 -58.667 7.16699 -107.5 45.5 -146.5s120.833 -73.5 247.5 -103.5
c117.333 -28 203.666 -66.333 258.999 -115s77 -116 65 -202c-12.667 -88 -56.834 -157.5 -132.501 -208.5s-171.5 -76.5 -287.5 -76.5c-121.333 0 -215 28.5 -281 85.5s-91 125.167 -75 204.5l2 6h45c-6.66699 -85.333 21.333 -147 84 -185s140.334 -57 233.001 -57
c96 0 177.5 23.5 244.5 70.5s104.833 100.833 113.5 161.5zM822.003 1540h77l2 -6l-268 -260h-66l-3 6z" />
    <glyph glyph-name="Scircumflex" unicode="&#x15c;" horiz-adv-x="1223" 
d="M1055 303c14.667 98.667 -6 175.33 -62 229.997s-165 111.667 -327 171c-158 56 -271.833 114.5 -341.5 175.5s-95.167 151.5 -76.5 271.5c14.667 100.667 66 180.167 154 238.5s193.333 87.5 316 87.5c139.333 0 249 -38 329 -114s108.667 -179.333 86 -310l-3 -6h-46
c16.667 112.667 -9.33301 203.5 -78 272.5s-167.667 103.5 -297 103.5c-106 0 -197.667 -27.167 -275 -81.5s-121.333 -117.166 -132 -188.499c-14.667 -96.667 4.5 -173.167 57.5 -229.5s160.833 -112.833 323.5 -169.5c154 -53.333 267.833 -113.166 341.5 -179.499
s102.167 -156.166 85.5 -269.499c-16 -103.333 -71.167 -183.5 -165.5 -240.5s-208.833 -85.5 -343.5 -85.5s-248.667 34.5 -342 103.5s-127.666 175.833 -102.999 320.5l2 6h46c-20.667 -136.667 10.666 -233.5 93.999 -290.5s187 -85.5 311 -85.5c112 0 211.5 27 298.5 81
s136.167 117 147.5 189zM1038 1635l-2 -13h-70l-157 186l-211 -186h-66l2 17l241 206h80z" />
    <glyph glyph-name="scircumflex" unicode="&#x15d;" horiz-adv-x="1019" 
d="M797 265c8 58.667 -8.99707 111.001 -50.9971 157.001s-122.667 82.667 -242 110c-124.667 27.333 -212.834 62.5 -264.501 105.5s-71.5 106.833 -59.5 191.5c10.667 80.667 52.167 146.334 124.5 197.001s164.166 76 275.499 76c114.667 0 203.5 -28.333 266.5 -85
s86.833 -129.334 71.5 -218.001l-2 -6h-47c10 73.333 -11 134.166 -63 182.499s-129.667 72.5 -233 72.5c-97.333 0 -176.333 -22.167 -237 -66.5s-94.667 -94.5 -102 -150.5c-8 -58.667 7.16699 -107.5 45.5 -146.5s120.833 -73.5 247.5 -103.5
c117.333 -28 203.666 -66.333 258.999 -115s77 -116 65 -202c-12.667 -88 -56.834 -157.5 -132.501 -208.5s-171.5 -76.5 -287.5 -76.5c-121.333 0 -215 28.5 -281 85.5s-91 125.167 -75 204.5l2 6h45c-6.66699 -85.333 21.333 -147 84 -185s140.334 -57 233.001 -57
c96 0 177.5 23.5 244.5 70.5s104.833 100.833 113.5 161.5zM876.003 1292l-2 -13h-70l-157 186l-211 -186h-66l2 17l241 206h80z" />
    <glyph glyph-name="Scedilla" unicode="&#x15e;" horiz-adv-x="1223" 
d="M1055 303c14.667 98.667 -6 175.33 -62 229.997s-165 111.667 -327 171c-158 56 -271.833 114.5 -341.5 175.5s-95.167 151.5 -76.5 271.5c14.667 100.667 66 180.167 154 238.5s193.333 87.5 316 87.5c139.333 0 249 -38 329 -114s108.667 -179.333 86 -310l-3 -6h-46
c16.667 112.667 -9.33301 203.5 -78 272.5s-167.667 103.5 -297 103.5c-106 0 -197.667 -27.167 -275 -81.5s-121.333 -117.166 -132 -188.499c-14.667 -96.667 4.5 -173.167 57.5 -229.5s160.833 -112.833 323.5 -169.5c154 -53.333 267.833 -113.166 341.5 -179.499
s102.167 -156.166 85.5 -269.499c-16 -103.333 -71.167 -183.5 -165.5 -240.5s-208.833 -85.5 -343.5 -85.5s-248.667 34.5 -342 103.5s-127.666 175.833 -102.999 320.5l2 6h46c-20.667 -136.667 10.666 -233.5 93.999 -290.5s187 -85.5 311 -85.5c112 0 211.5 27 298.5 81
s136.167 117 147.5 189zM538 -9.00391l-21.999 -75.999c60 -4.66699 105.5 -19.834 136.5 -45.501s42.5 -66.834 34.5 -123.501c-9.33301 -60.667 -42.333 -107.5 -99 -140.5s-134.667 -49.5 -234 -49.5v49c67.333 0 128.666 12.167 183.999 36.5
s86.666 59.166 93.999 104.499c6.66699 44.667 -3.66602 74.834 -30.999 90.501s-80.333 26.834 -159 33.501l43 121h53z" />
    <glyph glyph-name="scedilla" unicode="&#x15f;" horiz-adv-x="1019" 
d="M797 265c8 58.667 -8.99707 111.001 -50.9971 157.001s-122.667 82.667 -242 110c-124.667 27.333 -212.834 62.5 -264.501 105.5s-71.5 106.833 -59.5 191.5c10.667 80.667 52.167 146.334 124.5 197.001s164.166 76 275.499 76c114.667 0 203.5 -28.333 266.5 -85
s86.833 -129.334 71.5 -218.001l-2 -6h-47c10 73.333 -11 134.166 -63 182.499s-129.667 72.5 -233 72.5c-97.333 0 -176.333 -22.167 -237 -66.5s-94.667 -94.5 -102 -150.5c-8 -58.667 7.16699 -107.5 45.5 -146.5s120.833 -73.5 247.5 -103.5
c117.333 -28 203.666 -66.333 258.999 -115s77 -116 65 -202c-12.667 -88 -56.834 -157.5 -132.501 -208.5s-171.5 -76.5 -287.5 -76.5c-121.333 0 -215 28.5 -281 85.5s-91 125.167 -75 204.5l2 6h45c-6.66699 -85.333 21.333 -147 84 -185s140.334 -57 233.001 -57
c96 0 177.5 23.5 244.5 70.5s104.833 100.833 113.5 161.5zM428.003 -3.99902l-21.999 -75.999c60 -4.66699 105.5 -19.834 136.5 -45.501s42.5 -66.834 34.5 -123.501c-9.33301 -60.667 -42.333 -107.5 -99 -140.5s-134.667 -49.5 -234 -49.5v49
c67.333 0 128.666 12.167 183.999 36.5s86.666 59.166 93.999 104.499c6.66699 44.667 -3.66602 74.834 -30.999 90.501s-80.333 26.834 -159 33.501l43 121h53z" />
    <glyph glyph-name="Scaron" unicode="&#x160;" horiz-adv-x="1223" 
d="M1055 303c14.667 98.667 -6 175.33 -62 229.997s-165 111.667 -327 171c-158 56 -271.833 114.5 -341.5 175.5s-95.167 151.5 -76.5 271.5c14.667 100.667 66 180.167 154 238.5s193.333 87.5 316 87.5c139.333 0 249 -38 329 -114s108.667 -179.333 86 -310l-3 -6h-46
c16.667 112.667 -9.33301 203.5 -78 272.5s-167.667 103.5 -297 103.5c-106 0 -197.667 -27.167 -275 -81.5s-121.333 -117.166 -132 -188.499c-14.667 -96.667 4.5 -173.167 57.5 -229.5s160.833 -112.833 323.5 -169.5c154 -53.333 267.833 -113.166 341.5 -179.499
s102.167 -156.166 85.5 -269.499c-16 -103.333 -71.167 -183.5 -165.5 -240.5s-208.833 -85.5 -343.5 -85.5s-248.667 34.5 -342 103.5s-127.666 175.833 -102.999 320.5l2 6h46c-20.667 -136.667 10.666 -233.5 93.999 -290.5s187 -85.5 311 -85.5c112 0 211.5 27 298.5 81
s136.167 117 147.5 189zM786 1661l212 187h67l-2 -16l-243 -207h-79l-183 209l2 14h71z" />
    <glyph glyph-name="scaron" unicode="&#x161;" horiz-adv-x="1019" 
d="M797 265c8 58.667 -8.99707 111.001 -50.9971 157.001s-122.667 82.667 -242 110c-124.667 27.333 -212.834 62.5 -264.501 105.5s-71.5 106.833 -59.5 191.5c10.667 80.667 52.167 146.334 124.5 197.001s164.166 76 275.499 76c114.667 0 203.5 -28.333 266.5 -85
s86.833 -129.334 71.5 -218.001l-2 -6h-47c10 73.333 -11 134.166 -63 182.499s-129.667 72.5 -233 72.5c-97.333 0 -176.333 -22.167 -237 -66.5s-94.667 -94.5 -102 -150.5c-8 -58.667 7.16699 -107.5 45.5 -146.5s120.833 -73.5 247.5 -103.5
c117.333 -28 203.666 -66.333 258.999 -115s77 -116 65 -202c-12.667 -88 -56.834 -157.5 -132.501 -208.5s-171.5 -76.5 -287.5 -76.5c-121.333 0 -215 28.5 -281 85.5s-91 125.167 -75 204.5l2 6h45c-6.66699 -85.333 21.333 -147 84 -185s140.334 -57 233.001 -57
c96 0 177.5 23.5 244.5 70.5s104.833 100.833 113.5 161.5zM625.003 1318l212 187h67l-2 -16l-243 -207h-79l-183 209l2 14h71z" />
    <glyph glyph-name="Tcommaaccent" unicode="&#x162;" horiz-adv-x="1224" 
d="M1297 1402h-510l-210 -1402h-54l210 1402h-546l8 54h1110zM539 -250l-77 -186h-50l72 182l16 109h54z" />
    <glyph glyph-name="tcommaaccent" unicode="&#x163;" horiz-adv-x="633" 
d="M410 1374l-43.998 -291.999h266l-8 -55h-266l-112 -748c-14 -92 -8.83301 -156 15.5 -192s61.5 -54 111.5 -54c17.333 0 33.666 0.666992 48.999 2s34.666 3.66602 57.999 6.99902l3 -49c-18 -5.33301 -36 -9 -54 -11s-38.333 -3 -61 -3c-70 0 -121 24 -153 72
s-40 124 -24 228l112 748h-200l8 55h200l44 292h55zM357.002 -259.999l-77 -186h-50l72 182l16 109h54z" />
    <glyph glyph-name="Tcaron" unicode="&#x164;" horiz-adv-x="1224" 
d="M1297 1402h-510l-210 -1402h-54l210 1402h-546l8 54h1110zM791 1632l212 187h67l-2 -16l-243 -207h-79l-183 209l2 14h71z" />
    <glyph glyph-name="tcaron" unicode="&#x165;" horiz-adv-x="633" 
d="M410 1374l-43.998 -291.999h266l-8 -55h-266l-112 -748c-14 -92 -8.83301 -156 15.5 -192s61.5 -54 111.5 -54c17.333 0 33.666 0.666992 48.999 2s34.666 3.66602 57.999 6.99902l3 -49c-18 -5.33301 -36 -9 -54 -11s-38.333 -3 -61 -3c-70 0 -121 24 -153 72
s-40 124 -24 228l112 748h-200l8 55h200l44 292h55zM671.002 1434l-77 -186h-50l72 182l16 109h54z" />
    <glyph glyph-name="Tbar" unicode="&#x166;" horiz-adv-x="1224" 
d="M953 847h-249l-127 -847h-54l127 847h-284l8 54h284l75 501h-546l8 54h1110l-8 -54h-510l-75 -501h249z" />
    <glyph glyph-name="tbar" unicode="&#x167;" horiz-adv-x="633" 
d="M410 1374l-43.998 -291.999h266l-8 -55h-266l-51 -339h335l-8 -54h-335l-53 -355c-14 -92 -8.83301 -156 15.5 -192s61.5 -54 111.5 -54c17.333 0 33.666 0.666992 48.999 2s34.666 3.66602 57.999 6.99902l3 -49c-18 -5.33301 -36 -9 -54 -11s-38.333 -3 -61 -3
c-70 0 -121 24 -153 72s-40 124 -24 228l53 355h-197l8 54h197l51 339h-200l8 55h200l44 292h55z" />
    <glyph glyph-name="Utilde" unicode="&#x168;" horiz-adv-x="1365" 
d="M1318 1456l-144.998 -967.002c-24.667 -166 -89.334 -292.5 -194.001 -379.5s-231 -130.5 -379 -130.5c-141.333 0 -253 45.5 -335 136.5s-111 215.5 -87 373.5l145 967h54l-145 -967c-22 -143.333 2.5 -255.166 73.5 -335.499s171.833 -120.5 302.5 -120.5
c123.333 0 234.166 41.833 332.499 125.5s157.833 193.834 178.5 330.501l145 967h54zM1174 1801c-8 -57.333 -31.167 -102.666 -69.5 -135.999s-82.5 -50 -132.5 -50c-47.333 0 -94.666 20.833 -141.999 62.5s-89.666 62.5 -126.999 62.5c-34 0 -64.667 -12.5 -92 -37.5
s-43.333 -57.5 -48 -97.5l-54 10c7.33301 56 29.666 99.833 66.999 131.5s82 47.5 134 47.5c45.333 0 92.666 -20.667 141.999 -62s92 -62 128 -62c32 0 61.833 13.167 89.5 39.5s44.5 60.166 50.5 101.499z" />
    <glyph glyph-name="utilde" unicode="&#x169;" 
d="M825 0l19.999 185c-44 -66.667 -99.833 -117.667 -167.5 -153s-146.5 -53 -236.5 -53c-107.333 0 -187.666 40 -240.999 120s-67.333 202 -42 366l92 617h54l-93 -619c-23.333 -152.667 -13.333 -262.5 30 -329.5s112 -100.5 206 -100.5c107.333 0 196 27.833 266 83.5
s120.667 128.5 152 218.5l112 747h55l-96 -637h3c2 10.667 1 4.66699 -3 -18s-7 -38 -9 -46l-57 -381h-45zM1006 1459c-8 -57.333 -31.167 -102.666 -69.5 -135.999s-82.5 -50 -132.5 -50c-47.333 0 -94.666 20.833 -141.999 62.5s-89.666 62.5 -126.999 62.5
c-34 0 -64.667 -12.5 -92 -37.5s-43.333 -57.5 -48 -97.5l-54 10c7.33301 56 29.666 99.833 66.999 131.5s82 47.5 134 47.5c45.333 0 92.666 -20.667 141.999 -62s92 -62 128 -62c32 0 61.833 13.167 89.5 39.5s44.5 60.166 50.5 101.499z" />
    <glyph glyph-name="Umacron" unicode="&#x16a;" horiz-adv-x="1365" 
d="M1318 1456l-144.998 -967.002c-24.667 -166 -89.334 -292.5 -194.001 -379.5s-231 -130.5 -379 -130.5c-141.333 0 -253 45.5 -335 136.5s-111 215.5 -87 373.5l145 967h54l-145 -967c-22 -143.333 2.5 -255.166 73.5 -335.499s171.833 -120.5 302.5 -120.5
c123.333 0 234.166 41.833 332.499 125.5s157.833 193.834 178.5 330.501l145 967h54zM1174 1733h-627l8 53h627z" />
    <glyph glyph-name="umacron" unicode="&#x16b;" 
d="M825 0l19.999 185c-44 -66.667 -99.833 -117.667 -167.5 -153s-146.5 -53 -236.5 -53c-107.333 0 -187.666 40 -240.999 120s-67.333 202 -42 366l92 617h54l-93 -619c-23.333 -152.667 -13.333 -262.5 30 -329.5s112 -100.5 206 -100.5c107.333 0 196 27.833 266 83.5
s120.667 128.5 152 218.5l112 747h55l-96 -637h3c2 10.667 1 4.66699 -3 -18s-7 -38 -9 -46l-57 -381h-45zM1005 1391h-627l8 53h627z" />
    <glyph glyph-name="Ubreve" unicode="&#x16c;" horiz-adv-x="1365" 
d="M1318 1456l-144.998 -967.002c-24.667 -166 -89.334 -292.5 -194.001 -379.5s-231 -130.5 -379 -130.5c-141.333 0 -253 45.5 -335 136.5s-111 215.5 -87 373.5l145 967h54l-145 -967c-22 -143.333 2.5 -255.166 73.5 -335.499s171.833 -120.5 302.5 -120.5
c123.333 0 234.166 41.833 332.499 125.5s157.833 193.834 178.5 330.501l145 967h54zM1151 1839l2 -6c-8 -74 -39.5 -132.833 -94.5 -176.5s-125.5 -65.5 -211.5 -65.5c-82.667 0 -146.5 22.667 -191.5 68s-60.833 103.333 -47.5 174l3 6h46
c-8.66699 -59.333 2.5 -106.166 33.5 -140.499s85.833 -51.5 164.5 -51.5c71.333 0 129 18.167 173 54.5s70 82.166 78 137.499h45z" />
    <glyph glyph-name="ubreve" unicode="&#x16d;" 
d="M825 0l19.999 185c-44 -66.667 -99.833 -117.667 -167.5 -153s-146.5 -53 -236.5 -53c-107.333 0 -187.666 40 -240.999 120s-67.333 202 -42 366l92 617h54l-93 -619c-23.333 -152.667 -13.333 -262.5 30 -329.5s112 -100.5 206 -100.5c107.333 0 196 27.833 266 83.5
s120.667 128.5 152 218.5l112 747h55l-96 -637h3c2 10.667 1 4.66699 -3 -18s-7 -38 -9 -46l-57 -381h-45zM982.999 1496l2 -6c-8 -74 -39.5 -132.833 -94.5 -176.5s-125.5 -65.5 -211.5 -65.5c-82.667 0 -146.5 22.667 -191.5 68s-60.833 103.333 -47.5 174l3 6h46
c-8.66699 -59.333 2.5 -106.166 33.5 -140.499s85.833 -51.5 164.5 -51.5c71.333 0 129 18.167 173 54.5s70 82.166 78 137.499h45z" />
    <glyph glyph-name="Uring" unicode="&#x16e;" horiz-adv-x="1365" 
d="M1318 1456l-144.998 -967.002c-24.667 -166 -89.334 -292.5 -194.001 -379.5s-231 -130.5 -379 -130.5c-141.333 0 -253 45.5 -335 136.5s-111 215.5 -87 373.5l145 967h54l-145 -967c-22 -143.333 2.5 -255.166 73.5 -335.499s171.833 -120.5 302.5 -120.5
c123.333 0 234.166 41.833 332.499 125.5s157.833 193.834 178.5 330.501l145 967h54zM738.002 1726c5.33301 39.333 23.3311 72.333 53.998 99s65 40 103 40c34.667 0 63.334 -13.833 86.001 -41.5s31.334 -60.167 26.001 -97.5c-6 -39.333 -24 -71.666 -54 -96.999
s-63.333 -38 -100 -38c-36 0 -65.667 13.167 -89 39.5s-32 58.166 -26 95.499zM795 1726c-4 -24 0.499023 -43.167 13.499 -57.5s30.833 -21.5 53.5 -21.5c20.667 0 39.5 7.5 56.5 22.5s27.5 33.833 31.5 56.5c3.33301 24 -1.16699 43.667 -13.5 59s-29.166 23 -50.499 23
s-41 -7.83301 -59 -23.5s-28.667 -35.167 -32 -58.5z" />
    <glyph glyph-name="uring" unicode="&#x16f;" 
d="M825 0l19.999 185c-44 -66.667 -99.833 -117.667 -167.5 -153s-146.5 -53 -236.5 -53c-107.333 0 -187.666 40 -240.999 120s-67.333 202 -42 366l92 617h54l-93 -619c-23.333 -152.667 -13.333 -262.5 30 -329.5s112 -100.5 206 -100.5c107.333 0 196 27.833 266 83.5
s120.667 128.5 152 218.5l112 747h55l-96 -637h3c2 10.667 1 4.66699 -3 -18s-7 -38 -9 -46l-57 -381h-45zM569.999 1383c5.33301 39.333 23.3311 72.333 53.998 99s65 40 103 40c34.667 0 63.334 -13.833 86.001 -41.5s31.334 -60.167 26.001 -97.5
c-6 -39.333 -24 -71.666 -54 -96.999s-63.333 -38 -100 -38c-36 0 -65.667 13.167 -89 39.5s-32 58.166 -26 95.499zM626.997 1383c-4 -24 0.499023 -43.167 13.499 -57.5s30.833 -21.5 53.5 -21.5c20.667 0 39.5 7.5 56.5 22.5s27.5 33.833 31.5 56.5
c3.33301 24 -1.16699 43.667 -13.5 59s-29.166 23 -50.499 23s-41 -7.83301 -59 -23.5s-28.667 -35.167 -32 -58.5z" />
    <glyph glyph-name="Uhungarumlaut" unicode="&#x170;" horiz-adv-x="1365" 
d="M1318 1456l-144.998 -967.002c-24.667 -166 -89.334 -292.5 -194.001 -379.5s-231 -130.5 -379 -130.5c-141.333 0 -253 45.5 -335 136.5s-111 215.5 -87 373.5l145 967h54l-145 -967c-22 -143.333 2.5 -255.166 73.5 -335.499s171.833 -120.5 302.5 -120.5
c123.333 0 234.166 41.833 332.499 125.5s157.833 193.834 178.5 330.501l145 967h54zM1233 1867h71l2 -6l-331 -260h-64l-2 6zM963.002 1867h68l2 -6l-287 -260h-61l-2 6z" />
    <glyph glyph-name="uhungarumlaut" unicode="&#x171;" 
d="M825 0l19.999 185c-44 -66.667 -99.833 -117.667 -167.5 -153s-146.5 -53 -236.5 -53c-107.333 0 -187.666 40 -240.999 120s-67.333 202 -42 366l92 617h54l-93 -619c-23.333 -152.667 -13.333 -262.5 30 -329.5s112 -100.5 206 -100.5c107.333 0 196 27.833 266 83.5
s120.667 128.5 152 218.5l112 747h55l-96 -637h3c2 10.667 1 4.66699 -3 -18s-7 -38 -9 -46l-57 -381h-45zM1065 1524h71l2 -6l-331 -260h-64l-2 6zM794.999 1524h68l2 -6l-287 -260h-61l-2 6z" />
    <glyph glyph-name="Uogonek" unicode="&#x172;" horiz-adv-x="1365" 
d="M1318 1456l-144.998 -967.002c-24.667 -166 -89.334 -292.5 -194.001 -379.5s-231 -130.5 -379 -130.5c-141.333 0 -253 45.5 -335 136.5s-111 215.5 -87 373.5l145 967h54l-145 -967c-22 -143.333 2.5 -255.166 73.5 -335.499s171.833 -120.5 302.5 -120.5
c123.333 0 234.166 41.833 332.499 125.5s157.833 193.834 178.5 330.501l145 967h54zM672.002 -0.00195312c-57.333 -46 -100.5 -84.834 -129.5 -116.501s-46.167 -67.167 -51.5 -106.5c-3.33301 -14 -0.833008 -30.833 7.5 -50.5s29.833 -29.5 64.5 -29.5
c22 0 42.333 3.66699 61 11s36.667 16.333 54 27l9 -48c-18 -12 -37.833 -22.333 -59.5 -31s-46.167 -13 -73.5 -13c-39.333 0 -70.333 11.833 -93 35.5s-30.667 56.5 -24 98.5c5.33301 42 25 83.333 59 124s76.333 80.334 127 119.001z" />
    <glyph glyph-name="uogonek" unicode="&#x173;" 
d="M825 0l19.999 185c-44 -66.667 -99.833 -117.667 -167.5 -153s-146.5 -53 -236.5 -53c-107.333 0 -187.666 40 -240.999 120s-67.333 202 -42 366l92 617h54l-93 -619c-23.333 -152.667 -13.333 -262.5 30 -329.5s112 -100.5 206 -100.5c107.333 0 196 27.833 266 83.5
s120.667 128.5 152 218.5l112 747h55l-96 -637h3c2 10.667 1 4.66699 -3 -18s-7 -38 -9 -46l-57 -381h-45zM860.999 0c-57.333 -46 -100.5 -84.834 -129.5 -116.501s-46.167 -67.167 -51.5 -106.5c-3.33301 -14 -0.833008 -30.833 7.5 -50.5s29.833 -29.5 64.5 -29.5
c22 0 42.333 3.66699 61 11s36.667 16.333 54 27l9 -48c-18 -12 -37.833 -22.333 -59.5 -31s-46.167 -13 -73.5 -13c-39.333 0 -70.333 11.833 -93 35.5s-30.667 56.5 -24 98.5c5.33301 42 25 83.333 59 124s76.333 80.334 127 119.001z" />
    <glyph glyph-name="Wcircumflex" unicode="&#x174;" horiz-adv-x="1855" 
d="M394 340l28 -235l6 -1l98 236l511 1116h60l175 -1116l27 -235l6 -1l100 236l467 1116h59l-610 -1456h-61l-179 1214l-26 144l-6 1l-68 -145l-546 -1214h-61l-175 1456h60zM1342 1614l-2 -13h-70l-157 186l-211 -186h-66l2 17l241 206h80z" />
    <glyph glyph-name="wcircumflex" unicode="&#x175;" horiz-adv-x="1550" 
d="M333 313l23 -222l6 -1l104 223l358 769h55l127 -769l36 -222l6 -1l92 223l335 769h63l-477 -1082h-54l-149 813l-20 167l-6 1l-72 -168l-389 -813h-54l-152 1082h62zM1138 1271l-2 -13h-70l-157 186l-211 -186h-66l2 17l241 206h80z" />
    <glyph glyph-name="Ycircumflex" unicode="&#x176;" horiz-adv-x="1223" 
d="M600 647l19 -50l34 50l604 809h66l-682 -902l-83 -554h-55l83 553l-412 903h66zM1023 1603l-2 -13h-70l-157 186l-211 -186h-66l2 17l241 206h80z" />
    <glyph glyph-name="ycircumflex" unicode="&#x177;" horiz-adv-x="978" 
d="M407 196l23.998 -108h6l9 16l520 978h60l-670 -1262c-41.333 -76 -85 -137.833 -131 -185.5s-111.667 -71.5 -197 -71.5c-12 0 -25.5 1.16699 -40.5 3.5s-26.167 4.83301 -33.5 7.5l17 51c7.33301 -2 18 -4 32 -6s25 -3 33 -3c58.667 0 108.834 18.5 150.501 55.5
s80.834 89.833 117.501 158.5l91 176l-270 1076h59zM878.998 1271l-2 -13h-70l-157 186l-211 -186h-66l2 17l241 206h80z" />
    <glyph glyph-name="Ydieresis" unicode="&#x178;" horiz-adv-x="1223" 
d="M600 647l19 -50l34 50l604 809h66l-682 -902l-83 -554h-55l83 553l-412 903h66zM1080 1662h-136l17 118h136zM611 1662h-137l17 118h137z" />
    <glyph glyph-name="Zacute" unicode="&#x179;" horiz-adv-x="1224" 
d="M84 54h897l-8 -54h-966l2 44l1004 1359h-818l8 53h894l-5 -38zM972 1862h77l2 -6l-268 -260h-66l-3 6z" />
    <glyph glyph-name="zacute" unicode="&#x17a;" horiz-adv-x="978" 
d="M93 59l2 -5h763l-8 -54h-843l7 44l853 978l-2 5h-673l8 55h753l-7 -48zM835 1519h77l2 -6l-268 -260h-66l-3 6z" />
    <glyph glyph-name="Zdotaccent" unicode="&#x17b;" horiz-adv-x="1224" 
d="M84 54h897l-8 -54h-966l2 44l1004 1359h-818l8 53h894l-5 -38zM825 1667h-95l20 138h95z" />
    <glyph glyph-name="zdotaccent" unicode="&#x17c;" horiz-adv-x="978" 
d="M93 59l2 -5h763l-8 -54h-843l7 44l853 978l-2 5h-673l8 55h753l-7 -48zM689 1324h-95l20 138h95z" />
    <glyph glyph-name="Zcaron" unicode="&#x17d;" horiz-adv-x="1224" 
d="M84 54h897l-8 -54h-966l2 44l1004 1359h-818l8 53h894l-5 -38zM774 1640l212 187h67l-2 -16l-243 -207h-79l-183 209l2 14h71z" />
    <glyph glyph-name="zcaron" unicode="&#x17e;" horiz-adv-x="978" 
d="M93 59l2 -5h763l-8 -54h-843l7 44l853 978l-2 5h-673l8 55h753l-7 -48zM637 1297l212 187h67l-2 -16l-243 -207h-79l-183 209l2 14h71z" />
    <glyph glyph-name="longs" unicode="&#x17f;" horiz-adv-x="422" 
d="M94 0l188.998 1260c16 106 52.5 186 109.5 240s130.5 81 220.5 81c22 0 43.833 -1.33301 65.5 -4s41.834 -7 60.501 -13l-16 -52c-20 5.33301 -38.167 9.16602 -54.5 11.499s-37.166 3.5 -62.499 3.5c-69.333 0 -128.5 -23.833 -177.5 -71.5
s-79.5 -112.834 -91.5 -195.501l-189 -1260h-54z" />
    <glyph glyph-name="florin" unicode="&#x192;" horiz-adv-x="644" 
d="M662 1027h-285.999l-156 -1116c-16.667 -115.333 -53.834 -202.166 -111.501 -260.499s-131.834 -87.5 -222.501 -87.5c-18.667 0 -36.667 1.66699 -54 5s-35.666 8.33301 -54.999 15l20 52c12 -4 26.833 -8 44.5 -12s34.834 -6 51.501 -6
c71.333 0 131.166 25.833 179.499 77.5s79.5 123.834 93.5 216.501l156 1116h-188l7 55h188l25 178c14.667 106 50.5 186 107.5 240s130.5 81 220.5 81c21.333 0 43 -1.33301 65 -4s42.333 -7 61 -13l-15 -52c-20.667 5.33301 -39 9.16602 -55 11.499s-36.667 3.5 -62 3.5
c-69.333 0 -128.5 -23.833 -177.5 -71.5s-79.167 -112.834 -90.5 -195.501l-25 -178h286z" />
    <glyph glyph-name="Ohorn" unicode="&#x1a0;" horiz-adv-x="1451" 
d="M1275 619c-30.667 -204 -102.495 -361.669 -215.495 -473.002s-255.833 -167 -428.5 -167c-164.667 0 -288.834 58.167 -372.501 174.5s-110.834 271.5 -81.501 465.5l33 218c30 203.333 101.5 360.833 214.5 472.5s256.167 167.5 429.5 167.5
c95.333 0 178.166 -20.833 248.499 -62.5s124.166 -100.5 161.499 -176.5c100 2 182.333 34.333 247 97s106 151.334 124 266.001h46l3 -6c-18 -129.333 -61.333 -228.166 -130 -296.499s-158.334 -106.166 -269.001 -113.499c16.667 -48.667 27 -102.334 31 -161.001
s1.33301 -121 -8 -187zM1254 838.998c27.333 186 6.16797 329.833 -63.499 431.5s-184.834 152.5 -345.501 152.5c-152 0 -280 -53.167 -384 -159.5s-169.333 -247.833 -196 -424.5l-33 -220c-28.667 -187.333 -8 -331.833 62 -433.5s185 -152.5 345 -152.5
c152.667 0 281 53.167 385 159.5s169.667 248.5 197 426.5z" />
    <glyph glyph-name="ohorn" unicode="&#x1a1;" horiz-adv-x="1122" 
d="M91 562c24.667 164.667 87.666 295.833 188.999 393.5s223 146.5 365 146.5c65.333 0 125 -13 179 -39s99 -62.667 135 -110c90 0 164.167 26.333 222.5 79s94.833 127.334 109.5 224.001h47l2 -6c-14 -109.333 -51.167 -193.333 -111.5 -252
s-139.166 -91.334 -236.499 -98.001c24 -46.667 40 -98.667 48 -156s7.33301 -118 -2 -182l-6 -42c-25.333 -165.333 -88.5 -296.833 -189.5 -394.5s-222.167 -146.5 -363.5 -146.5c-135.333 0 -240.833 50.833 -316.5 152.5s-101.5 231.167 -77.5 388.5zM138.999 519.999
c-21.333 -140.667 -1.16895 -256.998 60.498 -348.998s157.5 -138 287.5 -138c121.333 0 228.333 47.667 321 143s149.334 210 170.001 344l6 42c20.667 137.333 0 252.666 -62 345.999s-157 140 -285 140c-122 0 -229.667 -48.333 -323 -145
s-149.666 -210.334 -168.999 -341.001z" />
    <glyph glyph-name="Uhorn" unicode="&#x1af;" horiz-adv-x="1365" 
d="M1743 1621l2.00098 -6.00098c-18.667 -137.333 -67.334 -240 -146.001 -308s-181 -100.333 -307 -97l-6 3l7 45c110 0 200.333 31.333 271 94s115 152.334 133 269.001h46zM1318 1456l-144.998 -967.002c-24.667 -166 -89.334 -292.5 -194.001 -379.5
s-231 -130.5 -379 -130.5c-141.333 0 -253 45.5 -335 136.5s-111 215.5 -87 373.5l145 967h54l-145 -967c-22 -143.333 2.5 -255.166 73.5 -335.499s171.833 -120.5 302.5 -120.5c123.333 0 234.166 41.833 332.499 125.5s157.833 193.834 178.5 330.501l145 967h54z" />
    <glyph glyph-name="uhorn" unicode="&#x1b0;" 
d="M1380 1270l1.99902 -6c-15.333 -116.667 -55.833 -206.167 -121.5 -268.5s-151.5 -96.5 -257.5 -102.5l-67 -448h3c2 10.667 1 4.66699 -3 -18s-7 -38 -9 -46l-57 -381h-45l20 185c-44 -66.667 -99.833 -117.667 -167.5 -153s-146.5 -53 -236.5 -53
c-107.333 0 -187.666 40 -240.999 120s-67.333 202 -42 366l92 617h54l-93 -619c-23.333 -152.667 -13.333 -262.5 30 -329.5s112 -100.5 206 -100.5c107.333 0 196 27.833 266 83.5s120.667 128.5 152 218.5l112 747h55l-20 -125l6 -3
c83.333 3.33301 152.833 32.5 208.5 87.5s91.167 131.167 106.5 228.5h47z" />
    <glyph glyph-name="uni01F0" unicode="&#x1f0;" horiz-adv-x="422" 
d="M322 1082l-175.002 -1171c-18 -115.333 -56 -202.166 -114 -260.499s-132.667 -87.5 -224 -87.5c-18.667 0 -36.667 1.66699 -54 5s-35.666 8.33301 -54.999 15l21 52c12 -4 27 -8 45 -12s35.333 -6 52 -6c71.333 0 131.333 25.833 180 77.5
s80.334 123.834 95.001 216.501l175 1171h54zM319.998 1278l212 187h67l-2 -16l-243 -207h-79l-183 209l2 14h71z" />
    <glyph glyph-name="Aringacute" unicode="&#x1fa;" horiz-adv-x="1223" 
d="M952 435h-711l-228 -435h-59l762 1456h66l327 -1456h-59zM269 489h671l-182 815l-15 84l-6 1l-40 -85zM993 2080h68l3 -6l-212 -215h-58l-3 6zM643 1663c5.33301 40 23.666 73.667 54.999 101s66.333 41 105 41c35.333 0 64.833 -14.167 88.5 -42.5
s32.834 -61.5 27.501 -99.5c-6 -40 -24.333 -73 -55 -99s-65 -39 -103 -39c-37.333 0 -67.833 13.5 -91.5 40.5s-32.5 59.5 -26.5 97.5zM694 1663c-4 -26 1.16699 -47.167 15.5 -63.5s33.833 -24.5 58.5 -24.5c23.333 0 44.833 8.33301 64.5 25s31.5 37.667 35.5 63
c3.33301 27.333 -2 49.333 -16 66s-33 25 -57 25s-46 -8.83301 -66 -26.5s-31.667 -39.167 -35 -64.5z" />
    <glyph glyph-name="aringacute" unicode="&#x1fb;" horiz-adv-x="1081" 
d="M800 199c-46.667 -65.333 -109.999 -118.335 -189.999 -159.002s-172.667 -61 -278 -61c-96.667 0 -170.5 27.833 -221.5 83.5s-69.5 129.5 -55.5 221.5c13.333 94 67.166 170.833 161.499 230.5s206.5 89.5 336.5 89.5h308l24 158c14 93.333 -3.83301 164.333 -53.5 213
s-127.5 73 -233.5 73c-94 0 -175.333 -23.833 -244 -71.5s-108.667 -108.5 -120 -182.5l-45 2l-1 5c9.33301 86.667 52.5 158.5 129.5 215.5s173.167 85.5 288.5 85.5c112 0 199.5 -29.667 262.5 -89s86.5 -143.666 70.5 -252.999l-81 -542
c-6 -39.333 -9.66699 -76.666 -11 -111.999s0.666992 -70.666 6 -105.999h-60c-1.33301 56 -1.83301 93.667 -1.5 113s2.5 42.666 6.5 69.999zM340.001 31.998c103.333 0 196.5 23.832 279.5 71.499s148.5 114.834 196.5 201.501l37 244h-306c-108 0 -205.5 -26 -292.5 -78
s-135.833 -115.667 -146.5 -191c-11.333 -75.333 4 -135.5 46 -180.5s104 -67.5 186 -67.5zM867.001 1760h68l3 -6l-212 -215h-58l-3 6zM517.001 1343c5.33301 40 23.666 73.667 54.999 101s66.333 41 105 41c35.333 0 64.833 -14.167 88.5 -42.5s32.834 -61.5 27.501 -99.5
c-6 -40 -24.333 -73 -55 -99s-65 -39 -103 -39c-37.333 0 -67.833 13.5 -91.5 40.5s-32.5 59.5 -26.5 97.5zM568.001 1343c-4 -26 1.16699 -47.167 15.5 -63.5s33.833 -24.5 58.5 -24.5c23.333 0 44.833 8.33301 64.5 25s31.5 37.667 35.5 63
c3.33301 27.333 -2 49.333 -16 66s-33 25 -57 25s-46 -8.83301 -66 -26.5s-31.667 -39.167 -35 -64.5z" />
    <glyph glyph-name="AEacute" unicode="&#x1fc;" horiz-adv-x="1816" 
d="M1688 0h-752l46 425h-628l-319 -425h-65l1099 1456h776l-8 -54h-696l-66 -616h588l-8 -54h-586l-73 -678h700zM394 478h593l100 922l-6 2l-71 -104zM1334 1862h77l2 -6l-268 -260h-66l-3 6z" />
    <glyph glyph-name="aeacute" unicode="&#x1fd;" horiz-adv-x="1802" 
d="M1215 -21c-92 0 -169.167 22.667 -231.5 68s-105.5 108.333 -129.5 189l-3 -18h1c-38.667 -63.333 -98 -119 -178 -167s-173 -72 -279 -72c-108.667 0 -191 27.667 -247 83s-76.667 129.333 -62 222c14 96 61.667 170.5 143 223.5s192 79.5 332 79.5h290l20 133
c16 108 4.33301 189.667 -35 245s-105.333 83 -198 83c-98 0 -181 -26.167 -249 -78.5s-107.667 -118.5 -119 -198.5l-44 6l-2 6c11.333 95.333 55.333 172.333 132 231s173.334 88 290.001 88c83.333 0 150.833 -24.333 202.5 -73s79.5 -118.667 83.5 -210
c47.333 88.667 109.5 158 186.5 208s160.167 75 249.5 75c120.667 0 212.167 -39.833 274.5 -119.5s83.5 -187.167 63.5 -322.5l-12 -83h-787c0 -2 -0.333008 -4.5 -1 -7.5s-1 -4.83301 -1 -5.5l-10 -64c-22 -143.333 -6.33301 -257 47 -341s147 -126 281 -126
c65.333 0 128.833 11.667 190.5 35s115.5 55.333 161.5 96l23 -42c-49.333 -44 -103.833 -78.833 -163.5 -104.5s-132.834 -38.5 -219.501 -38.5zM402 31c82.667 0 164 21.998 244 65.998s130 86.667 150 128l46 307h-287c-118.667 0 -215 -24.167 -289 -72.5
s-116 -108.166 -126 -179.499c-12 -81.333 4.33301 -143.166 49 -185.499s115.667 -63.5 213 -63.5zM1360 1048c-102 0 -193.5 -39.168 -274.5 -117.501s-134.833 -175.833 -161.5 -292.5l2 -6h722l5 32c17.333 116.667 1 209.834 -49 279.501s-131.333 104.5 -244 104.5z
M1203 1541h77l2 -6l-268 -260h-66l-3 6z" />
    <glyph glyph-name="Oslashacute" unicode="&#x1fe;" horiz-adv-x="1364" 
d="M1244 619c-30.667 -204 -102.499 -361.667 -215.499 -473s-255.833 -167 -428.5 -167c-63.333 0 -121.333 8.83301 -174 26.5s-98.334 44.167 -137.001 79.5l-126 -160h-66l155 197c-50 56.667 -84.333 127.167 -103 211.5s-19.667 179.5 -3 285.5l33 218
c30 203.333 101.5 360.833 214.5 472.5s256.167 167.5 429.5 167.5c78 0 148 -14.167 210 -42.5s113.333 -68.5 154 -120.5l142 181h66l-178 -227c31.333 -55.333 52.333 -119.5 63 -192.5s9.66699 -152.5 -3 -238.5zM201.001 619c-16 -101.333 -17.167 -190.333 -3.5 -267
s41.5 -138 83.5 -184l6 -1l869 1108c-35.333 48 -81.5 84.667 -138.5 110s-124.833 38 -203.5 38c-152 0 -280 -53.167 -384 -159.5s-169.333 -247.833 -196 -424.5zM1223 839c11.333 79.333 14 151.5 8 216.5s-21 119.833 -45 164.5l-6 2l-861 -1098
c34 -30.667 75.333 -53.5 124 -68.5s103.667 -22.5 165 -22.5c152.667 0 281 53.167 385 159.5s169.667 248.5 197 426.5zM1084 1924h77l2 -6l-268 -260h-66l-3 6z" />
    <glyph glyph-name="oslashacute" unicode="&#x1ff;" 
d="M91 562c24.667 164.667 87.6699 295.834 189.003 393.501s223 146.5 365 146.5c39.333 0 77.166 -5 113.499 -15s69.833 -24.333 100.5 -43l112 175h63l-132 -207c56 -48 96.333 -111 121 -189s29.667 -165 15 -261l-6 -42
c-25.333 -165.333 -88.5 -296.833 -189.5 -394.5s-222.167 -146.5 -363.5 -146.5c-38 0 -74 4.16699 -108 12.5s-65.333 21.166 -94 38.499l-111 -175h-63l130 204c-60.667 46.667 -104.334 110.167 -131.001 190.5s-32.334 170.5 -17.001 270.5zM139.003 520
c-14 -90 -10.502 -171 10.498 -243s57.833 -127.333 110.5 -166l6 -1l564 887c-26.667 16.667 -56.167 29.334 -88.5 38.001s-67.166 13 -104.499 13c-122 0 -229.667 -48.333 -323 -145s-149.666 -210.334 -168.999 -341.001zM984.001 562c12 84 8.49902 161 -10.501 231
s-52.167 125 -99.5 165l-6 1l-562 -884c25.333 -14 53 -24.5 83 -31.5s62.667 -10.5 98 -10.5c121.333 0 228.333 47.667 321 143s149.334 210 170.001 344zM824 1539h77l2 -6l-268 -260h-66l-3 6z" />
    <glyph glyph-name="Scommaaccent" unicode="&#x218;" horiz-adv-x="1223" 
d="M1055 303c14.667 98.667 -6 175.33 -62 229.997s-165 111.667 -327 171c-158 56 -271.833 114.5 -341.5 175.5s-95.167 151.5 -76.5 271.5c14.667 100.667 66 180.167 154 238.5s193.333 87.5 316 87.5c139.333 0 249 -38 329 -114s108.667 -179.333 86 -310l-3 -6h-46
c16.667 112.667 -9.33301 203.5 -78 272.5s-167.667 103.5 -297 103.5c-106 0 -197.667 -27.167 -275 -81.5s-121.333 -117.166 -132 -188.499c-14.667 -96.667 4.5 -173.167 57.5 -229.5s160.833 -112.833 323.5 -169.5c154 -53.333 267.833 -113.166 341.5 -179.499
s102.167 -156.166 85.5 -269.499c-16 -103.333 -71.167 -183.5 -165.5 -240.5s-208.833 -85.5 -343.5 -85.5s-248.667 34.5 -342 103.5s-127.666 175.833 -102.999 320.5l2 6h46c-20.667 -136.667 10.666 -233.5 93.999 -290.5s187 -85.5 311 -85.5c112 0 211.5 27 298.5 81
s136.167 117 147.5 189zM526 -270.004l-77 -186h-50l72 182l16 109h54z" />
    <glyph glyph-name="scommaaccent" unicode="&#x219;" horiz-adv-x="1019" 
d="M797 265c8 58.667 -8.99707 111.001 -50.9971 157.001s-122.667 82.667 -242 110c-124.667 27.333 -212.834 62.5 -264.501 105.5s-71.5 106.833 -59.5 191.5c10.667 80.667 52.167 146.334 124.5 197.001s164.166 76 275.499 76c114.667 0 203.5 -28.333 266.5 -85
s86.833 -129.334 71.5 -218.001l-2 -6h-47c10 73.333 -11 134.166 -63 182.499s-129.667 72.5 -233 72.5c-97.333 0 -176.333 -22.167 -237 -66.5s-94.667 -94.5 -102 -150.5c-8 -58.667 7.16699 -107.5 45.5 -146.5s120.833 -73.5 247.5 -103.5
c117.333 -28 203.666 -66.333 258.999 -115s77 -116 65 -202c-12.667 -88 -56.834 -157.5 -132.501 -208.5s-171.5 -76.5 -287.5 -76.5c-121.333 0 -215 28.5 -281 85.5s-91 125.167 -75 204.5l2 6h45c-6.66699 -85.333 21.333 -147 84 -185s140.334 -57 233.001 -57
c96 0 177.5 23.5 244.5 70.5s104.833 100.833 113.5 161.5zM416.003 -264.999l-77 -186h-50l72 182l16 109h54z" />
    <glyph glyph-name="uni0237" unicode="&#x237;" horiz-adv-x="422" 
d="M322 1082l-175.002 -1171c-18 -115.333 -56 -202.166 -114 -260.499s-132.667 -87.5 -224 -87.5c-18.667 0 -36.667 1.66699 -54 5s-35.666 8.33301 -54.999 15l21 52c12 -4 27 -8 45 -12s35.333 -6 52 -6c71.333 0 131.333 25.833 180 77.5
s80.334 123.834 95.001 216.501l175 1171h54z" />
    <glyph glyph-name="uni02BC" unicode="&#x2bc;" horiz-adv-x="430" 
d="M369 1290l-91 -271h-50l86 268l25 169h54z" />
    <glyph glyph-name="circumflex" unicode="&#x2c6;" horiz-adv-x="796" 
d="M766 1265l-2 -13h-70l-157 186l-211 -186h-66l2 17l241 206h80z" />
    <glyph glyph-name="caron" unicode="&#x2c7;" horiz-adv-x="764" 
d="M499 1288l212 187h67l-2 -16l-243 -207h-79l-183 209l2 14h71z" />
    <glyph glyph-name="breve" unicode="&#x2d8;" horiz-adv-x="857" 
d="M824 1456l2 -6c-8 -74 -39.5 -132.833 -94.5 -176.5s-125.5 -65.5 -211.5 -65.5c-82.667 0 -146.5 22.667 -191.5 68s-60.833 103.333 -47.5 174l3 6h46c-8.66699 -59.333 2.5 -106.166 33.5 -140.499s85.833 -51.5 164.5 -51.5c71.333 0 129 18.167 173 54.5
s70 82.166 78 137.499h45z" />
    <glyph glyph-name="dotaccent" unicode="&#x2d9;" horiz-adv-x="429" 
d="M368 1318h-95l20 138h95z" />
    <glyph glyph-name="ring" unicode="&#x2da;" horiz-adv-x="660" 
d="M325 1338c5.33301 39.333 23.3311 72.333 53.998 99s65 40 103 40c34.667 0 63.334 -13.833 86.001 -41.5s31.334 -60.167 26.001 -97.5c-6 -39.333 -24 -71.666 -54 -96.999s-63.333 -38 -100 -38c-36 0 -65.667 13.167 -89 39.5s-32 58.166 -26 95.499zM381.998 1338
c-4 -24 0.499023 -43.167 13.499 -57.5s30.833 -21.5 53.5 -21.5c20.667 0 39.5 7.5 56.5 22.5s27.5 33.833 31.5 56.5c3.33301 24 -1.16699 43.667 -13.5 59s-29.166 23 -50.499 23s-41 -7.83301 -59 -23.5s-28.667 -35.167 -32 -58.5z" />
    <glyph glyph-name="ogonek" unicode="&#x2db;" horiz-adv-x="471" 
d="M233 0c-57.333 -46 -100.5 -84.834 -129.5 -116.501s-46.167 -67.167 -51.5 -106.5c-3.33301 -14 -0.833008 -30.833 7.5 -50.5s29.833 -29.5 64.5 -29.5c22 0 42.333 3.66699 61 11s36.667 16.333 54 27l9 -48c-18 -12 -37.833 -22.333 -59.5 -31s-46.167 -13 -73.5 -13
c-39.333 0 -70.333 11.833 -93 35.5s-30.667 56.5 -24 98.5c5.33301 42 25 83.333 59 124s76.333 80.334 127 119.001z" />
    <glyph glyph-name="tilde" unicode="&#x2dc;" horiz-adv-x="818" 
d="M845 1472c-8 -57.333 -31.167 -102.666 -69.5 -135.999s-82.5 -50 -132.5 -50c-47.333 0 -94.666 20.833 -141.999 62.5s-89.666 62.5 -126.999 62.5c-34 0 -64.667 -12.5 -92 -37.5s-43.333 -57.5 -48 -97.5l-54 10c7.33301 56 29.666 99.833 66.999 131.5
s82 47.5 134 47.5c45.333 0 92.666 -20.667 141.999 -62s92 -62 128 -62c32 0 61.833 13.167 89.5 39.5s44.5 60.166 50.5 101.499z" />
    <glyph glyph-name="hungarumlaut" unicode="&#x2dd;" horiz-adv-x="783" 
d="M820 1518h71l2 -6l-331 -260h-64l-2 6zM550 1518h68l2 -6l-287 -260h-61l-2 6z" />
    <glyph glyph-name="uni02F3" unicode="&#x2f3;" horiz-adv-x="642" 
d="M73 -219c4.66699 34 22.1689 62.501 52.502 85.501s64.5 34.5 102.5 34.5c34.667 0 63.667 -11.833 87 -35.5s32.666 -51.834 27.999 -84.501c-5.33301 -33.333 -22.5 -61 -51.5 -83s-61.833 -33 -98.5 -33c-36 0 -66.333 11.5 -91 34.5s-34.334 50.167 -29.001 81.5z
M131.002 -218.999c-2.66699 -18 2.66406 -32.501 15.9971 -43.501s31.333 -16.5 54 -16.5c20.667 0 39.334 5.83301 56.001 17.5s26.334 25.834 29.001 42.501c2.66699 18.667 -2.5 33.667 -15.5 45s-30.167 17 -51.5 17s-40.666 -5.83301 -57.999 -17.5
s-27.333 -26.5 -30 -44.5z" />
    <glyph glyph-name="gravecomb" unicode="&#x300;" horiz-adv-x="0" 
d="M-432.319 1264.76h-55.5645l-136.2 290.808h65.0508z" />
    <glyph glyph-name="acutecomb" unicode="&#x301;" horiz-adv-x="0" 
d="M-329.866 1555.64h52.1621l1.35449 -6.55566l-181.551 -284.089h-44.71l-2.03223 6.55566z" />
    <glyph glyph-name="tildecomb" unicode="&#x303;" horiz-adv-x="0" 
d="M-52 1472c-8 -57.333 -31.167 -102.666 -69.5 -135.999s-82.5 -50 -132.5 -50c-47.333 0 -94.666 20.833 -141.999 62.5s-89.666 62.5 -126.999 62.5c-34 0 -64.667 -12.5 -92 -37.5s-43.333 -57.5 -48 -97.5l-54 10c7.33301 56 29.666 99.833 66.999 131.5
s82 47.5 134 47.5c45.333 0 92.666 -20.667 141.999 -62s92 -62 128 -62c32 0 61.833 13.167 89.5 39.5s44.5 60.166 50.5 101.499z" />
    <glyph glyph-name="hook" unicode="&#x309;" horiz-adv-x="0" 
d="M-494 1227l15.002 99.0029c69.333 5.33301 119.666 16.166 150.999 32.499s49.666 43.5 54.999 81.5c6 38 -13.667 65.833 -59 83.5s-99 26.5 -161 26.5l15 49c86 0 153 -13.833 201 -41.5s68 -66.834 60 -117.501c-7.33301 -50.667 -31 -88.834 -71 -114.501
s-90 -40.5 -150 -44.5l-8 -54h-48z" />
    <glyph glyph-name="uni030F" unicode="&#x30f;" horiz-adv-x="0" 
d="M-495 1258l-3 -6h-65l-253 260l3 6h72zM-265 1252h-69l-209 261l3 5h69z" />
    <glyph glyph-name="dotbelow" unicode="&#x323;" horiz-adv-x="0" 
d="M-655 -295h-95l20 138h95z" />
    <glyph glyph-name="tonos" unicode="&#x384;" horiz-adv-x="514" 
d="M409 1516h106l-133 -181h-33z" />
    <glyph glyph-name="dieresistonos" unicode="&#x385;" horiz-adv-x="928" 
d="M893 1348h-126l16 108h126zM414 1348h-127l16 108h127zM635 1657h130l3 -5l-141 -175h-42z" />
    <glyph glyph-name="Alphatonos" unicode="&#x386;" horiz-adv-x="1223" 
d="M952 435h-711l-228 -435h-59l762 1456h66l327 -1456h-59zM269 489h671l-182 815l-15 84l-6 1l-40 -85zM430 1515h106l-133 -181h-33z" />
    <glyph glyph-name="anoteleia" unicode="&#x387;" horiz-adv-x="472" 
d="M303 624h-118l22 152h118z" />
    <glyph glyph-name="Epsilontonos" unicode="&#x388;" horiz-adv-x="1129" 
d="M984 732h-701l-101 -678h802l-8 -54h-856l218 1456h856l-8 -54h-802l-93 -616h701zM152 1517h106l-133 -181h-33z" />
    <glyph glyph-name="Etatonos" unicode="&#x389;" horiz-adv-x="1438" 
d="M1158 0h-54l104 695h-930l-104 -695h-54l218 1456h54l-106 -707h930l106 707h54zM199 1517h106l-133 -181h-33z" />
    <glyph glyph-name="Iotatonos" unicode="&#x38a;" horiz-adv-x="534" 
d="M214 0h-54l218 1456h54zM192 1512h106l-133 -181h-33z" />
    <glyph glyph-name="Omicrontonos" unicode="&#x38c;" horiz-adv-x="1364" 
d="M1244 619c-30.667 -204 -102.497 -361.667 -215.497 -473s-255.833 -167 -428.5 -167c-164.667 0 -288.834 58.167 -372.501 174.5s-110.834 271.5 -81.501 465.5l33 218c30 203.333 101.5 360.833 214.5 472.5s256.167 167.5 429.5 167.5
c164.667 0 288.667 -58.167 372 -174.5s110.666 -271.5 81.999 -465.5zM1223 839c27.333 186 6.16797 329.833 -63.499 431.5s-184.834 152.5 -345.501 152.5c-152 0 -280 -53.167 -384 -159.5s-169.333 -247.833 -196 -424.5l-33 -220
c-28.667 -187.333 -8 -331.833 62 -433.5s185 -152.5 345 -152.5c152.667 0 281 53.167 385 159.5s169.667 248.5 197 426.5zM343.005 1515h106l-133 -181h-33z" />
    <glyph glyph-name="Upsilontonos" unicode="&#x38e;" horiz-adv-x="1223" 
d="M600 647l19 -50l34 50l604 809h66l-682 -902l-83 -554h-55l83 553l-412 903h66zM49 1515h106l-133 -181h-33z" />
    <glyph glyph-name="Omegatonos" unicode="&#x38f;" horiz-adv-x="1321" 
d="M689 54l4.00098 24.001c110 51.333 206.833 128 290.5 230s139.167 243.333 166.5 424l18 119c24.667 169.333 2.66699 307 -66 413s-173.334 159 -314.001 159c-134 0 -252.833 -55 -356.5 -165s-167.5 -245.667 -191.5 -407l-18 -119
c-28.667 -188.667 -16 -331.667 38 -429s130.333 -172.333 229 -225l-9 -59l-3 -19h-435l8 54h367c-92.667 58 -164 142.167 -214 252.5s-61.667 252.166 -35 425.499l17 117c29.333 195.333 99.5 348.833 210.5 460.5s244.833 167.5 401.5 167.5
c148 0 262.667 -58.167 344 -174.5s108 -267.5 80 -453.5l-17 -117c-27.333 -180 -81.333 -323.5 -162 -430.5s-175.667 -189.5 -285 -247.5h366l-8 -54h-434zM310.001 1515h106l-133 -181h-33z" />
    <glyph glyph-name="iotadieresistonos" unicode="&#x390;" horiz-adv-x="565" 
d="M307 1081l-119.998 -802c-14.667 -93.333 -8.83398 -157.666 17.499 -192.999s69.833 -53 130.5 -53c17.333 0 33.666 0.666992 48.999 2s35 3.66602 59 6.99902l2 -50c-17.333 -4.66699 -35.5 -8 -54.5 -10s-39.167 -3 -60.5 -3c-80.667 0 -138 23.5 -172 70.5
s-42.667 123.5 -26 229.5l120 802h55zM611.002 1275h-126l16 108h126zM132.002 1275h-127l16 108h127zM353.002 1584h130l3 -5l-141 -175h-42z" />
    <glyph glyph-name="Alpha" unicode="&#x391;" horiz-adv-x="1223" 
d="M952 435h-711l-228 -435h-59l762 1456h66l327 -1456h-59zM269 489h671l-182 815l-15 84l-6 1l-40 -85z" />
    <glyph glyph-name="Beta" unicode="&#x392;" horiz-adv-x="1230" 
d="M120 0l218 1456h383c145.333 0 256.333 -31.333 333 -94s105.667 -155.667 87 -279c-12.667 -84 -42.834 -154.167 -90.501 -210.5s-109.5 -93.833 -185.5 -112.5l-2 -6c84.667 -11.333 151.167 -50.833 199.5 -118.5s65.833 -145.834 52.5 -234.501
c-20 -132 -75.667 -231.833 -167 -299.5s-205.666 -101.5 -342.999 -101.5h-485zM281 719.001l-98.999 -664.997h431c118 0 218 30.667 300 92s131.333 145.666 148 252.999c14 97.333 -8.33301 174.166 -67 230.499s-146.334 86.166 -263.001 89.499h-18h-432z
M289.001 773.004h368.001c122.667 2 221.167 29.167 295.5 81.5s119.166 129.833 134.499 232.5c16 108 -7.33301 187.5 -70 238.5s-164 76.5 -304 76.5h-329z" />
    <glyph glyph-name="Gamma" unicode="&#x393;" horiz-adv-x="1122" 
d="M1185 1402h-808l-210 -1402h-54l218 1456h862z" />
    <glyph glyph-name="Delta" unicode="&#x394;" horiz-adv-x="1411" 
d="M877 1456l399 -1456h-1298l834 1456h65zM68 54h1133l-346 1271l-17 72h-6l-37 -72z" />
    <glyph glyph-name="Delta" unicode="&#x2206;" horiz-adv-x="1411" 
d="M877 1456l399 -1456h-1298l834 1456h65zM68 54h1133l-346 1271l-17 72h-6l-37 -72z" />
    <glyph glyph-name="Epsilon" unicode="&#x395;" horiz-adv-x="1129" 
d="M984 732h-701l-101 -678h802l-8 -54h-856l218 1456h856l-8 -54h-802l-93 -616h701z" />
    <glyph glyph-name="Zeta" unicode="&#x396;" horiz-adv-x="1224" 
d="M84 54h897l-8 -54h-966l2 44l1004 1359h-818l8 53h894l-5 -38z" />
    <glyph glyph-name="Eta" unicode="&#x397;" horiz-adv-x="1438" 
d="M1158 0h-54l104 695h-930l-104 -695h-54l218 1456h54l-106 -707h930l106 707h54z" />
    <glyph glyph-name="Theta" unicode="&#x398;" horiz-adv-x="1364" 
d="M995 691h-591l8 53h591zM1244 619c-30.667 -204 -102.497 -361.667 -215.497 -473s-255.833 -167 -428.5 -167c-164.667 0 -288.834 58.167 -372.501 174.5s-110.834 271.5 -81.501 465.5l33 218c30 203.333 101.5 360.833 214.5 472.5s256.167 167.5 429.5 167.5
c164.667 0 288.667 -58.167 372 -174.5s110.666 -271.5 81.999 -465.5zM1223 839c27.333 186 6.16797 329.833 -63.499 431.5s-184.834 152.5 -345.501 152.5c-152 0 -280 -53.167 -384 -159.5s-169.333 -247.833 -196 -424.5l-33 -220
c-28.667 -187.333 -8 -331.833 62 -433.5s185 -152.5 345 -152.5c152.667 0 281 53.167 385 159.5s169.667 248.5 197 426.5z" />
    <glyph glyph-name="Iota" unicode="&#x399;" horiz-adv-x="534" 
d="M214 0h-54l218 1456h54z" />
    <glyph glyph-name="Kappa" unicode="&#x39a;" horiz-adv-x="1227" 
d="M473 721h-210l-108 -721h-54l218 1456h54l-102 -682h212l682 682h68l2 -6l-708 -710l531 -740h-68z" />
    <glyph glyph-name="Lambda" unicode="&#x39b;" horiz-adv-x="1313" 
d="M66 0h-59l752 1456h65l317 -1456h-59l-283 1304l-15 83l-6 1l-39 -84z" />
    <glyph glyph-name="Mu" unicode="&#x39c;" horiz-adv-x="1756" 
d="M814 86l6 -1l813 1371h61l-218 -1456h-54l198 1322l-6 2l-788 -1324h-43l-401 1353l-6 -1l-202 -1352h-54l218 1456h75z" />
    <glyph glyph-name="Nu" unicode="&#x39d;" horiz-adv-x="1449" 
d="M1169 0h-54l-731 1356l-6 -1l-203 -1355h-55l218 1456h55l731 -1354l6 1l203 1353h54z" />
    <glyph glyph-name="Xi" unicode="&#x39e;" 
d="M40 54h905l-8 -54h-905zM251 741h681l-8 -54h-681zM271 1456h845l-8 -53h-845z" />
    <glyph glyph-name="Omicron" unicode="&#x39f;" horiz-adv-x="1364" 
d="M1244 619c-30.667 -204 -102.497 -361.667 -215.497 -473s-255.833 -167 -428.5 -167c-164.667 0 -288.834 58.167 -372.501 174.5s-110.834 271.5 -81.501 465.5l33 218c30 203.333 101.5 360.833 214.5 472.5s256.167 167.5 429.5 167.5
c164.667 0 288.667 -58.167 372 -174.5s110.666 -271.5 81.999 -465.5zM1223 839c27.333 186 6.16797 329.833 -63.499 431.5s-184.834 152.5 -345.501 152.5c-152 0 -280 -53.167 -384 -159.5s-169.333 -247.833 -196 -424.5l-33 -220
c-28.667 -187.333 -8 -331.833 62 -433.5s185 -152.5 345 -152.5c152.667 0 281 53.167 385 159.5s169.667 248.5 197 426.5z" />
    <glyph glyph-name="Pi" unicode="&#x3a0;" horiz-adv-x="1438" 
d="M1158 0h-54l210 1402h-930l-210 -1402h-54l218 1456h1038z" />
    <glyph glyph-name="Rho" unicode="&#x3a1;" horiz-adv-x="1230" 
d="M267 625l-93.001 -625h-54l218 1456h455c145.333 0 254.333 -38.333 327 -115s99.667 -176.667 81 -300c-19.333 -131.333 -74.666 -233.5 -165.999 -306.5s-213.333 -109.5 -366 -109.5h-402zM274.999 679h402c132 0 239.5 34.667 322.5 104
s132.167 154.666 147.5 255.999c16 108.667 -5.33301 196.334 -64 263.001s-158 100 -298 100h-401z" />
    <glyph glyph-name="Sigma" unicode="&#x3a3;" 
d="M691 768l-625 -709l2 -5h909l-8 -54h-992l7 44l658 743l-453 625l6 44h37l1 -3l1 3h893l-8 -53h-849l428 -588z" />
    <glyph glyph-name="Tau" unicode="&#x3a4;" horiz-adv-x="1224" 
d="M1297 1402h-510l-210 -1402h-54l210 1402h-546l8 54h1110z" />
    <glyph glyph-name="Upsilon" unicode="&#x3a5;" horiz-adv-x="1223" 
d="M600 647l19 -50l34 50l604 809h66l-682 -902l-83 -554h-55l83 553l-412 903h66z" />
    <glyph glyph-name="Phi" unicode="&#x3a6;" horiz-adv-x="1428" 
d="M844 1225c164.667 -4.66699 292.667 -55.501 384 -152.501s126.666 -214.833 105.999 -353.5c-22 -147.333 -91.167 -268.166 -207.5 -362.499s-261.166 -143.5 -434.499 -147.5l-31 -209h-55l31 209c-164.667 5.33301 -292 56.333 -382 153s-124.333 215 -103 355
c21.333 145.333 89.5 265 204.5 359s259.167 143.667 432.5 149l35 231h55zM1279 718.999c19.333 132.667 -10.499 240.167 -89.499 322.5s-196.833 125.5 -353.5 129.5l-135 -900l5 -3c148 1.33301 275.667 44.833 383 130.5s170.666 192.5 189.999 320.5zM207.001 716.999
c-20.667 -134 8.00195 -242.166 86.002 -324.499s195.333 -125.5 352 -129.5l135 900l-5 3c-146.667 -2.66699 -273.334 -46.834 -380.001 -132.501s-169.334 -191.167 -188.001 -316.5z" />
    <glyph glyph-name="Chi" unicode="&#x3a7;" horiz-adv-x="1223" 
d="M648 785l571 671h60l2 -5l-605 -708l413 -743h-67l-387 701l-596 -701h-59l-2 5l630 738l-397 713h68z" />
    <glyph glyph-name="Psi" unicode="&#x3a8;" horiz-adv-x="1428" 
d="M726 440l6 -2.99805c133.333 0 251.833 43 355.5 129s166.5 199.333 188.5 340l82 550h54l-82 -550c-25.333 -170 -93.5 -300.167 -204.5 -390.5s-247.167 -136.833 -408.5 -139.5l-56 -376h-55l56 376c-152.667 4.66699 -272 54 -358 148s-116.667 221.333 -92 382
l82 550h55l-82 -550c-22 -146.667 4 -261.334 78 -344.001s180.667 -124.334 320 -125.001l6 1l153 1018h55z" />
    <glyph glyph-name="Omega" unicode="&#x3a9;" horiz-adv-x="1321" 
d="M689 54l4.00098 24.001c110 51.333 206.833 128 290.5 230s139.167 243.333 166.5 424l18 119c24.667 169.333 2.66699 307 -66 413s-173.334 159 -314.001 159c-134 0 -252.833 -55 -356.5 -165s-167.5 -245.667 -191.5 -407l-18 -119
c-28.667 -188.667 -16 -331.667 38 -429s130.333 -172.333 229 -225l-9 -59l-3 -19h-435l8 54h367c-92.667 58 -164 142.167 -214 252.5s-61.667 252.166 -35 425.499l17 117c29.333 195.333 99.5 348.833 210.5 460.5s244.833 167.5 401.5 167.5
c148 0 262.667 -58.167 344 -174.5s108 -267.5 80 -453.5l-17 -117c-27.333 -180 -81.333 -323.5 -162 -430.5s-175.667 -189.5 -285 -247.5h366l-8 -54h-434z" />
    <glyph glyph-name="Omega" unicode="&#x2126;" horiz-adv-x="1321" 
d="M689 54l4.00098 24.001c110 51.333 206.833 128 290.5 230s139.167 243.333 166.5 424l18 119c24.667 169.333 2.66699 307 -66 413s-173.334 159 -314.001 159c-134 0 -252.833 -55 -356.5 -165s-167.5 -245.667 -191.5 -407l-18 -119
c-28.667 -188.667 -16 -331.667 38 -429s130.333 -172.333 229 -225l-9 -59l-3 -19h-435l8 54h367c-92.667 58 -164 142.167 -214 252.5s-61.667 252.166 -35 425.499l17 117c29.333 195.333 99.5 348.833 210.5 460.5s244.833 167.5 401.5 167.5
c148 0 262.667 -58.167 344 -174.5s108 -267.5 80 -453.5l-17 -117c-27.333 -180 -81.333 -323.5 -162 -430.5s-175.667 -189.5 -285 -247.5h366l-8 -54h-434z" />
    <glyph glyph-name="Iotadieresis" unicode="&#x3aa;" horiz-adv-x="534" 
d="M214 0h-54l218 1456h54zM742 1673h-136l17 118h136zM273 1673h-137l17 118h137z" />
    <glyph glyph-name="Upsilondieresis" unicode="&#x3ab;" horiz-adv-x="1223" 
d="M600 647l19 -50l34 50l604 809h66l-682 -902l-83 -554h-55l83 553l-412 903h66zM1080 1662h-136l17 118h136zM611 1662h-137l17 118h137z" />
    <glyph glyph-name="alphatonos" unicode="&#x3ac;" horiz-adv-x="1149" 
d="M1032 1081l-50.001 -329.999c0 -0.666992 0.166992 -1.66699 0.5 -3s0.5 -2.33301 0.5 -3l-66 -441l-3 -9l-9 -60c-11.333 -77.333 -8.66602 -130.5 8.00098 -159.5s45 -43.5 85 -43.5c10 0 19.5 0.666992 28.5 2s21.5 4 37.5 8l4 -49c-12 -5.33301 -24 -9 -36 -11
s-25 -3 -39 -3c-52.667 0 -91.5 15.167 -116.5 45.5s-35.833 79.166 -32.5 146.499c-45.333 -58.667 -102 -105.334 -170 -140.001s-144.333 -52 -229 -52c-122 0 -212.833 49.167 -272.5 147.5s-77.167 229.833 -52.5 394.5l3 21c26.667 178 83 315.833 169 413.5
s193.667 146.5 323 146.5c82 0 151.5 -19.667 208.5 -59s99.5 -92.666 127.5 -159.999l46 198h35zM175.999 521.001c-23.333 -154.667 -12.167 -274.668 33.5 -360.001s126.5 -128 242.5 -128c90 0 170 21.333 240 64s124.667 99.334 164 170.001l76 510
c-14.667 76.667 -47 141 -97 193s-126.333 78 -229 78c-110 0 -203.167 -47.333 -279.5 -142s-125.5 -216 -147.5 -364zM766.998 1434h106l-133 -181h-33z" />
    <glyph glyph-name="epsilontonos" unicode="&#x3ad;" horiz-adv-x="1122" 
d="M717 525l-164.999 0.00195312c-122.667 0 -220.167 -19.333 -292.5 -58s-114.5 -98.667 -126.5 -180s11.5 -143.166 70.5 -185.499s149.833 -63.5 272.5 -63.5c111.333 0 208 24.833 290 74.5s129 112.5 141 188.5h44l2 -6c-12 -104 -65.333 -182 -160 -234
s-203.334 -78 -326.001 -78c-124 0 -223.167 27.5 -297.5 82.5s-104.166 129.833 -89.499 224.5c10 71.333 39 129.166 87 173.499s115.333 75.166 202 92.499c-68.667 21.333 -120.334 53.833 -155.001 97.5s-47.667 93.167 -39 148.5
c14.667 98.667 62.334 172.667 143.001 222s186.334 74 317.001 74c115.333 0 211.166 -27.333 287.499 -82s106.166 -125 89.499 -211l-2 -6h-45c11.333 76.667 -15.167 136.667 -79.5 180s-150.5 65 -258.5 65c-115.333 0 -207.5 -22.167 -276.5 -66.5
s-108.5 -101.833 -118.5 -172.5c-11.333 -74.667 9 -130.834 61 -168.501s141 -56.5 267 -56.5h165l-1 -8l-6 -41zM692.001 1433h106l-133 -181h-33z" />
    <glyph glyph-name="etatonos" unicode="&#x3ae;" 
d="M276 870c43.333 74.667 99.167 131.999 167.5 171.999s148.833 60 241.5 60c113.333 0 195 -37.667 245 -113s63.333 -192.666 40 -351.999l-158 -1053h-54l158 1055c23.333 156.667 13.166 264 -30.501 322s-112.834 87 -207.501 87
c-109.333 0 -199.666 -34 -270.999 -102s-124 -154.333 -158 -259l-103 -687h-54l83 554h-2c1.33301 10 2.83301 20.167 4.5 30.5s3.83398 21.833 6.50098 34.5l70 463h46zM720.001 1434h106l-133 -181h-33z" />
    <glyph glyph-name="iotatonos" unicode="&#x3af;" horiz-adv-x="565" 
d="M307 1081l-119.998 -802c-14.667 -93.333 -8.83398 -157.666 17.499 -192.999s69.833 -53 130.5 -53c17.333 0 33.666 0.666992 48.999 2s35 3.66602 59 6.99902l2 -50c-17.333 -4.66699 -35.5 -8 -54.5 -10s-39.167 -3 -60.5 -3c-80.667 0 -138 23.5 -172 70.5
s-42.667 123.5 -26 229.5l120 802h55zM335.002 1413h106l-133 -181h-33z" />
    <glyph glyph-name="upsilondieresistonos" unicode="&#x3b0;" 
d="M304 1082l-89 -596.999c-24.667 -160.667 -12.167 -276.167 37.5 -346.5s127.834 -105.5 234.501 -105.5c121.333 0 217.166 44.5 287.499 133.5s115.833 200.167 136.5 333.5c16.667 110 22 211.667 16 305s-19.667 185.666 -41 276.999h66
c17.333 -98 28.333 -188 33 -270s-2.33301 -185 -21 -309c-24.667 -166.667 -76.5 -295.667 -155.5 -387s-188.167 -137 -327.5 -137c-119.333 0 -209 41.833 -269 125.5s-77 211.167 -51 382.5l89 595h54zM959 1275h-126l16 108h126zM480 1275h-127l16 108h127zM701 1584
h130l3 -5l-141 -175h-42z" />
    <glyph glyph-name="alpha" unicode="&#x3b1;" horiz-adv-x="1149" 
d="M1032 1081l-50.001 -329.999c0 -0.666992 0.166992 -1.66699 0.5 -3s0.5 -2.33301 0.5 -3l-66 -441l-3 -9l-9 -60c-11.333 -77.333 -8.66602 -130.5 8.00098 -159.5s45 -43.5 85 -43.5c10 0 19.5 0.666992 28.5 2s21.5 4 37.5 8l4 -49c-12 -5.33301 -24 -9 -36 -11
s-25 -3 -39 -3c-52.667 0 -91.5 15.167 -116.5 45.5s-35.833 79.166 -32.5 146.499c-45.333 -58.667 -102 -105.334 -170 -140.001s-144.333 -52 -229 -52c-122 0 -212.833 49.167 -272.5 147.5s-77.167 229.833 -52.5 394.5l3 21c26.667 178 83 315.833 169 413.5
s193.667 146.5 323 146.5c82 0 151.5 -19.667 208.5 -59s99.5 -92.666 127.5 -159.999l46 198h35zM175.999 521.001c-23.333 -154.667 -12.167 -274.668 33.5 -360.001s126.5 -128 242.5 -128c90 0 170 21.333 240 64s124.667 99.334 164 170.001l76 510
c-14.667 76.667 -47 141 -97 193s-126.333 78 -229 78c-110 0 -203.167 -47.333 -279.5 -142s-125.5 -216 -147.5 -364z" />
    <glyph glyph-name="beta" unicode="&#x3b2;" horiz-adv-x="1213" 
d="M725 1477c112.667 0 200.5 -35.168 263.5 -105.501s86.5 -159.833 70.5 -268.5c-12 -78 -40.667 -146.333 -86 -205s-104.333 -101.667 -177 -129c97.333 -22.667 168.5 -68.667 213.5 -138s60.833 -151.333 47.5 -246c-20 -132 -75.333 -232.667 -166 -302
s-204 -104 -340 -104c-70 0 -139.5 14.833 -208.5 44.5s-119.5 71.834 -151.5 126.501l-84 -563h-54l105 702c0 0.666992 0.166992 4.66699 0.5 12s1.16602 13 2.49902 17l2 1l110 735c18.667 126 71.334 228 158.001 306s184.667 117 294 117zM515 790.999
l103.001 -0.00195312c112 0 200.833 27.833 266.5 83.5s106.167 133.5 121.5 233.5c13.333 88.667 -4.16699 163.334 -52.5 224.001s-127.5 91 -237.5 91c-90.667 0 -174.334 -35.333 -251.001 -106s-122.667 -158.334 -138 -263.001l-122 -812
c16 -64.667 56.667 -115.667 122 -153s142.666 -56 231.999 -56c121.333 0 221.333 30.833 300 92.5s126 146.834 142 255.501c17.333 114.667 -4.16699 202.334 -64.5 263.001s-156.166 91 -287.499 91h-143l7 44l1 5z" />
    <glyph glyph-name="gamma" unicode="&#x3b3;" horiz-adv-x="978" 
d="M959 1082h58l-581 -1077l-62 -420h-54l62 418l-257 1079h58l206 -853l29 -146l6 -1l74 147z" />
    <glyph glyph-name="delta" unicode="&#x3b4;" 
d="M1086 1456l-8 -53h-667l-2 -6l494 -374c54.667 -42 94.334 -105.667 119.001 -191s30 -175.333 16 -270l-6 -42c-25.333 -165.333 -88.5 -296.833 -189.5 -394.5s-222.167 -146.5 -363.5 -146.5c-135.333 0 -240.833 50.833 -316.5 152.5s-101.5 231.167 -77.5 388.5
l6 42c24.667 164.667 87.667 295.834 189 393.501s223 146.5 365 146.5c10 0 19.667 -0.333008 29 -1s16.666 -1.33398 21.999 -2.00098l2 5l-383 298l8 54h763zM637 1048c-122 0 -229.67 -48.3311 -323.003 -144.998s-149.666 -210.334 -168.999 -341.001l-6 -42
c-21.333 -140.667 -1.16602 -257 60.501 -349s157.5 -138 287.5 -138c121.333 0 228.333 47.667 321 143s149.334 210 170.001 344l6 42c20.667 137.333 0 252.666 -62 345.999s-157 140 -285 140z" />
    <glyph glyph-name="epsilon" unicode="&#x3b5;" horiz-adv-x="1122" 
d="M717 525l-164.999 0.00195312c-122.667 0 -220.167 -19.333 -292.5 -58s-114.5 -98.667 -126.5 -180s11.5 -143.166 70.5 -185.499s149.833 -63.5 272.5 -63.5c111.333 0 208 24.833 290 74.5s129 112.5 141 188.5h44l2 -6c-12 -104 -65.333 -182 -160 -234
s-203.334 -78 -326.001 -78c-124 0 -223.167 27.5 -297.5 82.5s-104.166 129.833 -89.499 224.5c10 71.333 39 129.166 87 173.499s115.333 75.166 202 92.499c-68.667 21.333 -120.334 53.833 -155.001 97.5s-47.667 93.167 -39 148.5
c14.667 98.667 62.334 172.667 143.001 222s186.334 74 317.001 74c115.333 0 211.166 -27.333 287.499 -82s106.166 -125 89.499 -211l-2 -6h-45c11.333 76.667 -15.167 136.667 -79.5 180s-150.5 65 -258.5 65c-115.333 0 -207.5 -22.167 -276.5 -66.5
s-108.5 -101.833 -118.5 -172.5c-11.333 -74.667 9 -130.834 61 -168.501s141 -56.5 267 -56.5h165l-1 -8l-6 -41z" />
    <glyph glyph-name="zeta" unicode="&#x3b6;" horiz-adv-x="977" 
d="M1025 1456l-5.00195 -37l-529 -579c-98 -105.333 -169 -197.666 -213 -276.999s-71 -153.333 -81 -222c-12.667 -80.667 6.5 -148.834 57.5 -204.501s134.5 -83.5 250.5 -83.5h103c68 0 116.667 -16 146 -48s40.333 -74.333 33 -127
c-9.33301 -60 -41.166 -113.833 -95.499 -161.5s-108.166 -79.5 -161.499 -95.5l-6 52c42.667 14 86.5 40.667 131.5 80s71.167 81.333 78.5 126c6 41.333 -1.33301 71.833 -22 91.5s-57.667 29.5 -111 29.5h-104c-126 0 -219.833 34 -281.5 102s-85.5 147.667 -71.5 239
c11.333 78 40.333 158.667 87 242s123 182 229 296l472 519l-2 5h-762l8 53h849z" />
    <glyph glyph-name="eta" unicode="&#x3b7;" 
d="M276 870c43.333 74.667 99.167 131.999 167.5 171.999s148.833 60 241.5 60c113.333 0 195 -37.667 245 -113s63.333 -192.666 40 -351.999l-158 -1053h-54l158 1055c23.333 156.667 13.166 264 -30.501 322s-112.834 87 -207.501 87
c-109.333 0 -199.666 -34 -270.999 -102s-124 -154.333 -158 -259l-103 -687h-54l83 554h-2c1.33301 10 2.83301 20.167 4.5 30.5s3.83398 21.833 6.50098 34.5l70 463h46z" />
    <glyph glyph-name="theta" unicode="&#x3b8;" horiz-adv-x="1181" 
d="M1031 514c-26 -174 -84.167 -306.667 -174.5 -398s-206.166 -137 -347.499 -137c-134 0 -234.667 48 -302 144s-88.333 226.333 -63 391l64 428c26 172.667 84.5 305 175.5 397s207.167 138 348.5 138c134 0 234.167 -48 300.5 -144s87.166 -226.333 62.499 -391z
M233 749h779.001l29 193c22.667 152 7 270.167 -47 354.5s-144.333 126.5 -271 126.5c-120.667 0 -222.334 -44 -305.001 -132s-134.667 -204.333 -156 -349zM1004 695l-778.999 0.000976562l-27 -179c-22.667 -150 -6.83398 -268 47.499 -354s144.833 -129 271.5 -129
c120 0 221.167 44.667 303.5 134s134.5 205.666 156.5 348.999z" />
    <glyph glyph-name="iota" unicode="&#x3b9;" horiz-adv-x="565" 
d="M307 1081l-119.998 -802c-14.667 -93.333 -8.83398 -157.666 17.499 -192.999s69.833 -53 130.5 -53c17.333 0 33.666 0.666992 48.999 2s35 3.66602 59 6.99902l2 -50c-17.333 -4.66699 -35.5 -8 -54.5 -10s-39.167 -3 -60.5 -3c-80.667 0 -138 23.5 -172 70.5
s-42.667 123.5 -26 229.5l120 802h55z" />
    <glyph glyph-name="kappa" unicode="&#x3ba;" horiz-adv-x="1084" 
d="M393 529h-168l-79 -529h-55l162 1082h55l-75 -500h178l564 500h61l2 -6l-581 -523l483 -548l-2 -5h-64z" />
    <glyph glyph-name="lambda" unicode="&#x3bb;" 
d="M32 0h-59.001l592 1076l-38 176c-11.333 70.667 -28.166 123.667 -50.499 159s-59.166 53 -110.499 53c-7.33301 0 -19 -0.833008 -35 -2.5s-27.333 -3.16699 -34 -4.5l-2 51c7.33301 2.66699 19.166 5 35.499 7s30.5 3 42.5 3c70 0 119.167 -24.833 147.5 -74.5
s48.833 -110.834 61.5 -183.501l214 -982c14.667 -72.667 32.5 -129.167 53.5 -169.5s50.5 -60.5 88.5 -60.5c7.33301 0 18.833 0.666992 34.5 2s27.167 3 34.5 5l2 -51c-8 -2.66699 -20.167 -5 -36.5 -7s-30.5 -3 -42.5 -3c-59.333 0 -101.5 24.333 -126.5 73
s-45.5 110.334 -61.5 185.001l-155 726l-3 15h-6l-58 -106z" />
    <glyph glyph-name="uni03BC" unicode="&#x3bc;" 
d="M305 1082l-95.999 -642c-23.333 -154.667 -11.5 -261.167 35.5 -319.5s116.833 -87.5 209.5 -87.5c120.667 0 214.834 33.167 282.501 99.5s115.5 158.166 143.5 275.499l101 674h54l-87 -577h3c-2.66699 -16.667 -5 -30.667 -7 -42s-4.33301 -22.333 -7 -33l-64 -430
h-41l20 200c-42.667 -72 -96.834 -126.833 -162.501 -164.5s-143.834 -56.5 -234.501 -56.5c-66 0 -124.833 15.333 -176.5 46s-88.167 80.334 -109.5 149.001l-88 -590h-52l224 1498h52z" />
    <glyph glyph-name="nu" unicode="&#x3bd;" horiz-adv-x="978" 
d="M389 229l29 -146l6 -1l74 147l461 853h58l-583 -1081l1 -1h-52l-258 1082h58z" />
    <glyph glyph-name="xi" unicode="&#x3be;" horiz-adv-x="1049" 
d="M832 1456l203.998 0.00292969l-8 -54h-227c-128 -3.33301 -230.167 -30 -306.5 -80s-120.166 -114.667 -131.499 -194c-13.333 -86 9 -150.333 67 -193s157.333 -64 298 -64h122l-1 -7l-1 -5l-6 -41h-1v-3h-122c-136 0 -255.833 -32.833 -359.5 -98.5
s-165.167 -163.834 -184.5 -294.501c-18 -117.333 14.333 -208 97 -272s202.667 -96 360 -96h43c80.667 0 139 -18 175 -54s50 -83.333 42 -142c-8.66699 -55.333 -40 -105 -94 -149s-107.333 -73 -160 -87l-7 52c42.667 12 86.5 35.833 131.5 71.5s70.5 73.5 76.5 113.5
c6.66699 48.667 -3.16602 84.5 -29.499 107.5s-73.833 34.5 -142.5 34.5h-43c-161.333 -0.666992 -290.5 37.166 -387.5 113.499s-135.5 180.166 -115.5 311.499c16 111.333 59.833 202.166 131.5 272.499s163.167 118.5 274.5 144.5
c-78.667 22.667 -137.5 59.334 -176.5 110.001s-53.167 107.667 -42.5 171c8.66699 64.667 31 120.167 67 166.5s84 83.5 144 111.5h-278l8 54h490c19.333 0.666992 36 1.5 50 2.5s28.667 1.5 44 1.5z" />
    <glyph glyph-name="omicron" unicode="&#x3bf;" 
d="M91 562c24.667 164.667 87.667 295.834 189 393.501s223 146.5 365 146.5c135.333 0 240.5 -50.833 315.5 -152.5s100.833 -230.834 77.5 -387.501l-6 -42c-25.333 -165.333 -88.5 -296.833 -189.5 -394.5s-222.167 -146.5 -363.5 -146.5
c-135.333 0 -240.833 50.833 -316.5 152.5s-101.5 231.167 -77.5 388.5zM139 520c-21.333 -140.667 -1.16895 -256.998 60.498 -348.998s157.5 -138 287.5 -138c121.333 0 228.333 47.667 321 143s149.334 210 170.001 344l6 42c20.667 137.333 0 252.666 -62 345.999
s-157 140 -285 140c-122 0 -229.667 -48.333 -323 -145s-149.666 -210.334 -168.999 -341.001z" />
    <glyph glyph-name="pi" unicode="&#x3c0;" horiz-adv-x="1183" 
d="M1184 1027h-184.998l-112 -748c-14.667 -93.333 -8.83398 -157.666 17.499 -192.999s69.833 -53 130.5 -53c17.333 0 33.666 0.666992 48.999 2s35 3.66602 59 6.99902l2 -50c-17.333 -4.66699 -35.5 -8 -54.5 -10s-39.167 -3 -60.5 -3c-80.667 0 -138 23.5 -172 70.5
s-42.667 123.5 -26 229.5l112 748h-569l-154 -1027h-54l154 1027h-165l8 55h1028z" />
    <glyph glyph-name="rho" unicode="&#x3c1;" 
d="M997 521c-26 -172.667 -81.667 -306.167 -167 -400.5s-192 -141.5 -320 -141.5c-81.333 0 -151 17.333 -209 52s-101.333 81 -130 139l-87 -586h-54l107 717v4l50 331c23.333 153.333 79.5 269.333 168.5 348s196.167 118 321.5 118c122 0 212.667 -51 272 -153
s76.333 -237.667 51 -407zM945 542c22.667 155.333 11.166 278.5 -34.501 369.5s-126.167 136.5 -241.5 136.5c-120 0 -217.5 -43.333 -292.5 -130s-121.167 -187.667 -138.5 -303l-53 -350c16.667 -70.667 52.834 -127 108.501 -169s130.834 -63 225.501 -63
c109.333 0 201.666 44.5 276.999 133.5s124 207.167 146 354.5z" />
    <glyph glyph-name="sigma1" unicode="&#x3c2;" horiz-adv-x="1089" 
d="M658 1102c107.333 0 194.497 -33.1699 261.497 -99.5029s90.167 -158.833 69.5 -277.5l-2 -5h-47c16 110.667 -4 193 -60 247s-132.667 81 -230 81c-122 0 -225.333 -46.167 -310 -138.5s-137.334 -208.166 -158.001 -347.499l-6 -42
c-22 -144.667 -2.66699 -259.5 58 -344.5s160.334 -132.833 299.001 -143.5c84.667 -7.33301 143.834 -27.166 177.501 -59.499s46.5 -77.5 38.5 -135.5c-8.66699 -56 -40 -105.667 -94 -149s-107.667 -72.333 -161 -87l-7 52c42.667 12.667 86.334 36.5 131.001 71.5
s70.334 72.5 77.001 112.5c6.66699 46.667 -3.16602 80.5 -29.499 101.5s-74.5 34.167 -144.5 39.5c-148.667 11.333 -258.667 64.833 -330 160.5s-95 222.834 -71 381.501l6 42c24.667 166 84.667 297.5 180 394.5s212.666 145.5 351.999 145.5z" />
    <glyph glyph-name="sigma" unicode="&#x3c3;" 
d="M1191 1027l-344 0.000976562c75.333 -42 130 -103.333 164 -184s43.333 -173.667 28 -279l-7 -43c-25.333 -166 -88.5 -297.833 -189.5 -395.5s-222.167 -146.5 -363.5 -146.5c-135.333 0 -240.833 50.833 -316.5 152.5s-101.5 231.167 -77.5 388.5l6 42
c23.333 157.333 85.5 283.166 186.5 377.499s222.167 141.833 363.5 142.5h1h10h547zM139 520.001c-21.333 -140.667 -1.16699 -257.001 60.5 -349.001s157.5 -138 287.5 -138c121.333 0 228.333 47.667 321 143s149.334 210 170.001 344l6 42
c20 132 -1.33301 242.5 -64 331.5s-158 133.5 -286 133.5c-122 0 -229.333 -46.167 -322 -138.5s-148.334 -201.166 -167.001 -326.499z" />
    <glyph glyph-name="tau" unicode="&#x3c4;" horiz-adv-x="1027" 
d="M1028 1027h-424l-154 -1027h-54l154 1027h-403l8 55h881z" />
    <glyph glyph-name="upsilon" unicode="&#x3c5;" 
d="M304 1082l-89 -596.999c-24.667 -160.667 -12.167 -276.167 37.5 -346.5s127.834 -105.5 234.501 -105.5c121.333 0 217.166 44.5 287.499 133.5s115.833 200.167 136.5 333.5c16.667 110 22 211.667 16 305s-19.667 185.666 -41 276.999h66
c17.333 -98 28.333 -188 33 -270s-2.33301 -185 -21 -309c-24.667 -166.667 -76.5 -295.667 -155.5 -387s-188.167 -137 -327.5 -137c-119.333 0 -209 41.833 -269 125.5s-77 211.167 -51 382.5l89 595h54z" />
    <glyph glyph-name="phi" unicode="&#x3c6;" horiz-adv-x="1365" 
d="M789 1082c148.667 0 265.667 -52.334 351 -157.001s116 -237.667 92 -399c-23.333 -155.333 -88.5 -284 -195.5 -386s-244.833 -155.333 -413.5 -160l-68 -459h-54l69 459c-167.333 7.33301 -287 62 -359 164s-95 236 -69 402c18 119.333 45.333 214.833 82 286.5
s89.334 154.834 158.001 249.501h66c-65.333 -82 -120.333 -167.833 -165 -257.5s-74 -183.167 -88 -280.5c-22.667 -148.667 -6.33398 -269 48.999 -361s165 -139.667 329 -143l6 2l156 1040h54zM1179 523.999c20.667 142 -5.66699 261.167 -79 357.5
s-178 143.166 -314 140.499l-6 -1l-148 -979l6 -3c142 1.33301 262.5 49.833 361.5 145.5s158.833 208.834 179.5 339.501z" />
    <glyph glyph-name="chi" unicode="&#x3c7;" 
d="M206 1090c60 0 102.999 -20.667 128.999 -62s53.333 -101.333 82 -180l128 -426l461 660h63l-505 -721l150 -497c36.667 -106 60.5 -170.833 71.5 -194.5s34.167 -35.5 69.5 -35.5c7.33301 0 18.833 0.833008 34.5 2.5s27.5 3.16699 35.5 4.5l2 -50
c-8.66699 -2.66699 -21.167 -5 -37.5 -7s-30.5 -3 -42.5 -3c-46 0 -80.5 18.167 -103.5 54.5s-50.833 103.833 -83.5 202.5l-138 463l-501 -715h-59l541 776l-142 476c-29.333 82 -51.666 135.5 -66.999 160.5s-47.333 37.5 -96 37.5c-8 0 -19.667 -0.833008 -35 -2.5
s-26.666 -3.5 -33.999 -5.5l-1 52c7.33301 2.66699 19.166 5 35.499 7s30.5 3 42.5 3z" />
    </font>
</defs>
</svg>
